<svg xmlns="http://www.w3.org/2000/svg" xmlns:xlink="http://www.w3.org/1999/xlink" xmlns:lucid="lucid" width="1228.35" height="1480.31"><g transform="translate(0 0)" lucid:page-tab-id="pvPWRBtz3NRx"><path d="M0 0h1228.35v1480.3H0z" fill="#fff"/><path d="M31.5 51.5v1397.32h314.96V51.5" stroke="#000" stroke-width="2" fill="none"/><path d="M31.5 31.5h314.96v40H31.5z" stroke="#000" stroke-width="2" fill="#e5e5e5"/><use xlink:href="#a" transform="matrix(1,0,0,1,51.49606299214065,31.49606299214065) translate(105.1 26.03)"/><path d="M346.46 51.5v1397.32H850.4V51.5" stroke="#000" stroke-width="2" fill="none"/><path d="M346.46 31.5H850.4v40H346.45z" stroke="#000" stroke-width="2" fill="#e5e5e5"/><use xlink:href="#b" transform="matrix(1,0,0,1,366.4566929133988,31.49606299214065) translate(97 26.03)"/><use xlink:href="#c" transform="matrix(1,0,0,1,366.4566929133988,31.49606299214065) translate(226.6 26.03)"/><use xlink:href="#d" transform="matrix(1,0,0,1,366.4566929133988,31.49606299214065) translate(302.2 26.03)"/><path d="M850.4 51.5v1397.32h346.45V51.5" stroke="#000" stroke-width="2" fill="none"/><path d="M850.4 31.5h346.45v40H850.4z" stroke="#000" stroke-width="2" fill="#e5e5e5"/><use xlink:href="#e" transform="matrix(1,0,0,1,870.3937007875227,31.49606299214065) translate(94.10000000000001 26.03)"/><use xlink:href="#d" transform="matrix(1,0,0,1,870.3937007875227,31.49606299214065) translate(148.1 26.03)"/><path d="M220.47 157.48c0 17.4-14.1 31.5-31.5 31.5s-31.5-14.1-31.5-31.5 14.1-31.5 31.5-31.5 31.5 14.1 31.5 31.5z" stroke="#000" stroke-width="2"/><path d="M113.4 220.47c-10.45 0-18.9 8.46-18.9 18.9v56.7c0 10.43 8.45 18.9 18.9 18.9h151.17c10.43 0 18.9-8.47 18.9-18.9v-56.7c0-10.44-8.47-18.9-18.9-18.9z" stroke="#000" stroke-width="2" fill="#e5e5e5"/><use xlink:href="#f" transform="matrix(1,0,0,1,102.48818897637793,228.4724409448819) translate(27.10000000000001 34.73)"/><use xlink:href="#g" transform="matrix(1,0,0,1,102.48818897637793,228.4724409448819) translate(113.5 34.73)"/><use xlink:href="#h" transform="matrix(1,0,0,1,102.48818897637793,228.4724409448819) translate(16.299999999999997 56.33)"/><path d="M188.98 190.98v10" stroke="#000" stroke-width="2" fill="none"/><path d="M188.97 189.98l1-.07v1.1h-2v-1.1z"/><path d="M188.98 216.24l-4.64-14.27h9.27z" stroke="#000" stroke-width="2"/><path d="M522.83 220.47c-10.43 0-18.9 8.46-18.9 18.9v56.7c0 10.43 8.47 18.9 18.9 18.9h151.2c10.42 0 18.88-8.47 18.88-18.9v-56.7c0-10.44-8.45-18.9-18.88-18.9z" stroke="#000" stroke-width="2" fill="#e5e5e5"/><use xlink:href="#i" transform="matrix(1,0,0,1,511.9370078739772,228.47244094486814) translate(43.300000000000004 45.53)"/><path d="M932.28 220.47c-10.43 0-18.9 8.46-18.9 18.9v56.7c0 10.43 8.47 18.9 18.9 18.9h151.18c10.44 0 18.9-8.47 18.9-18.9v-56.7c0-10.44-8.46-18.9-18.9-18.9z" stroke="#000" stroke-width="2" fill="#e5e5e5"/><use xlink:href="#j" transform="matrix(1,0,0,1,921.3858267716535,228.4724409449974) translate(43.300000000000004 34.73)"/><use xlink:href="#k" transform="matrix(1,0,0,1,921.3858267716535,228.4724409449974) translate(37.891000000000005 56.33)"/><path d="M285.46 267.72h198.98" stroke="#000" stroke-width="2" fill="none"/><path d="M285.5 268.72h-1.04v-2h1.03z"/><path d="M499.7 267.72l-14.26 4.63v-9.27z" stroke="#000" stroke-width="2"/><path d="M694.9 267.72H893.9" stroke="#000" stroke-width="2" fill="none"/><path d="M694.94 268.72h-1.03v-2h1.04z"/><path d="M909.15 267.72l-14.27 4.63v-9.27z" stroke="#000" stroke-width="2"/><path d="M1007.87 346.46l31.5 31.5-31.5 31.5-31.5-31.5z" stroke="#000" stroke-width="2" fill="#fff"/><path d="M932.28 472.44c-10.43 0-18.9 8.46-18.9 18.9v56.7c0 10.43 8.47 18.9 18.9 18.9h151.18c10.44 0 18.9-8.47 18.9-18.9v-56.7c0-10.44-8.46-18.9-18.9-18.9z" stroke="#000" stroke-width="2" fill="#e5e5e5"/><use xlink:href="#l" transform="matrix(1,0,0,1,921.3858267716535,480.4409448820082) translate(48.7 23.930000000000003)"/><use xlink:href="#m" transform="matrix(1,0,0,1,921.3858267716535,480.4409448820082) translate(16.299999999999997 45.53)"/><use xlink:href="#n" transform="matrix(1,0,0,1,921.3858267716535,480.4409448820082) translate(32.49100000000001 67.13000000000001)"/><path d="M113.4 472.44c-10.45 0-18.9 8.46-18.9 18.9v56.7c0 10.43 8.45 18.9 18.9 18.9h151.17c10.43 0 18.9-8.47 18.9-18.9v-56.7c0-10.44-8.47-18.9-18.9-18.9z" stroke="#000" stroke-width="2" fill="#e5e5e5"/><use xlink:href="#o" transform="matrix(1,0,0,1,102.48818897653837,480.4409448820082) translate(37.900000000000006 23.930000000000003)"/><use xlink:href="#p" transform="matrix(1,0,0,1,102.48818897653837,480.4409448820082) translate(113.5 23.930000000000003)"/><use xlink:href="#q" transform="matrix(1,0,0,1,102.48818897653837,480.4409448820082) translate(5.481999999999999 45.53)"/><use xlink:href="#r" transform="matrix(1,0,0,1,102.48818897653837,480.4409448820082) translate(91.89999999999999 45.53)"/><use xlink:href="#s" transform="matrix(1,0,0,1,102.48818897653837,480.4409448820082) translate(27.10000000000001 67.13000000000001)"/><path d="M522.83 755.9c-10.43 0-18.9 8.47-18.9 18.9v56.7c0 10.43 8.47 18.9 18.9 18.9h151.2c10.42 0 18.88-8.47 18.88-18.9v-56.7c0-10.43-8.45-18.9-18.88-18.9z" stroke="#000" stroke-width="2" fill="#e5e5e5"/><use xlink:href="#t" transform="matrix(1,0,0,1,511.93700787416185,763.9055118110235) translate(10.900000000000006 45.53)"/><use xlink:href="#u" transform="matrix(1,0,0,1,511.93700787416185,763.9055118110235) translate(75.7 45.53)"/><path d="M932.28 755.9c-10.43 0-18.9 8.47-18.9 18.9v56.7c0 10.43 8.47 18.9 18.9 18.9h151.18c10.44 0 18.9-8.47 18.9-18.9v-56.7c0-10.43-8.46-18.9-18.9-18.9z" stroke="#000" stroke-width="2" fill="#e5e5e5"/><use xlink:href="#v" transform="matrix(1,0,0,1,921.3858267716535,763.9055118110235) translate(10.900000000000006 45.53)"/><use xlink:href="#w" transform="matrix(1,0,0,1,921.3858267716535,763.9055118110235) translate(64.9 45.53)"/><use xlink:href="#x" transform="matrix(1,0,0,1,921.3858267716535,763.9055118110235) translate(118.89999999999999 45.53)"/><path d="M428.35 1007.87c-10.44 0-18.9 8.46-18.9 18.9v56.7c0 10.43 8.46 18.9 18.9 18.9h119.68c10.44 0 18.9-8.47 18.9-18.9v-56.7c0-10.44-8.46-18.9-18.9-18.9z" stroke="#000" stroke-width="2" fill="#e5e5e5"/><use xlink:href="#y" transform="matrix(1,0,0,1,417.4488188976377,1015.8740157480314) translate(17 23.930000000000003)"/><use xlink:href="#z" transform="matrix(1,0,0,1,417.4488188976377,1015.8740157480314) translate(92.6 23.930000000000003)"/><use xlink:href="#w" transform="matrix(1,0,0,1,417.4488188976377,1015.8740157480314) translate(11.600000000000009 45.53)"/><use xlink:href="#A" transform="matrix(1,0,0,1,417.4488188976377,1015.8740157480314) translate(65.6 45.53)"/><use xlink:href="#B" transform="matrix(1,0,0,1,417.4488188976377,1015.8740157480314) translate(98 45.53)"/><use xlink:href="#u" transform="matrix(1,0,0,1,417.4488188976377,1015.8740157480314) translate(27.800000000000004 67.13000000000001)"/><path d="M648.82 1007.87c-10.44 0-18.9 8.46-18.9 18.9v56.7c0 10.43 8.46 18.9 18.9 18.9H768.5c10.44 0 18.9-8.47 18.9-18.9v-56.7c0-10.44-8.46-18.9-18.9-18.9z" stroke="#000" stroke-width="2" fill="#e5e5e5"/><use xlink:href="#t" transform="matrix(1,0,0,1,637.9212598425802,1015.8740157480314) translate(0.8000000000000114 23.930000000000003)"/><use xlink:href="#C" transform="matrix(1,0,0,1,637.9212598425802,1015.8740157480314) translate(65.60000000000001 23.930000000000003)"/><use xlink:href="#D" transform="matrix(1,0,0,1,637.9212598425802,1015.8740157480314) translate(98 23.930000000000003)"/><use xlink:href="#E" transform="matrix(1,0,0,1,637.9212598425802,1015.8740157480314) translate(22.391000000000005 45.53)"/><use xlink:href="#F" transform="matrix(1,0,0,1,637.9212598425802,1015.8740157480314) translate(54.791000000000004 45.53)"/><use xlink:href="#w" transform="matrix(1,0,0,1,637.9212598425802,1015.8740157480314) translate(22.400000000000006 67.13000000000001)"/><use xlink:href="#x" transform="matrix(1,0,0,1,637.9212598425802,1015.8740157480314) translate(76.4 67.13000000000001)"/><path d="M428.35 1165.35c-10.44 0-18.9 8.47-18.9 18.9v56.7c0 10.43 8.46 18.9 18.9 18.9h151.18c10.43 0 18.9-8.47 18.9-18.9v-56.7c0-10.43-8.47-18.9-18.9-18.9z" stroke="#000" stroke-width="2" fill="#e5e5e5"/><use xlink:href="#y" transform="matrix(1,0,0,1,417.4488188976377,1173.3543307086616) translate(5.500000000000014 34.73)"/><use xlink:href="#G" transform="matrix(1,0,0,1,417.4488188976377,1173.3543307086616) translate(81.10000000000001 34.73)"/><use xlink:href="#H" transform="matrix(1,0,0,1,417.4488188976377,1173.3543307086616) translate(124.3 34.73)"/><use xlink:href="#I" transform="matrix(1,0,0,1,417.4488188976377,1173.3543307086616) translate(21.700000000000003 56.33)"/><use xlink:href="#w" transform="matrix(1,0,0,1,417.4488188976377,1173.3543307086616) translate(43.3 56.33)"/><use xlink:href="#J" transform="matrix(1,0,0,1,417.4488188976377,1173.3543307086616) translate(97.3 56.33)"/><path d="M144.88 1165.35c-10.43 0-18.9 8.47-18.9 18.9v56.7c0 10.43 8.47 18.9 18.9 18.9h121.9c10.43 0 18.9-8.47 18.9-18.9v-56.7c0-10.43-8.47-18.9-18.9-18.9z" stroke="#000" stroke-width="2" fill="#e5e5e5"/><use xlink:href="#K" transform="matrix(1,0,0,1,133.9842519686644,1173.3543307087218) translate(18.000000000000007 45.53)"/><use xlink:href="#J" transform="matrix(1,0,0,1,133.9842519686644,1173.3543307087218) translate(72 45.53)"/><path d="M1007.87 661.42l31.5 31.5-31.5 31.5-31.5-31.5zM598.43 881.9l31.5 31.5-31.5 31.48-31.5-31.5zM708.66 1181.1l31.5 31.5-31.5 31.5-31.5-31.5zM125.98 1322.83l31.5 31.5-31.5 31.5-31.5-31.5zM283.46 1354.33c0 17.4-14.1 31.5-31.5 31.5s-31.5-14.1-31.5-31.5 14.1-31.5 31.5-31.5 31.5 14.1 31.5 31.5z" stroke="#000" stroke-width="2" fill="#fff"/><path d="M270.87 1354.33c0 10.44-8.46 18.9-18.9 18.9-10.44 0-18.9-8.46-18.9-18.9 0-10.44 8.46-18.9 18.9-18.9 10.44 0 18.9 8.46 18.9 18.9z" stroke="#000" stroke-width="2"/><path d="M1007.87 316.96v9.58" stroke="#000" stroke-width="2" fill="none"/><path d="M1008.87 317h-2v-1.04h2z"/><path d="M1007.87 341.8l-4.63-14.26h9.27z" stroke="#000" stroke-width="2"/><path d="M1008.87 452.94h-2v-6.7h2zm0-28.3h-2v-12.78h2z"/><path d="M1008.87 411.9h-2v-2.04l1 1 1-1zM1007.87 468.2l-4.63-14.26h9.27z"/><path d="M1007.87 471.44l-6-18.5h12.02zm-3.25-16.5l3.25 10.03 3.26-10.03z"/><use xlink:href="#L" transform="matrix(1,0,0,1,937.6740157480313,424.6455308769468) translate(0.0049999999999954525 16.830000000000002)"/><use xlink:href="#M" transform="matrix(1,0,0,1,937.6740157480313,424.6455308769468) translate(64.80499999999999 16.830000000000002)"/><path d="M1008.87 641.5h-2v-7.36h2zm126-42.07h-126v13.1h-2v-15.1h126V378.95h-91.1v-2h93.1z"/><path d="M1041.8 378.95h-2.02l1-1-1-1h2.03zM1007.87 656.77l-4.63-14.27h9.27z"/><path d="M1007.87 660l-6-18.5h12.02zm-3.25-16.5l3.25 10.03 3.26-10.03z"/><use xlink:href="#N" transform="matrix(1,0,0,1,926.8740157480313,612.5386184419524) translate(0.0049999999999954525 16.830000000000002)"/><use xlink:href="#O" transform="matrix(1,0,0,1,926.8740157480313,612.5386184419524) translate(86.40499999999999 16.830000000000002)"/><path d="M1007.87 726.82v9.58" stroke="#000" stroke-width="2" fill="none"/><path d="M1008.87 726.85h-2v-2.03l1 1 1-1z"/><path d="M1007.87 751.67l-4.63-14.27h9.27z" stroke="#000" stroke-width="2"/><path d="M188.98 661.42l31.5 31.5-31.5 31.5-31.5-31.5z" stroke="#000" stroke-width="2" fill="#fff"/><path d="M566.02 693.9H222.9v-2H566zm390.44 0H630.83v-2h325.63zM222.9 693.9h-2l1-1-1-1h2zM971.73 692.9l-14.27 4.65v-9.27z"/><path d="M974.96 692.9l-18.5 6.03V686.9zm-16.5 3.27l10.03-3.26-10.04-3.25z"/><use xlink:href="#P" transform="matrix(1,0,0,1,566.016196858333,682.1133858267717) translate(0.005000000000002558 16.830000000000002)"/><path d="M489.2 988.37h-2v-9.55h2zm75.3-73.98h-75.3v42.82h-2V912.4h77.3zM565.5 913.4l1 1h-2v-2h2zM488.2 1003.64l-4.65-14.27h9.27z"/><path d="M488.2 1006.87l-6.02-18.5h12.02zm-3.27-16.5l3.26 10.03 3.25-10.03z"/><use xlink:href="#Q" transform="matrix(1,0,0,1,444.988976378011,957.2153164766437) translate(0.005000000000002558 16.830000000000002)"/><use xlink:href="#R" transform="matrix(1,0,0,1,444.988976378011,957.2153164766437) translate(43.205 16.830000000000002)"/><path d="M709.66 988.37h-2v-8.64h2zm0-30.24h-2V914.4h-75.32v-2h77.32z"/><path d="M632.36 914.4h-2.02l1-1-1-1h2.02zM708.66 1003.64l-4.63-14.27h9.27z"/><path d="M708.66 1006.87l-6-18.5h12zm-3.26-16.5l3.26 10.03 3.26-10.03z"/><use xlink:href="#N" transform="matrix(1,0,0,1,611.4614173229534,958.129186546723) translate(0.0049999999999954525 16.830000000000002)"/><use xlink:href="#S" transform="matrix(1,0,0,1,611.4614173229534,958.129186546723) translate(86.40499999999999 16.830000000000002)"/><path d="M488.2 1104.36v29.5h220.46v27.33" stroke="#000" stroke-width="2" fill="none"/><path d="M489.2 1104.4h-2v-1.04h2z"/><path d="M708.66 1176.45l-4.63-14.26h9.27z" stroke="#000" stroke-width="2"/><path d="M708.66 1104.36v56.83" stroke="#000" stroke-width="2" fill="none"/><path d="M709.66 1104.4h-2v-1.04h2z"/><path d="M708.66 1176.45l-4.63-14.26h9.27z" stroke="#000" stroke-width="2"/><path d="M674.75 1212.6h-56.83" stroke="#000" stroke-width="2" fill="none"/><path d="M675.75 1212.6l1 1h-2.02v-2h2.02z"/><path d="M602.66 1212.6l14.27-4.64v9.27z" stroke="#000" stroke-width="2"/><path d="M407.45 1212.6H305.17" stroke="#000" stroke-width="2" fill="none"/><path d="M408.45 1213.6h-1.03v-2h1.03z"/><path d="M289.9 1212.6l14.27-4.64v9.27z" stroke="#000" stroke-width="2"/><path d="M205.83 1261.84v29.5h-79.85v11.58" stroke="#000" stroke-width="2" fill="none"/><path d="M206.83 1261.87h-2v-1.03h2z"/><path d="M125.98 1318.18l-4.63-14.26h9.27z" stroke="#000" stroke-width="2"/><path d="M159.9 1354.33h41.07" stroke="#000" stroke-width="2" fill="none"/><path d="M159.92 1355.33h-2.03l1-1-1-1h2.02z"/><path d="M216.23 1354.33l-14.26 4.64v-9.27z" stroke="#000" stroke-width="2"/><path d="M95.5 1290.34h31.48v12.58h-2v-10.58h-31.5v-289.4h2zm59.57-596.43H95.5v287.43h-2V691.9h61.57z"/><path d="M156.07 692.9l1 1h-2.03v-2h2.03zM125.98 1318.18l-4.63-14.26h9.27z"/><path d="M125.98 1321.42l-6-18.5H132zm-3.25-16.5l3.25 10.03 3.26-10.03z"/><g><use xlink:href="#T" transform="matrix(1,0,0,1,56.68818897653837,981.325984252014) translate(0.005000000000002558 16.830000000000002)"/></g><path d="M598.43 852.4v9.57" stroke="#000" stroke-width="2" fill="none"/><path d="M599.43 852.42h-2v-1.03h2z"/><path d="M598.43 877.24l-4.64-14.27h9.26z" stroke="#000" stroke-width="2"/><path d="M911.4 803.15H712.4" stroke="#000" stroke-width="2" fill="none"/><path d="M912.4 804.15h-1.04v-2h1.03z"/><path d="M697.15 803.15l14.27-4.64v9.28z" stroke="#000" stroke-width="2"/><path d="M911.4 519.7H302.96" stroke="#000" stroke-width="2" fill="none"/><path d="M912.4 520.7h-1.04v-2h1.03z"/><path d="M287.7 519.7l14.27-4.65v9.27z" stroke="#000" stroke-width="2"/><path d="M188.98 568.93v72.57" stroke="#000" stroke-width="2" fill="none"/><path d="M189.98 568.95h-2v-1.02h2z"/><path d="M188.98 656.77l-4.64-14.27h9.27z" stroke="#000" stroke-width="2"/><defs><path d="M63-345c-4-243 159-405 405-339 31 11 61 28 90 51l-49 57c-41-34-89-51-145-51-146 6-210 112-210 282S215-69 363-63c75 0 116-23 160-57l45 56c-51 50-120 75-206 75C163 3 67-136 63-345" id="U"/><path d="M378 11c-91 1-156-55-156-145v-538H60v-67h246v609c-6 82 110 83 175 53l22 61c-33 18-75 27-125 27" id="V"/><path d="M300-773c36-1 62 24 62 59s-26 60-62 59c-35 1-61-25-60-59-1-34 25-60 60-59zm67 246v460h148V0H121v-67h162v-393H126v-67h241" id="W"/><path d="M167-234c1 104 57 173 153 175 63-1 97-20 141-47l39 56c-43 34-108 60-180 61C164 13 77-104 79-263c3-156 76-272 229-275 155-3 231 134 213 304H167zm274-64c0-99-41-171-132-171-93 0-138 73-142 171h274" id="X"/><path d="M327-471c-64 0-116 47-143 88V0h-84v-527h72l7 74c34-46 100-84 174-85 99 0 148 52 148 156V0h-84v-320c-1-91-3-151-90-151" id="Y"/><path d="M519-27c-32 22-89 38-142 38-104 2-177-59-177-158v-314H79v-66h121v-119l84-10v129h183l-11 66H284v313C274-41 417-45 486-84" id="Z"/><g id="a"><use transform="matrix(0.018,0,0,0.018,0,0)" xlink:href="#U"/><use transform="matrix(0.018,0,0,0.018,10.799999999999999,0)" xlink:href="#V"/><use transform="matrix(0.018,0,0,0.018,21.599999999999998,0)" xlink:href="#W"/><use transform="matrix(0.018,0,0,0.018,32.4,0)" xlink:href="#X"/><use transform="matrix(0.018,0,0,0.018,43.199999999999996,0)" xlink:href="#Y"/><use transform="matrix(0.018,0,0,0.018,53.99999999999999,0)" xlink:href="#Z"/></g><path d="M497-689v70H344v550h153V0H103v-69h153v-550H103v-70h394" id="aa"/><path d="M219-591c-3-153 202-192 335-130l-27 63c-33-15-71-22-113-22-73 0-110 29-110 87v107h178l-9 67H304V0h-85v-419H94v-67h125v-105" id="ab"/><path d="M301-538c152-1 227 116 226 274 2 155-77 276-227 275C148 12 71-105 73-263c-2-156 77-276 228-275zm0 69c-107 0-137 85-137 206 1 121 29 205 136 205s135-84 136-206c-1-120-29-205-135-205" id="ac"/><path d="M267-402c40-99 128-162 263-125l-12 179h-68v-113c-87-2-142 56-178 174v222h107V0H105v-65h83v-397h-83v-65h146" id="ad"/><path d="M447-538c76 0 102 52 102 146V0h-77v-378c-4-59 6-89-41-94-34 0-65 21-92 63V0h-78v-378c-4-59 6-89-41-94-34 0-65 21-92 63V0H51v-527h65l6 62c29-39 54-71 114-73 49 0 81 23 95 70 29-39 56-70 116-70" id="ae"/><path d="M478-115c0 42 12 57 43 67l-21 60c-51-7-83-32-96-75-34 44-90 74-165 74C137 13 68-51 69-151c3-149 154-179 324-169 10-103-29-151-125-148-40 0-86 9-137 27l-23-64c153-63 370-47 370 137v253zM260-52c60-1 107-35 133-75v-135c-121-4-236-1-234 110 0 67 34 100 101 100" id="af"/><g id="b"><use transform="matrix(0.018,0,0,0.018,0,0)" xlink:href="#aa"/><use transform="matrix(0.018,0,0,0.018,10.799999999999999,0)" xlink:href="#Y"/><use transform="matrix(0.018,0,0,0.018,21.599999999999998,0)" xlink:href="#ab"/><use transform="matrix(0.018,0,0,0.018,32.4,0)" xlink:href="#ac"/><use transform="matrix(0.018,0,0,0.018,43.199999999999996,0)" xlink:href="#ad"/><use transform="matrix(0.018,0,0,0.018,53.99999999999999,0)" xlink:href="#ae"/><use transform="matrix(0.018,0,0,0.018,64.8,0)" xlink:href="#af"/><use transform="matrix(0.018,0,0,0.018,75.6,0)" xlink:href="#Z"/><use transform="matrix(0.018,0,0,0.018,86.39999999999999,0)" xlink:href="#W"/><use transform="matrix(0.018,0,0,0.018,97.19999999999999,0)" xlink:href="#ac"/><use transform="matrix(0.018,0,0,0.018,107.99999999999999,0)" xlink:href="#Y"/></g><path d="M537-191C537-52 430 9 285 11 180 11 98-23 43-76l52-59c48 44 104 70 191 74 108 4 200-84 147-186-23-45-74-57-137-76-75-22-130-47-167-77s-55-71-55-122c-1-161 194-210 344-158 36 13 69 33 99 59l-52 56c-47-41-102-62-165-62-94 0-179 73-122 153 31 44 86 55 157 76 113 38 202 70 202 207" id="ag"/><path d="M354 3c-42 115-98 195-236 209l-12-67c98-15 140-60 167-145h-28L62-527h89L302-64l149-463h87" id="ah"/><path d="M280-58c84 5 156-46 121-126-25-33-62-42-118-58-101-31-180-44-180-152 0-172 283-177 392-86l-38 58c-42-28-84-48-152-48-96-3-135 45-101 108 50 50 205 62 254 112 26 26 43 59 43 104C500 44 180 48 74-60l47-55c38 31 93 57 159 57" id="ai"/><g id="c"><use transform="matrix(0.018,0,0,0.018,0,0)" xlink:href="#ag"/><use transform="matrix(0.018,0,0,0.018,10.799999999999999,0)" xlink:href="#ah"/><use transform="matrix(0.018,0,0,0.018,21.599999999999998,0)" xlink:href="#ai"/><use transform="matrix(0.018,0,0,0.018,32.4,0)" xlink:href="#Z"/><use transform="matrix(0.018,0,0,0.018,43.199999999999996,0)" xlink:href="#X"/><use transform="matrix(0.018,0,0,0.018,53.99999999999999,0)" xlink:href="#ae"/></g><path d="M540-527L348 0h-97L60-527h90L302-76l150-451h88" id="aj"/><g id="d"><use transform="matrix(0.018,0,0,0.018,0,0)" xlink:href="#ag"/><use transform="matrix(0.018,0,0,0.018,10.799999999999999,0)" xlink:href="#X"/><use transform="matrix(0.018,0,0,0.018,21.599999999999998,0)" xlink:href="#ad"/><use transform="matrix(0.018,0,0,0.018,32.4,0)" xlink:href="#aj"/><use transform="matrix(0.018,0,0,0.018,43.199999999999996,0)" xlink:href="#X"/><use transform="matrix(0.018,0,0,0.018,53.99999999999999,0)" xlink:href="#ad"/></g><path d="M434-176H161L106 0H20l225-689h110L579 0h-90zm-250-72h227L298-615" id="ak"/><path d="M252 11c-100 1-152-56-152-155v-383h84v374c0 66 25 97 89 98 63 0 117-43 143-84v-388h84V0h-72l-7-71c-35 45-96 81-169 82" id="al"/><path d="M325-471c-62 0-114 48-141 87V0h-84v-738l84-9v293c35-46 95-83 169-84 99 0 148 52 148 156V0h-84v-381c0-64-28-90-92-90" id="am"/><g id="e"><use transform="matrix(0.018,0,0,0.018,0,0)" xlink:href="#ak"/><use transform="matrix(0.018,0,0,0.018,10.799999999999999,0)" xlink:href="#al"/><use transform="matrix(0.018,0,0,0.018,21.599999999999998,0)" xlink:href="#Z"/><use transform="matrix(0.018,0,0,0.018,32.4,0)" xlink:href="#am"/></g><path d="M73-263c-2-146 64-275 201-275 61 0 110 23 147 69l7-58h72v739l-84-10V-66c-37 51-87 77-149 77C138 11 73-80 73-263zm343-139c-24-37-65-67-121-68-87 0-131 69-131 207 1 116 22 204 121 204 63 0 103-40 131-81v-262" id="an"/><g id="f"><use transform="matrix(0.018,0,0,0.018,0,0)" xlink:href="#ad"/><use transform="matrix(0.018,0,0,0.018,10.799999999999999,0)" xlink:href="#X"/><use transform="matrix(0.018,0,0,0.018,21.599999999999998,0)" xlink:href="#an"/><use transform="matrix(0.018,0,0,0.018,32.4,0)" xlink:href="#al"/><use transform="matrix(0.018,0,0,0.018,43.199999999999996,0)" xlink:href="#X"/><use transform="matrix(0.018,0,0,0.018,53.99999999999999,0)" xlink:href="#ai"/><use transform="matrix(0.018,0,0,0.018,64.8,0)" xlink:href="#Z"/></g><g id="g"><use transform="matrix(0.018,0,0,0.018,0,0)" xlink:href="#ab"/><use transform="matrix(0.018,0,0,0.018,10.799999999999999,0)" xlink:href="#ac"/><use transform="matrix(0.018,0,0,0.018,21.599999999999998,0)" xlink:href="#ad"/></g><path d="M205-72h293L488 0H102v-64l292-389H125v-74h370v66" id="ao"/><g id="h"><use transform="matrix(0.018,0,0,0.018,0,0)" xlink:href="#af"/><use transform="matrix(0.018,0,0,0.018,10.799999999999999,0)" xlink:href="#al"/><use transform="matrix(0.018,0,0,0.018,21.599999999999998,0)" xlink:href="#Z"/><use transform="matrix(0.018,0,0,0.018,32.4,0)" xlink:href="#am"/><use transform="matrix(0.018,0,0,0.018,43.199999999999996,0)" xlink:href="#ac"/><use transform="matrix(0.018,0,0,0.018,53.99999999999999,0)" xlink:href="#ad"/><use transform="matrix(0.018,0,0,0.018,64.8,0)" xlink:href="#W"/><use transform="matrix(0.018,0,0,0.018,75.6,0)" xlink:href="#ao"/><use transform="matrix(0.018,0,0,0.018,86.39999999999999,0)" xlink:href="#af"/><use transform="matrix(0.018,0,0,0.018,97.19999999999999,0)" xlink:href="#Z"/><use transform="matrix(0.018,0,0,0.018,107.99999999999999,0)" xlink:href="#W"/><use transform="matrix(0.018,0,0,0.018,118.8,0)" xlink:href="#ac"/><use transform="matrix(0.018,0,0,0.018,129.6,0)" xlink:href="#Y"/></g><path d="M68-263c3-150 62-268 206-275 58 0 105 21 142 63v-274l84 10V0h-74l-8-69c-33 46-79 78-149 80C124 10 68-109 68-263zm228-207c-103 4-137 89-137 207 0 115 28 202 127 207 50 0 93-28 130-84v-262c-25-38-63-67-120-68" id="ap"/><path d="M182-261c0 121 49 197 157 200 46 0 92-15 137-46l40 55c-37 35-109 63-177 63C181 13 89-101 91-261c4-163 86-273 248-277 68 0 127 21 176 62l-41 55c-46-31-91-46-136-46-106 3-156 87-156 206" id="aq"/><g id="i"><use transform="matrix(0.018,0,0,0.018,0,0)" xlink:href="#ad"/><use transform="matrix(0.018,0,0,0.018,10.799999999999999,0)" xlink:href="#X"/><use transform="matrix(0.018,0,0,0.018,21.599999999999998,0)" xlink:href="#ap"/><use transform="matrix(0.018,0,0,0.018,32.4,0)" xlink:href="#W"/><use transform="matrix(0.018,0,0,0.018,43.199999999999996,0)" xlink:href="#ad"/><use transform="matrix(0.018,0,0,0.018,53.99999999999999,0)" xlink:href="#X"/><use transform="matrix(0.018,0,0,0.018,64.8,0)" xlink:href="#aq"/><use transform="matrix(0.018,0,0,0.018,75.6,0)" xlink:href="#Z"/></g><g id="j"><use transform="matrix(0.018,0,0,0.018,0,0)" xlink:href="#W"/><use transform="matrix(0.018,0,0,0.018,10.799999999999999,0)" xlink:href="#Y"/><use transform="matrix(0.018,0,0,0.018,21.599999999999998,0)" xlink:href="#Z"/><use transform="matrix(0.018,0,0,0.018,32.4,0)" xlink:href="#X"/><use transform="matrix(0.018,0,0,0.018,43.199999999999996,0)" xlink:href="#ad"/><use transform="matrix(0.018,0,0,0.018,53.99999999999999,0)" xlink:href="#Y"/><use transform="matrix(0.018,0,0,0.018,64.8,0)" xlink:href="#af"/><use transform="matrix(0.018,0,0,0.018,75.6,0)" xlink:href="#V"/></g><path d="M179-453c33-47 84-84 157-85 127 0 191 91 191 274 1 151-60 274-203 275-57 0-104-20-140-60v251l-84 10v-739h72zm137-17c-62 0-103 44-132 84v261c24 36 65 65 121 66 104-5 130-86 131-205-2-117-20-206-120-206" id="ar"/><g id="k"><use transform="matrix(0.018,0,0,0.018,0,0)" xlink:href="#ar"/><use transform="matrix(0.018,0,0,0.018,10.818,0)" xlink:href="#ad"/><use transform="matrix(0.018,0,0,0.018,21.618,0)" xlink:href="#ac"/><use transform="matrix(0.018,0,0,0.018,32.418,0)" xlink:href="#aq"/><use transform="matrix(0.018,0,0,0.018,43.217999999999996,0)" xlink:href="#X"/><use transform="matrix(0.018,0,0,0.018,54.017999999999994,0)" xlink:href="#ai"/><use transform="matrix(0.018,0,0,0.018,64.818,0)" xlink:href="#ai"/><use transform="matrix(0.018,0,0,0.018,75.618,0)" xlink:href="#X"/><use transform="matrix(0.018,0,0,0.018,86.41799999999999,0)" xlink:href="#ai"/></g><g id="l"><use transform="matrix(0.018,0,0,0.018,0,0)" xlink:href="#ad"/><use transform="matrix(0.018,0,0,0.018,10.799999999999999,0)" xlink:href="#X"/><use transform="matrix(0.018,0,0,0.018,21.599999999999998,0)" xlink:href="#an"/><use transform="matrix(0.018,0,0,0.018,32.4,0)" xlink:href="#al"/><use transform="matrix(0.018,0,0,0.018,43.199999999999996,0)" xlink:href="#X"/><use transform="matrix(0.018,0,0,0.018,53.99999999999999,0)" xlink:href="#ai"/><use transform="matrix(0.018,0,0,0.018,64.8,0)" xlink:href="#Z"/></g><g id="m"><use transform="matrix(0.018,0,0,0.018,0,0)" xlink:href="#af"/><use transform="matrix(0.018,0,0,0.018,10.799999999999999,0)" xlink:href="#al"/><use transform="matrix(0.018,0,0,0.018,21.599999999999998,0)" xlink:href="#Z"/><use transform="matrix(0.018,0,0,0.018,32.4,0)" xlink:href="#am"/><use transform="matrix(0.018,0,0,0.018,43.199999999999996,0)" xlink:href="#ac"/><use transform="matrix(0.018,0,0,0.018,53.99999999999999,0)" xlink:href="#ad"/><use transform="matrix(0.018,0,0,0.018,64.8,0)" xlink:href="#W"/><use transform="matrix(0.018,0,0,0.018,75.6,0)" xlink:href="#ao"/><use transform="matrix(0.018,0,0,0.018,86.39999999999999,0)" xlink:href="#af"/><use transform="matrix(0.018,0,0,0.018,97.19999999999999,0)" xlink:href="#Z"/><use transform="matrix(0.018,0,0,0.018,107.99999999999999,0)" xlink:href="#W"/><use transform="matrix(0.018,0,0,0.018,118.8,0)" xlink:href="#ac"/><use transform="matrix(0.018,0,0,0.018,129.6,0)" xlink:href="#Y"/></g><g id="n"><use transform="matrix(0.018,0,0,0.018,0,0)" xlink:href="#ar"/><use transform="matrix(0.018,0,0,0.018,10.818,0)" xlink:href="#X"/><use transform="matrix(0.018,0,0,0.018,21.618,0)" xlink:href="#ad"/><use transform="matrix(0.018,0,0,0.018,32.418,0)" xlink:href="#ae"/><use transform="matrix(0.018,0,0,0.018,43.217999999999996,0)" xlink:href="#W"/><use transform="matrix(0.018,0,0,0.018,54.017999999999994,0)" xlink:href="#ai"/><use transform="matrix(0.018,0,0,0.018,64.818,0)" xlink:href="#ai"/><use transform="matrix(0.018,0,0,0.018,75.618,0)" xlink:href="#W"/><use transform="matrix(0.018,0,0,0.018,86.41799999999999,0)" xlink:href="#ac"/><use transform="matrix(0.018,0,0,0.018,97.21799999999999,0)" xlink:href="#Y"/></g><g id="o"><use transform="matrix(0.018,0,0,0.018,0,0)" xlink:href="#ap"/><use transform="matrix(0.018,0,0,0.018,10.799999999999999,0)" xlink:href="#X"/><use transform="matrix(0.018,0,0,0.018,21.599999999999998,0)" xlink:href="#aq"/><use transform="matrix(0.018,0,0,0.018,32.4,0)" xlink:href="#W"/><use transform="matrix(0.018,0,0,0.018,43.199999999999996,0)" xlink:href="#ap"/><use transform="matrix(0.018,0,0,0.018,53.99999999999999,0)" xlink:href="#X"/></g><g id="p"><use transform="matrix(0.018,0,0,0.018,0,0)" xlink:href="#Z"/><use transform="matrix(0.018,0,0,0.018,10.799999999999999,0)" xlink:href="#ac"/></g><g id="q"><use transform="matrix(0.018,0,0,0.018,0,0)" xlink:href="#ar"/><use transform="matrix(0.018,0,0,0.018,10.818,0)" xlink:href="#ad"/><use transform="matrix(0.018,0,0,0.018,21.618,0)" xlink:href="#ac"/><use transform="matrix(0.018,0,0,0.018,32.418,0)" xlink:href="#aj"/><use transform="matrix(0.018,0,0,0.018,43.217999999999996,0)" xlink:href="#W"/><use transform="matrix(0.018,0,0,0.018,54.017999999999994,0)" xlink:href="#ap"/><use transform="matrix(0.018,0,0,0.018,64.818,0)" xlink:href="#X"/></g><g id="r"><use transform="matrix(0.018,0,0,0.018,0,0)" xlink:href="#ar"/><use transform="matrix(0.018,0,0,0.018,10.818,0)" xlink:href="#ad"/><use transform="matrix(0.018,0,0,0.018,21.618,0)" xlink:href="#W"/><use transform="matrix(0.018,0,0,0.018,32.418,0)" xlink:href="#aj"/><use transform="matrix(0.018,0,0,0.018,43.217999999999996,0)" xlink:href="#af"/><use transform="matrix(0.018,0,0,0.018,54.017999999999994,0)" xlink:href="#Z"/><use transform="matrix(0.018,0,0,0.018,64.818,0)" xlink:href="#X"/></g><g id="s"><use transform="matrix(0.018,0,0,0.018,0,0)" xlink:href="#W"/><use transform="matrix(0.018,0,0,0.018,10.799999999999999,0)" xlink:href="#Y"/><use transform="matrix(0.018,0,0,0.018,21.599999999999998,0)" xlink:href="#ab"/><use transform="matrix(0.018,0,0,0.018,32.4,0)" xlink:href="#ad"/><use transform="matrix(0.018,0,0,0.018,43.199999999999996,0)" xlink:href="#ac"/><use transform="matrix(0.018,0,0,0.018,53.99999999999999,0)" xlink:href="#ae"/><use transform="matrix(0.018,0,0,0.018,64.8,0)" xlink:href="#af"/><use transform="matrix(0.018,0,0,0.018,75.6,0)" xlink:href="#Z"/><use transform="matrix(0.018,0,0,0.018,86.39999999999999,0)" xlink:href="#W"/><use transform="matrix(0.018,0,0,0.018,97.19999999999999,0)" xlink:href="#ac"/><use transform="matrix(0.018,0,0,0.018,107.99999999999999,0)" xlink:href="#Y"/></g><path d="M190-749V0h-84v-739zm351 222L305-289 569 0H458L199-288l234-239h108" id="as"/><g id="t"><use transform="matrix(0.018,0,0,0.018,0,0)" xlink:href="#aq"/><use transform="matrix(0.018,0,0,0.018,10.799999999999999,0)" xlink:href="#am"/><use transform="matrix(0.018,0,0,0.018,21.599999999999998,0)" xlink:href="#X"/><use transform="matrix(0.018,0,0,0.018,32.4,0)" xlink:href="#aq"/><use transform="matrix(0.018,0,0,0.018,43.199999999999996,0)" xlink:href="#as"/></g><path d="M532-264c2 150-67 275-209 275-61 0-108-22-143-66l-6 55h-74v-739l84-10v291c41-53 91-80 151-80 148 2 196 117 197 274zM304-57c103-4 137-89 137-207-1-115-26-206-125-206-62 0-103 44-132 84v261c24 37 64 67 120 68" id="at"/><g id="u"><use transform="matrix(0.018,0,0,0.018,0,0)" xlink:href="#ap"/><use transform="matrix(0.018,0,0,0.018,10.799999999999999,0)" xlink:href="#af"/><use transform="matrix(0.018,0,0,0.018,21.599999999999998,0)" xlink:href="#Z"/><use transform="matrix(0.018,0,0,0.018,32.4,0)" xlink:href="#af"/><use transform="matrix(0.018,0,0,0.018,43.199999999999996,0)" xlink:href="#at"/><use transform="matrix(0.018,0,0,0.018,53.99999999999999,0)" xlink:href="#af"/><use transform="matrix(0.018,0,0,0.018,64.8,0)" xlink:href="#ai"/><use transform="matrix(0.018,0,0,0.018,75.6,0)" xlink:href="#X"/></g><g id="v"><use transform="matrix(0.018,0,0,0.018,0,0)" xlink:href="#ai"/><use transform="matrix(0.018,0,0,0.018,10.799999999999999,0)" xlink:href="#X"/><use transform="matrix(0.018,0,0,0.018,21.599999999999998,0)" xlink:href="#Y"/><use transform="matrix(0.018,0,0,0.018,32.4,0)" xlink:href="#ap"/></g><g id="w"><use transform="matrix(0.018,0,0,0.018,0,0)" xlink:href="#al"/><use transform="matrix(0.018,0,0,0.018,10.799999999999999,0)" xlink:href="#ai"/><use transform="matrix(0.018,0,0,0.018,21.599999999999998,0)" xlink:href="#X"/><use transform="matrix(0.018,0,0,0.018,32.4,0)" xlink:href="#ad"/></g><g id="x"><use transform="matrix(0.018,0,0,0.018,0,0)" xlink:href="#ap"/><use transform="matrix(0.018,0,0,0.018,10.799999999999999,0)" xlink:href="#af"/><use transform="matrix(0.018,0,0,0.018,21.599999999999998,0)" xlink:href="#Z"/><use transform="matrix(0.018,0,0,0.018,32.4,0)" xlink:href="#af"/></g><g id="y"><use transform="matrix(0.018,0,0,0.018,0,0)" xlink:href="#aq"/><use transform="matrix(0.018,0,0,0.018,10.799999999999999,0)" xlink:href="#ad"/><use transform="matrix(0.018,0,0,0.018,21.599999999999998,0)" xlink:href="#X"/><use transform="matrix(0.018,0,0,0.018,32.4,0)" xlink:href="#af"/><use transform="matrix(0.018,0,0,0.018,43.199999999999996,0)" xlink:href="#Z"/><use transform="matrix(0.018,0,0,0.018,53.99999999999999,0)" xlink:href="#X"/></g><path d="M491 0H372l-69-386L229 0H113L18-527h85l68 475 84-408h99l79 408 68-475h81" id="au"/><g id="z"><use transform="matrix(0.018,0,0,0.018,0,0)" xlink:href="#Y"/><use transform="matrix(0.018,0,0,0.018,10.799999999999999,0)" xlink:href="#X"/><use transform="matrix(0.018,0,0,0.018,21.599999999999998,0)" xlink:href="#au"/></g><g id="A"><use transform="matrix(0.018,0,0,0.018,0,0)" xlink:href="#W"/><use transform="matrix(0.018,0,0,0.018,10.799999999999999,0)" xlink:href="#Y"/></g><g id="B"><use transform="matrix(0.018,0,0,0.018,0,0)" xlink:href="#Z"/><use transform="matrix(0.018,0,0,0.018,10.799999999999999,0)" xlink:href="#am"/><use transform="matrix(0.018,0,0,0.018,21.599999999999998,0)" xlink:href="#X"/></g><g id="C"><use transform="matrix(0.018,0,0,0.018,0,0)" xlink:href="#W"/><use transform="matrix(0.018,0,0,0.018,10.799999999999999,0)" xlink:href="#ab"/></g><g id="D"><use transform="matrix(0.018,0,0,0.018,0,0)" xlink:href="#Y"/><use transform="matrix(0.018,0,0,0.018,10.799999999999999,0)" xlink:href="#X"/><use transform="matrix(0.018,0,0,0.018,21.599999999999998,0)" xlink:href="#X"/><use transform="matrix(0.018,0,0,0.018,32.4,0)" xlink:href="#ap"/></g><g id="E"><use transform="matrix(0.018,0,0,0.018,0,0)" xlink:href="#Z"/><use transform="matrix(0.018,0,0,0.018,10.799999999999999,0)" xlink:href="#ac"/></g><g id="F"><use transform="matrix(0.018,0,0,0.018,0,0)" xlink:href="#al"/><use transform="matrix(0.018,0,0,0.018,10.799999999999999,0)" xlink:href="#ar"/><use transform="matrix(0.018,0,0,0.018,21.618,0)" xlink:href="#ap"/><use transform="matrix(0.018,0,0,0.018,32.418,0)" xlink:href="#af"/><use transform="matrix(0.018,0,0,0.018,43.217999999999996,0)" xlink:href="#Z"/><use transform="matrix(0.018,0,0,0.018,54.017999999999994,0)" xlink:href="#X"/></g><g id="G"><use transform="matrix(0.018,0,0,0.018,0,0)" xlink:href="#af"/><use transform="matrix(0.018,0,0,0.018,10.799999999999999,0)" xlink:href="#Y"/><use transform="matrix(0.018,0,0,0.018,21.599999999999998,0)" xlink:href="#ap"/></g><g id="H"><use transform="matrix(0.018,0,0,0.018,0,0)" xlink:href="#ai"/><use transform="matrix(0.018,0,0,0.018,10.799999999999999,0)" xlink:href="#X"/><use transform="matrix(0.018,0,0,0.018,21.599999999999998,0)" xlink:href="#Y"/><use transform="matrix(0.018,0,0,0.018,32.4,0)" xlink:href="#ap"/></g><use transform="matrix(0.018,0,0,0.018,0,0)" xlink:href="#af" id="I"/><g id="J"><use transform="matrix(0.018,0,0,0.018,0,0)" xlink:href="#Z"/><use transform="matrix(0.018,0,0,0.018,10.799999999999999,0)" xlink:href="#ac"/><use transform="matrix(0.018,0,0,0.018,21.599999999999998,0)" xlink:href="#as"/><use transform="matrix(0.018,0,0,0.018,32.4,0)" xlink:href="#X"/><use transform="matrix(0.018,0,0,0.018,43.199999999999996,0)" xlink:href="#Y"/></g><g id="K"><use transform="matrix(0.018,0,0,0.018,0,0)" xlink:href="#ai"/><use transform="matrix(0.018,0,0,0.018,10.799999999999999,0)" xlink:href="#af"/><use transform="matrix(0.018,0,0,0.018,21.599999999999998,0)" xlink:href="#aj"/><use transform="matrix(0.018,0,0,0.018,32.4,0)" xlink:href="#X"/></g><g id="L"><use transform="matrix(0.018,0,0,0.018,0,0)" xlink:href="#ab"/><use transform="matrix(0.018,0,0,0.018,10.799999999999999,0)" xlink:href="#W"/><use transform="matrix(0.018,0,0,0.018,21.599999999999998,0)" xlink:href="#ad"/><use transform="matrix(0.018,0,0,0.018,32.4,0)" xlink:href="#ai"/><use transform="matrix(0.018,0,0,0.018,43.199999999999996,0)" xlink:href="#Z"/></g><g id="M"><use transform="matrix(0.018,0,0,0.018,0,0)" xlink:href="#ad"/><use transform="matrix(0.018,0,0,0.018,10.799999999999999,0)" xlink:href="#X"/><use transform="matrix(0.018,0,0,0.018,21.599999999999998,0)" xlink:href="#an"/><use transform="matrix(0.018,0,0,0.018,32.4,0)" xlink:href="#al"/><use transform="matrix(0.018,0,0,0.018,43.199999999999996,0)" xlink:href="#X"/><use transform="matrix(0.018,0,0,0.018,53.99999999999999,0)" xlink:href="#ai"/><use transform="matrix(0.018,0,0,0.018,64.8,0)" xlink:href="#Z"/></g><g id="N"><use transform="matrix(0.018,0,0,0.018,0,0)" xlink:href="#af"/><use transform="matrix(0.018,0,0,0.018,10.799999999999999,0)" xlink:href="#V"/><use transform="matrix(0.018,0,0,0.018,21.599999999999998,0)" xlink:href="#ad"/><use transform="matrix(0.018,0,0,0.018,32.4,0)" xlink:href="#X"/><use transform="matrix(0.018,0,0,0.018,43.199999999999996,0)" xlink:href="#af"/><use transform="matrix(0.018,0,0,0.018,53.99999999999999,0)" xlink:href="#ap"/><use transform="matrix(0.018,0,0,0.018,64.8,0)" xlink:href="#ah"/></g><g id="O"><use transform="matrix(0.018,0,0,0.018,0,0)" xlink:href="#af"/><use transform="matrix(0.018,0,0,0.018,10.799999999999999,0)" xlink:href="#V"/><use transform="matrix(0.018,0,0,0.018,21.599999999999998,0)" xlink:href="#V"/><use transform="matrix(0.018,0,0,0.018,32.4,0)" xlink:href="#ac"/><use transform="matrix(0.018,0,0,0.018,43.199999999999996,0)" xlink:href="#au"/><use transform="matrix(0.018,0,0,0.018,53.99999999999999,0)" xlink:href="#X"/><use transform="matrix(0.018,0,0,0.018,64.8,0)" xlink:href="#ap"/></g><g id="P"><use transform="matrix(0.018,0,0,0.018,0,0)" xlink:href="#af"/><use transform="matrix(0.018,0,0,0.018,10.799999999999999,0)" xlink:href="#aq"/><use transform="matrix(0.018,0,0,0.018,21.599999999999998,0)" xlink:href="#aq"/><use transform="matrix(0.018,0,0,0.018,32.4,0)" xlink:href="#X"/><use transform="matrix(0.018,0,0,0.018,43.199999999999996,0)" xlink:href="#ar"/><use transform="matrix(0.018,0,0,0.018,54.017999999999994,0)" xlink:href="#Z"/></g><g id="Q"><use transform="matrix(0.018,0,0,0.018,0,0)" xlink:href="#Y"/><use transform="matrix(0.018,0,0,0.018,10.799999999999999,0)" xlink:href="#X"/><use transform="matrix(0.018,0,0,0.018,21.599999999999998,0)" xlink:href="#au"/></g><g id="R"><use transform="matrix(0.018,0,0,0.018,0,0)" xlink:href="#al"/><use transform="matrix(0.018,0,0,0.018,10.799999999999999,0)" xlink:href="#ai"/><use transform="matrix(0.018,0,0,0.018,21.599999999999998,0)" xlink:href="#X"/><use transform="matrix(0.018,0,0,0.018,32.4,0)" xlink:href="#ad"/></g><path d="M289-538c121 0 157-10 240-44l25 79c-47 15-88 14-154 15 61 28 92 72 92 133 6 138-137 209-277 168-14 10-27 29-27 51-5 60 105 43 165 45 100 2 186 48 186 143 0 120-114 161-251 160-145-2-217-30-222-159h76c0 82 60 90 146 91 92-1 166-13 166-87 0-85-119-77-212-75-76 1-131-34-133-100 2-42 28-73 58-92-55-28-88-69-88-145 0-118 88-180 210-183zm-1 62c-79-1-123 45-123 121s45 125 125 123c76 0 115-47 115-124 0-80-39-120-117-120" id="av"/><g id="S"><use transform="matrix(0.018,0,0,0.018,0,0)" xlink:href="#ad"/><use transform="matrix(0.018,0,0,0.018,10.799999999999999,0)" xlink:href="#X"/><use transform="matrix(0.018,0,0,0.018,21.599999999999998,0)" xlink:href="#av"/><use transform="matrix(0.018,0,0,0.018,32.4,0)" xlink:href="#W"/><use transform="matrix(0.018,0,0,0.018,43.199999999999996,0)" xlink:href="#ai"/><use transform="matrix(0.018,0,0,0.018,53.99999999999999,0)" xlink:href="#Z"/><use transform="matrix(0.018,0,0,0.018,64.8,0)" xlink:href="#X"/><use transform="matrix(0.018,0,0,0.018,75.6,0)" xlink:href="#ad"/><use transform="matrix(0.018,0,0,0.018,86.39999999999999,0)" xlink:href="#X"/><use transform="matrix(0.018,0,0,0.018,97.19999999999999,0)" xlink:href="#ap"/></g><g id="T"><use transform="matrix(0.018,0,0,0.018,0,0)" xlink:href="#ap"/><use transform="matrix(0.018,0,0,0.018,10.799999999999999,0)" xlink:href="#X"/><use transform="matrix(0.018,0,0,0.018,21.599999999999998,0)" xlink:href="#aq"/><use transform="matrix(0.018,0,0,0.018,32.4,0)" xlink:href="#V"/><use transform="matrix(0.018,0,0,0.018,43.199999999999996,0)" xlink:href="#W"/><use transform="matrix(0.018,0,0,0.018,53.99999999999999,0)" xlink:href="#Y"/><use transform="matrix(0.018,0,0,0.018,64.8,0)" xlink:href="#X"/></g></defs></g></svg>