<svg xmlns="http://www.w3.org/2000/svg" xmlns:xlink="http://www.w3.org/1999/xlink" xmlns:lucid="lucid" width="978.86" height="1281.9"><g transform="translate(0 0)" lucid:page-tab-id="0_0"><path d="M0 0h978.86v1281.9H0z" fill="#fff"/><path d="M236.03 107.36v1141.78" fill="none"/><path d="M236.03 107.36v5m0 5.02v10m0 5.02v10.02m0 5v10.02m0 5v10.02m0 5v10.03m0 5v10m0 5.02v10m0 5.02v10.02m0 5v10.02m0 5v10.02m0 5v10.03m0 5v10.02m0 5v10.02m0 5v10.03m0 5v10.02m0 5v10.02m0 5v10.03m0 5v10.02m0 5v10m0 5.02v10.02m0 5v10.02m0 5v10.02m0 5v10.03m0 5.02v10m0 5.02v10m0 5.02v10.02m0 5V518m0 5v10.03m0 5v10.02m0 5v10.02m0 5v10.03m0 5v10.02m0 5v10.02m0 5v10.03m0 5v10.02m0 5v10m0 5.02v10.02m0 5v10.02m0 5v10.02m0 5v10.03m0 5v10.03m0 5v10.02m0 5v10.03m0 5v10.02m0 5v10.02m0 5v10.03m0 5v10.02m0 5v10.02m0 5v10.02m0 5v10.02m0 5v10.02m0 5v10.03m0 5v10m0 5.02v10m0 5.02v10.02m0 5v10.02m0 5v10.03m0 5v10.03m0 5v10.02m0 5v10.03m0 5v10.02m0 5v10.02m0 5v10.03m0 5v10.02m0 5v10.02m0 5v10.02m0 5v10.02m0 5v10.02m0 5V1149m0 5v10m0 5.02v10m0 5.02v10.02m0 5v10.02m0 5v10.02m0 5v10.03m0 5v5M236.03 1249.13v.5" stroke="#999" fill="none"/><path d="M250.5 50.22c0 8-6.48 14.46-14.47 14.46-7.98 0-14.46-6.47-14.46-14.46 0-7.98 6.48-14.46 14.46-14.46 8 0 14.46 6.48 14.46 14.46z" stroke="#000" stroke-width="2" fill="#834187"/><path d="M202.3 43.76c0-4.4 3.6-8 8-8h51.45c4.42 0 8 3.6 8 8v99.67c0 4.42-3.58 8-8 8H210.3c-4.4 0-8-3.58-8-8z" fill="none"/><path d="M236.03 64.68v32.48c0 4.42 2.1 10.9 4.7 14.47l29.02 39.8m-33.72-46.27l-33.72 46.27m0-72.3h67.45" stroke="#000" stroke-width="2" fill="none"/><use xlink:href="#a" transform="matrix(1,0,0,1,122.3131567014234,151.43034304527555) translate(72 16.211111111111112)"/><path d="M857.43 50.22c0 8-6.47 14.46-14.46 14.46-7.98 0-14.46-6.47-14.46-14.46 0-7.98 6.5-14.46 14.47-14.46 8 0 14.46 6.48 14.46 14.46z" stroke="#000" stroke-width="2" fill="#834187"/><path d="M809.25 43.76c0-4.4 3.58-8 8-8h51.44c4.4 0 8 3.6 8 8v99.67c0 4.42-3.6 8-8 8h-51.45c-4.42 0-8-3.58-8-8z" fill="none"/><path d="M842.97 64.68v32.48c0 4.42 2.1 10.9 4.7 14.47l29.02 39.8m-33.73-46.27l-33.72 46.27m0-72.3h67.44" stroke="#000" stroke-width="2" fill="none"/><use xlink:href="#b" transform="matrix(1,0,0,1,729.2526268056936,151.43034304527555) translate(76.66666666666666 16.211111111111112)"/><path d="M842.97 107.36v1141.78" fill="none"/><path d="M842.97 107.36v5m0 5.02v10m0 5.02v10.02m0 5v10.02m0 5v10.02m0 5v10.03m0 5v10m0 5.02v10m0 5.02v10.02m0 5v10.02m0 5v10.02m0 5v10.03m0 5v10.02m0 5v10.02m0 5v10.03m0 5v10.02m0 5v10.02m0 5v10.03m0 5v10.02m0 5v10m0 5.02v10.02m0 5v10.02m0 5v10.02m0 5v10.03m0 5.02v10m0 5.02v10m0 5.02v10.02m0 5V518m0 5v10.03m0 5v10.02m0 5v10.02m0 5v10.03m0 5v10.02m0 5v10.02m0 5v10.03m0 5v10.02m0 5v10m0 5.02v10.02m0 5v10.02m0 5v10.02m0 5v10.03m0 5v10.03m0 5v10.02m0 5v10.03m0 5v10.02m0 5v10.02m0 5v10.03m0 5v10.02m0 5v10.02m0 5v10.02m0 5v10.02m0 5v10.02m0 5v10.03m0 5v10m0 5.02v10m0 5.02v10.02m0 5v10.02m0 5v10.03m0 5v10.03m0 5v10.02m0 5v10.03m0 5v10.02m0 5v10.02m0 5v10.03m0 5v10.02m0 5v10.02m0 5v10.02m0 5v10.02m0 5v10.02m0 5V1149m0 5v10m0 5.02v10m0 5.02v10.02m0 5v10.02m0 5v10.02m0 5v10.03m0 5v5M842.97 1249.13v.5" stroke="#999" fill="none"/><path d="M472.06 212.36c0-4.42 3.6-8 8-8h118.88c4.42 0 8 3.58 8 8v51.44c0 4.42-3.58 8-8 8H480.06c-4.4 0-8-3.58-8-8z" stroke="#000" stroke-opacity="0" stroke-width="2" fill="#834187"/><use xlink:href="#c" transform="matrix(1,0,0,1,472.064032303324,204.3590883581296) translate(24.305 40.205)"/><path d="M216.03 212.36c0-4.42 3.58-8 8-8h24c4.42 0 8 3.58 8 8v51.44c0 4.42-3.58 8-8 8h-24c-4.42 0-8-3.58-8-8z" stroke="#000" stroke-opacity="0" stroke-width="2" fill="#d2d3d5"/><path d="M257.03 238.08h213.22" stroke="#000" stroke-width="2" fill="none"/><path d="M257.06 239.08h-1.03v-2h1.03z"/><path d="M452.88 248.26l17.22-10.18-17.22-10.18" stroke="#000" stroke-width="2" fill="none"/><use xlink:href="#d" transform="matrix(1,0,0,1,317.3813575608256,215.41128114049195) translate(0.005000000000002558 14.544444444444446)"/><path d="M539.5 272.3v943.75" fill="none"/><path d="M539.5 272.3v5m0 4.98v10m0 4.98v10m0 4.98v10m0 4.98v10m0 4.98v10m0 4.98v10m0 4.98v10m0 4.98v10m0 5v9.97m0 5v10m0 5v9.97m0 5v9.98m0 5v9.98m0 5V487m0 5v10m0 5v9.97m0 5v9.98m0 5v9.98m0 5v9.98m0 5v10m0 5v9.97m0 5v9.98m0 5v9.98m0 5v9.98m0 5v10m0 5v9.98m0 5v9.98m0 5v9.98m0 5v9.98m0 5v9.98m0 5v9.98m0 5v9.98m0 5v9.98m0 5v9.98m0 5v9.98m0 5v9.98m0 5v9.98m0 5v9.98m0 5v9.98m0 5v9.98m0 5v9.98m0 5v9.98m0 5v9.98m0 5v9.98m0 5v9.98m0 5v9.98m0 5v9.98m0 5v9.98m0 5v9.98m0 5v9.98m0 5v9.98m0 5v9.98m0 5v9.98m0 5v9.98m0 5v9.98m0 5v9.98m0 5v9.98m0 5v9.98m0 5v9.98m0 5v9.98m0 5v9.98m0 5v9.98m0 5v5" stroke="#999" fill="none"/><path d="M540 272.3h-1v-.5h1z" fill="#999"/><path d="M539.5 1216.04v3.5" stroke="#999" fill="none"/><path d="M519.5 347.23c0-4.4 3.58-8 8-8h24c4.42 0 8 3.6 8 8v51.44c0 4.42-3.58 8-8 8h-24c-4.42 0-8-3.58-8-8zM822.97 347.23c0-4.4 3.58-8 8-8h24c4.42 0 8 3.6 8 8v51.44c0 4.42-3.58 8-8 8h-24c-4.42 0-8-3.58-8-8z" stroke="#000" stroke-opacity="0" stroke-width="2" fill="#d2d3d5"/><path d="M560.5 372.7h260.65" stroke="#000" stroke-width="2" fill="none"/><path d="M560.53 373.7h-1.03v-2h1.03z"/><path d="M803.8 382.9l17.2-10.2-17.2-10.17" stroke="#000" stroke-width="2" fill="none"/><use xlink:href="#e" transform="matrix(1,0,0,1,663.2366187298646,350.0412448327903) translate(0.004999999999999005 14.544444444444446)"/><path d="M827.53 577.6H578M827.5 577.6h1.03" stroke="#000" stroke-width="2" fill="none"/><path d="M562.74 577.6l14.26-4.64v9.27z" stroke="#000" stroke-width="2"/><use xlink:href="#f" transform="matrix(1,0,0,1,628.6819535785959,554.9319357505198) translate(0.0049999999999954525 14.544444444444446)"/><use xlink:href="#g" transform="matrix(1,0,0,1,628.6819535785959,554.9319357505198) translate(65.33833333333334 14.544444444444446)"/><path d="M258.64 519.28c0-4.42 3.58-8 8-8h214.28c4.42 0 8 3.58 8 8v4.93c0 3.9-2.24 9.32-5 12.08s-8.16 5-12.07 5h-205.2c-4.43 0-8-3.58-8-8z" fill="#834187"/><path d="M258.64 519.28c0-4.42 3.58-8 8-8H902.4c4.43 0 8 3.58 8 8v182.86c0 4.42-3.57 8-8 8H266.65c-4.42 0-8-3.58-8-8z" stroke="#000" stroke-width="2" fill="none"/><path d="M488.92 511.28v20l-10 10H258.64" stroke="#000" stroke-width="2" fill="#834187"/><use xlink:href="#h" transform="matrix(1,0,0,1,266.63620287364756,511.2772670964646) translate(27.166666666666657 20.211111111111112)"/><use xlink:href="#i" transform="matrix(1,0,0,1,266.63620287364756,511.2772670964646) translate(120.49999999999999 20.211111111111112)"/><use xlink:href="#j" transform="matrix(1,0,0,1,270.63620287364756,549.2772670964646) translate(15.833333333333343 20.211111111111112)"/><use xlink:href="#k" transform="matrix(1,0,0,1,270.63620287364756,549.2772670964646) translate(118.5 20.211111111111112)"/><path d="M519.5 552.34c0-4.42 3.58-8 8-8h24c4.42 0 8 3.58 8 8v119.53c0 4.42-3.58 8-8 8h-24c-4.42 0-8-3.58-8-8zM828.53 553c0-4.42 3.58-8 8-8h24c4.42 0 8 3.58 8 8v118.87c0 4.42-3.58 8-8 8h-24c-4.42 0-8-3.58-8-8z" stroke="#000" stroke-opacity="0" stroke-width="2" fill="#d2d3d5"/><path d="M560.5 645.35h266.2" fill="none"/><path d="M560.5 645.35h9.86m9.86 0h19.72m9.86 0h19.72m9.86 0h19.72m9.86 0h19.72m9.86 0h19.72m9.85 0h19.73m9.86 0h19.7m9.87 0H807m9.85 0h9.86" stroke="#000" stroke-width="2" fill="none"/><path d="M560.53 646.35h-1.03v-2h1.03z"/><path d="M809.35 655.53l17.2-10.18-17.2-10.18" stroke="#000" stroke-width="2" fill="none"/><use xlink:href="#l" transform="matrix(1,0,0,1,656.6819535785959,622.683282227904) translate(0.005000000000002558 14.544444444444446)"/><path d="M33.72 482.1c0-4.4 3.58-8 8-8H160.6c4.4 0 8 3.6 8 8v4.94c0 3.9-2.24 9.3-5 12.07-2.77 2.77-8.17 5-12.08 5H41.72c-4.42 0-8-3.57-8-8z" fill="#834187"/><path d="M33.72 482.1c0-4.4 3.58-8 8-8h894.4c4.43 0 8 3.6 8 8v489.8c0 4.4-3.57 8-8 8H41.73c-4.42 0-8-3.6-8-8z" stroke="#000" stroke-width="2" fill="none"/><path d="M168.6 474.1v20l-10 10H33.7" stroke="#000" stroke-width="2" fill="#834187"/><use xlink:href="#m" transform="matrix(1,0,0,1,41.71885945023723,474.10996395036113) translate(16.5 20.211111111111112)"/><use xlink:href="#n" transform="matrix(1,0,0,1,45.71885945023723,512.1099639503611) translate(8.166666666666671 20.211111111111112)"/><use xlink:href="#k" transform="matrix(1,0,0,1,45.71885945023723,512.1099639503611) translate(92.16666666666667 20.211111111111112)"/><path d="M519.5 751.86c0-4.42 3.58-8 8-8h24c4.42 0 8 3.58 8 8v186.3c0 4.43-3.58 8-8 8h-24c-4.42 0-8-3.57-8-8zM824.64 751.86c0-4.42 3.58-8 8-8h24c4.4 0 8 3.58 8 8v186.3c0 4.43-3.6 8-8 8h-24c-4.42 0-8-3.57-8-8zM216.03 785.58c0-4.42 3.58-8 8-8h24c4.42 0 8 3.58 8 8v118.88c0 4.4-3.58 8-8 8h-24c-4.42 0-8-3.6-8-8z" stroke="#000" stroke-opacity="0" stroke-width="2" fill="#d2d3d5"/><path d="M823.64 774.74H561.32" stroke="#000" stroke-width="2" fill="none"/><path d="M824.64 775.74h-1.03v-2h1.04z"/><path d="M578.68 764.56l-17.2 10.18 17.2 10.18" stroke="#000" stroke-width="2" fill="none"/><use xlink:href="#o" transform="matrix(1,0,0,1,617.4018501813297,752.0749349330391) translate(0.0049999999999954525 14.544444444444446)"/><use xlink:href="#p" transform="matrix(1,0,0,1,617.4018501813297,752.0749349330391) translate(65.33833333333334 14.544444444444446)"/><path d="M518.5 808.5H257.85" stroke="#000" stroke-width="2" fill="none"/><path d="M519.5 809.5h-1.02v-2h1.02z"/><path d="M275.2 798.3L258 808.5l17.2 10.17" stroke="#000" stroke-width="2" fill="none"/><use xlink:href="#q" transform="matrix(1,0,0,1,327.1002170110365,785.8208785857177) translate(0.005000000000002558 14.544444444444446)"/><use xlink:href="#r" transform="matrix(1,0,0,1,327.1002170110365,785.8208785857177) translate(56.00500000000001 14.544444444444446)"/><path d="M257.03 875.98h260.64" fill="none"/><path d="M257.03 875.98h10.9m10.9 0h21.78m10.9 0h21.8m10.9 0h21.78m10.9 0H398.57m10.84 0h21.65m10.83 0h21.65m10.83 0h21.65m10.83 0h10.82" stroke="#000" stroke-width="2" fill="none"/><path d="M257.06 876.98h-1.03v-2h1.03z"/><path d="M500.32 886.16l17.22-10.18-17.22-10.18" stroke="#000" stroke-width="2" fill="none"/><use xlink:href="#s" transform="matrix(1,0,0,1,364.43355034436985,853.312765890667) translate(0.004999999999999005 14.544444444444446)"/><path d="M560.5 912.54h262.32" fill="none"/><path d="M560.5 912.54h9.72m9.7 0h19.44m9.72 0h19.43m9.72 0h19.44m9.7 0h19.44m9.72 0h19.43m9.7 0h19.44m9.7 0h19.44m9.72 0h19.43m9.7 0h9.72" stroke="#000" stroke-width="2" fill="none"/><path d="M560.53 913.54h-1.03v-2h1.03z"/><path d="M805.46 922.72l17.2-10.18-17.2-10.18" stroke="#000" stroke-width="2" fill="none"/><use xlink:href="#e" transform="matrix(1,0,0,1,664.0685168479963,889.8708715148094) translate(0.004999999999999005 14.544444444444446)"/><path d="M218.64 1021.6c0-4.4 3.58-8 8-8h24c4.4 0 8 3.6 8 8v118.9c0 4.4-3.6 8-8 8h-24c-4.42 0-8-3.6-8-8zM519.5 1021.6c0-4.4 3.58-8 8-8h24c4.42 0 8 3.6 8 8v118.9c0 4.4-3.58 8-8 8h-24c-4.42 0-8-3.6-8-8z" stroke="#000" stroke-opacity="0" stroke-width="2" fill="#d2d3d5"/><path d="M259.64 1046.7h258.04" stroke="#000" stroke-width="2" fill="none"/><path d="M259.66 1047.7h-1.02v-2h1.02z"/><path d="M500.32 1056.88l17.22-10.18-17.22-10.18" stroke="#000" stroke-width="2" fill="none"/><use xlink:href="#t" transform="matrix(1,0,0,1,319.06897703870936,1024.0328417703317) translate(0.0049999999999954525 14.544444444444446)"/><use xlink:href="#r" transform="matrix(1,0,0,1,319.06897703870936,1024.0328417703317) translate(74.67166666666667 14.544444444444446)"/><path d="M518.5 1115.1H260.45" fill="none"/><path d="M518.5 1115.1h-9.56m-9.55 0h-19.13m-9.55 0H451.6m-9.56 0h-19.1m-9.57 0h-19.1m-9.57 0h-19.12m-9.55 0H336.9m-9.54 0h-19.12m-9.56 0h-19.1m-9.57 0h-9.55" stroke="#000" stroke-width="2" fill="none"/><path d="M519.5 1116.1h-1.02v-2h1.02z"/><path d="M277.82 1104.93l-17.22 10.18 17.22 10.2" stroke="#000" stroke-width="2" fill="none"/><g><use xlink:href="#l" transform="matrix(1,0,0,1,351.735643705376,1092.4394181963037) translate(0.005000000000002558 14.544444444444446)"/></g><path d="M499.5 1190.2c0-4.4 3.58-8 8-8h64c4.42 0 8 3.6 8 8v64c0 4.42-3.58 8-8 8h-64c-4.42 0-8-3.58-8-8z" fill="none"/><path d="M507.5 1190.2l64 64m0-64l-64 64" stroke="#000" stroke-width="8" fill="none"/><defs><path d="M497-689v70H344v550h153V0H103v-69h153v-550H103v-70h394" id="u"/><path d="M152-605c17 176 11 407 12 605H83v-689h118L448-81c-18-203-11-395-12-608h81V0H395" id="v"/><path d="M342-614V0h-87v-614H40v-75h519l-9 75H342" id="w"/><path d="M434-176H161L106 0H20l225-689h110L579 0h-90zm-250-72h227L298-615" id="x"/><path d="M553-344c1 192-75 355-253 355C119 11 46-148 47-343c3-194 67-357 253-357 179 0 255 163 253 356zm-90 0c0-158-26-283-163-283-136 0-163 126-163 284 0 157 28 281 163 281 136 0 163-124 163-282" id="y"/><path d="M537-495c0 108-77 167-168 190L574 0H470L281-295h-93V0h-86v-689h176c154 0 256 52 259 194zm-92 0c0-133-124-127-257-124v256c136 6 257 3 257-132" id="z"/><g id="a"><use transform="matrix(0.015555555555555557,0,0,0.015555555555555557,0,0)" xlink:href="#u"/><use transform="matrix(0.015555555555555557,0,0,0.015555555555555557,9.333333333333334,0)" xlink:href="#v"/><use transform="matrix(0.015555555555555557,0,0,0.015555555555555557,18.666666666666668,0)" xlink:href="#u"/><use transform="matrix(0.015555555555555557,0,0,0.015555555555555557,28,0)" xlink:href="#w"/><use transform="matrix(0.015555555555555557,0,0,0.015555555555555557,37.333333333333336,0)" xlink:href="#u"/><use transform="matrix(0.015555555555555557,0,0,0.015555555555555557,46.66666666666667,0)" xlink:href="#x"/><use transform="matrix(0.015555555555555557,0,0,0.015555555555555557,56.00000000000001,0)" xlink:href="#w"/><use transform="matrix(0.015555555555555557,0,0,0.015555555555555557,65.33333333333334,0)" xlink:href="#y"/><use transform="matrix(0.015555555555555557,0,0,0.015555555555555557,74.66666666666667,0)" xlink:href="#z"/></g><path d="M212-617v232h256v71H212v244h314V0H126v-689h391l-10 72H212" id="A"/><path d="M49-689h100l151 265 152-265h93L350-372 569 0H469L298-311 124 0H31l216-367" id="B"/><path d="M63-345c-4-243 159-405 405-339 31 11 61 28 90 51l-49 57c-41-34-89-51-145-51-146 6-210 112-210 282S215-69 363-63c75 0 116-23 160-57l45 56c-51 50-120 75-206 75C163 3 67-136 63-345" id="C"/><path d="M299-64c95-1 142-57 141-156v-469h88v466C524-80 443 11 299 11S72-79 72-223v-466h87v469c-1 99 45 155 140 156" id="D"/><g id="b"><use transform="matrix(0.015555555555555557,0,0,0.015555555555555557,0,0)" xlink:href="#A"/><use transform="matrix(0.015555555555555557,0,0,0.015555555555555557,9.333333333333334,0)" xlink:href="#B"/><use transform="matrix(0.015555555555555557,0,0,0.015555555555555557,18.666666666666668,0)" xlink:href="#A"/><use transform="matrix(0.015555555555555557,0,0,0.015555555555555557,28,0)" xlink:href="#C"/><use transform="matrix(0.015555555555555557,0,0,0.015555555555555557,37.333333333333336,0)" xlink:href="#D"/><use transform="matrix(0.015555555555555557,0,0,0.015555555555555557,46.66666666666667,0)" xlink:href="#w"/><use transform="matrix(0.015555555555555557,0,0,0.015555555555555557,56.00000000000001,0)" xlink:href="#y"/><use transform="matrix(0.015555555555555557,0,0,0.015555555555555557,65.33333333333334,0)" xlink:href="#z"/></g><path fill="#fff" d="M219-431c-1-43 36-82 80-80 45-2 82 37 81 80 1 44-36 84-81 82-44 1-81-38-80-82zm0 361c-1-43 36-83 80-81 45-1 82 37 81 81 1 46-36 82-81 81-45 1-81-36-80-81" id="E"/><path fill="#fff" d="M557-477c3 190-153 233-355 221V0h-86v-689h175c157 0 265 61 266 212zm-93 1c0-139-119-152-262-144v295c147 7 262-3 262-151" id="F"/><path fill="#fff" d="M267-402c40-99 128-162 263-125l-12 179h-68v-113c-87-2-142 56-178 174v222h107V0H105v-65h83v-397h-83v-65h146" id="G"/><path fill="#fff" d="M301-538c152-1 227 116 226 274 2 155-77 276-227 275C148 12 71-105 73-263c-2-156 77-276 228-275zm0 69c-107 0-137 85-137 206 1 121 29 205 136 205s135-84 136-206c-1-120-29-205-135-205" id="H"/><path fill="#fff" d="M367-773c35-1 62 25 61 59 1 34-26 60-61 59-35 1-62-25-61-59-1-34 26-60 61-59zM96 147c146-28 265-71 265-226v-381H142v-67h303v443c-7 199-144 261-335 296" id="I"/><path fill="#fff" d="M167-234c1 104 57 173 153 175 63-1 97-20 141-47l39 56c-43 34-108 60-180 61C164 13 77-104 79-263c3-156 76-272 229-275 155-3 231 134 213 304H167zm274-64c0-99-41-171-132-171-93 0-138 73-142 171h274" id="J"/><path fill="#fff" d="M182-261c0 121 49 197 157 200 46 0 92-15 137-46l40 55c-37 35-109 63-177 63C181 13 89-101 91-261c4-163 86-273 248-277 68 0 127 21 176 62l-41 55c-46-31-91-46-136-46-106 3-156 87-156 206" id="K"/><path fill="#fff" d="M519-27c-32 22-89 38-142 38-104 2-177-59-177-158v-314H79v-66h121v-119l84-10v129h183l-11 66H284v313C274-41 417-45 486-84" id="L"/><g id="c"><use transform="matrix(0.018,0,0,0.018,0,0)" xlink:href="#E"/><use transform="matrix(0.018,0,0,0.018,10.799999999999999,0)" xlink:href="#F"/><use transform="matrix(0.018,0,0,0.018,21.599999999999998,0)" xlink:href="#G"/><use transform="matrix(0.018,0,0,0.018,32.4,0)" xlink:href="#H"/><use transform="matrix(0.018,0,0,0.018,43.199999999999996,0)" xlink:href="#I"/><use transform="matrix(0.018,0,0,0.018,53.99999999999999,0)" xlink:href="#J"/><use transform="matrix(0.018,0,0,0.018,64.8,0)" xlink:href="#K"/><use transform="matrix(0.018,0,0,0.018,75.6,0)" xlink:href="#L"/><path fill="#fff" d="M-.9 1.8h88.2v.9H-.9z"/></g><path d="M472-594l41 64-353 217L513-94l-45 61L88-270v-87" id="M"/><path d="M129-594l384 238v86L133-33 88-95l353-218L88-530" id="N"/><g id="d"><use transform="matrix(0.015555555555555557,0,0,0.015555555555555557,0,0)" xlink:href="#M"/><use transform="matrix(0.015555555555555557,0,0,0.015555555555555557,9.333333333333334,0)" xlink:href="#M"/><use transform="matrix(0.015555555555555557,0,0,0.015555555555555557,18.666666666666668,0)" xlink:href="#C"/><use transform="matrix(0.015555555555555557,0,0,0.015555555555555557,28,0)" xlink:href="#z"/><use transform="matrix(0.015555555555555557,0,0,0.015555555555555557,37.333333333333336,0)" xlink:href="#A"/><use transform="matrix(0.015555555555555557,0,0,0.015555555555555557,46.66666666666667,0)" xlink:href="#x"/><use transform="matrix(0.015555555555555557,0,0,0.015555555555555557,56.00000000000001,0)" xlink:href="#w"/><use transform="matrix(0.015555555555555557,0,0,0.015555555555555557,65.33333333333334,0)" xlink:href="#A"/><use transform="matrix(0.015555555555555557,0,0,0.015555555555555557,74.66666666666667,0)" xlink:href="#N"/><use transform="matrix(0.015555555555555557,0,0,0.015555555555555557,84,0)" xlink:href="#N"/></g><path d="M225-617v241h270v70H225V0h-87v-689h406l-10 72H225" id="O"/><path d="M344-266V0h-88v-265L23-689h96l183 346 185-346h90" id="P"/><g id="e"><use transform="matrix(0.015555555555555557,0,0,0.015555555555555557,0,0)" xlink:href="#v"/><use transform="matrix(0.015555555555555557,0,0,0.015555555555555557,9.333333333333334,0)" xlink:href="#y"/><use transform="matrix(0.015555555555555557,0,0,0.015555555555555557,18.666666666666668,0)" xlink:href="#w"/><use transform="matrix(0.015555555555555557,0,0,0.015555555555555557,28,0)" xlink:href="#u"/><use transform="matrix(0.015555555555555557,0,0,0.015555555555555557,37.333333333333336,0)" xlink:href="#O"/><use transform="matrix(0.015555555555555557,0,0,0.015555555555555557,46.66666666666667,0)" xlink:href="#P"/></g><g id="f"><use transform="matrix(0.015555555555555557,0,0,0.015555555555555557,0,0)" xlink:href="#C"/><use transform="matrix(0.015555555555555557,0,0,0.015555555555555557,9.333333333333334,0)" xlink:href="#z"/><use transform="matrix(0.015555555555555557,0,0,0.015555555555555557,18.666666666666668,0)" xlink:href="#A"/><use transform="matrix(0.015555555555555557,0,0,0.015555555555555557,28,0)" xlink:href="#x"/><use transform="matrix(0.015555555555555557,0,0,0.015555555555555557,37.333333333333336,0)" xlink:href="#w"/><use transform="matrix(0.015555555555555557,0,0,0.015555555555555557,46.66666666666667,0)" xlink:href="#A"/></g><g id="g"><use transform="matrix(0.015555555555555557,0,0,0.015555555555555557,0,0)" xlink:href="#C"/><use transform="matrix(0.015555555555555557,0,0,0.015555555555555557,9.333333333333334,0)" xlink:href="#y"/><use transform="matrix(0.015555555555555557,0,0,0.015555555555555557,18.666666666666668,0)" xlink:href="#v"/><use transform="matrix(0.015555555555555557,0,0,0.015555555555555557,28,0)" xlink:href="#w"/><use transform="matrix(0.015555555555555557,0,0,0.015555555555555557,37.333333333333336,0)" xlink:href="#A"/><use transform="matrix(0.015555555555555557,0,0,0.015555555555555557,46.66666666666667,0)" xlink:href="#v"/><use transform="matrix(0.015555555555555557,0,0,0.015555555555555557,56.00000000000001,0)" xlink:href="#w"/></g><path fill="#fff" d="M497-689v70H344v550h153V0H103v-69h153v-550H103v-70h394" id="Q"/><path fill="#fff" d="M342-614V0h-87v-614H40v-75h519l-9 75H342" id="R"/><path fill="#fff" d="M212-617v232h256v71H212v244h314V0H126v-689h391l-10 72H212" id="S"/><path fill="#fff" d="M537-495c0 108-77 167-168 190L574 0H470L281-295h-93V0h-86v-689h176c154 0 256 52 259 194zm-92 0c0-133-124-127-257-124v256c136 6 257 3 257-132" id="T"/><path fill="#fff" d="M434-176H161L106 0H20l225-689h110L579 0h-90zm-250-72h227L298-615" id="U"/><path fill="#fff" d="M553-344c1 192-75 355-253 355C119 11 46-148 47-343c3-194 67-357 253-357 179 0 255 163 253 356zm-90 0c0-158-26-283-163-283-136 0-163 126-163 284 0 157 28 281 163 281 136 0 163-124 163-282" id="V"/><path fill="#fff" d="M152-605c17 176 11 407 12 605H83v-689h118L448-81c-18-203-11-395-12-608h81V0H395" id="W"/><g id="h"><use transform="matrix(0.015555555555555557,0,0,0.015555555555555557,0,0)" xlink:href="#Q"/><use transform="matrix(0.015555555555555557,0,0,0.015555555555555557,9.333333333333334,0)" xlink:href="#R"/><use transform="matrix(0.015555555555555557,0,0,0.015555555555555557,18.666666666666668,0)" xlink:href="#S"/><use transform="matrix(0.015555555555555557,0,0,0.015555555555555557,28,0)" xlink:href="#T"/><use transform="matrix(0.015555555555555557,0,0,0.015555555555555557,37.333333333333336,0)" xlink:href="#U"/><use transform="matrix(0.015555555555555557,0,0,0.015555555555555557,46.66666666666667,0)" xlink:href="#R"/><use transform="matrix(0.015555555555555557,0,0,0.015555555555555557,56.00000000000001,0)" xlink:href="#Q"/><use transform="matrix(0.015555555555555557,0,0,0.015555555555555557,65.33333333333334,0)" xlink:href="#V"/><use transform="matrix(0.015555555555555557,0,0,0.015555555555555557,74.66666666666667,0)" xlink:href="#W"/></g><path fill="#fff" d="M63-345c-4-243 159-405 405-339 31 11 61 28 90 51l-49 57c-41-34-89-51-145-51-146 6-210 112-210 282S215-69 363-63c75 0 116-23 160-57l45 56c-51 50-120 75-206 75C163 3 67-136 63-345" id="X"/><g id="i"><use transform="matrix(0.015555555555555557,0,0,0.015555555555555557,0,0)" xlink:href="#X"/><use transform="matrix(0.015555555555555557,0,0,0.015555555555555557,9.333333333333334,0)" xlink:href="#V"/><use transform="matrix(0.015555555555555557,0,0,0.015555555555555557,18.666666666666668,0)" xlink:href="#W"/><use transform="matrix(0.015555555555555557,0,0,0.015555555555555557,28,0)" xlink:href="#R"/><use transform="matrix(0.015555555555555557,0,0,0.015555555555555557,37.333333333333336,0)" xlink:href="#S"/><use transform="matrix(0.015555555555555557,0,0,0.015555555555555557,46.66666666666667,0)" xlink:href="#W"/><use transform="matrix(0.015555555555555557,0,0,0.015555555555555557,56.00000000000001,0)" xlink:href="#R"/></g><path d="M184 115v-930h251v72H264V44h171v71H184" id="Y"/><g id="j"><use transform="matrix(0.015555555555555557,0,0,0.015555555555555557,0,0)" xlink:href="#Y"/><use transform="matrix(0.015555555555555557,0,0,0.015555555555555557,9.333333333333334,0)" xlink:href="#u"/><use transform="matrix(0.015555555555555557,0,0,0.015555555555555557,18.666666666666668,0)" xlink:href="#w"/><use transform="matrix(0.015555555555555557,0,0,0.015555555555555557,28,0)" xlink:href="#A"/><use transform="matrix(0.015555555555555557,0,0,0.015555555555555557,37.333333333333336,0)" xlink:href="#z"/><use transform="matrix(0.015555555555555557,0,0,0.015555555555555557,46.66666666666667,0)" xlink:href="#x"/><use transform="matrix(0.015555555555555557,0,0,0.015555555555555557,56.00000000000001,0)" xlink:href="#w"/><use transform="matrix(0.015555555555555557,0,0,0.015555555555555557,65.33333333333334,0)" xlink:href="#u"/><use transform="matrix(0.015555555555555557,0,0,0.015555555555555557,74.66666666666667,0)" xlink:href="#y"/><use transform="matrix(0.015555555555555557,0,0,0.015555555555555557,84,0)" xlink:href="#v"/></g><path d="M570 0h-84c-10-216-28-371-27-609L343-124h-87L132-609c8 217-13 405-20 609H30l39-689h121l112 472 107-472h122" id="Z"/><path d="M557-477c3 190-153 233-355 221V0h-86v-689h175c157 0 265 61 266 212zm-93 1c0-139-119-152-262-144v295c147 7 262-3 262-151" id="aa"/><path d="M136 0v-689h86v612h315L526 0H136" id="ab"/><path d="M416-815v930H165V44h171v-787H165v-72h251" id="ac"/><g id="k"><use transform="matrix(0.015555555555555557,0,0,0.015555555555555557,0,0)" xlink:href="#u"/><use transform="matrix(0.015555555555555557,0,0,0.015555555555555557,9.333333333333334,0)" xlink:href="#v"/><use transform="matrix(0.015555555555555557,0,0,0.015555555555555557,18.666666666666668,0)" xlink:href="#C"/><use transform="matrix(0.015555555555555557,0,0,0.015555555555555557,28,0)" xlink:href="#y"/><use transform="matrix(0.015555555555555557,0,0,0.015555555555555557,37.333333333333336,0)" xlink:href="#Z"/><use transform="matrix(0.015555555555555557,0,0,0.015555555555555557,46.66666666666667,0)" xlink:href="#aa"/><use transform="matrix(0.015555555555555557,0,0,0.015555555555555557,56.00000000000001,0)" xlink:href="#ab"/><use transform="matrix(0.015555555555555557,0,0,0.015555555555555557,65.33333333333334,0)" xlink:href="#A"/><use transform="matrix(0.015555555555555557,0,0,0.015555555555555557,74.66666666666667,0)" xlink:href="#w"/><use transform="matrix(0.015555555555555557,0,0,0.015555555555555557,84,0)" xlink:href="#A"/><use transform="matrix(0.015555555555555557,0,0,0.015555555555555557,93.33333333333333,0)" xlink:href="#ac"/></g><path d="M537-191C537-52 430 9 285 11 180 11 98-23 43-76l52-59c48 44 104 70 191 74 108 4 200-84 147-186-23-45-74-57-137-76-75-22-130-47-167-77s-55-71-55-122c-1-161 194-210 344-158 36 13 69 33 99 59l-52 56c-47-41-102-62-165-62-94 0-179 73-122 153 31 44 86 55 157 76 113 38 202 70 202 207" id="ad"/><g id="l"><use transform="matrix(0.015555555555555557,0,0,0.015555555555555557,0,0)" xlink:href="#z"/><use transform="matrix(0.015555555555555557,0,0,0.015555555555555557,9.333333333333334,0)" xlink:href="#A"/><use transform="matrix(0.015555555555555557,0,0,0.015555555555555557,18.666666666666668,0)" xlink:href="#ad"/><use transform="matrix(0.015555555555555557,0,0,0.015555555555555557,28,0)" xlink:href="#aa"/><use transform="matrix(0.015555555555555557,0,0,0.015555555555555557,37.333333333333336,0)" xlink:href="#y"/><use transform="matrix(0.015555555555555557,0,0,0.015555555555555557,46.66666666666667,0)" xlink:href="#v"/><use transform="matrix(0.015555555555555557,0,0,0.015555555555555557,56.00000000000001,0)" xlink:href="#ad"/><use transform="matrix(0.015555555555555557,0,0,0.015555555555555557,65.33333333333334,0)" xlink:href="#A"/></g><g id="m"><use transform="matrix(0.015555555555555557,0,0,0.015555555555555557,0,0)" xlink:href="#Q"/><use transform="matrix(0.015555555555555557,0,0,0.015555555555555557,9.333333333333334,0)" xlink:href="#R"/><use transform="matrix(0.015555555555555557,0,0,0.015555555555555557,18.666666666666668,0)" xlink:href="#S"/><use transform="matrix(0.015555555555555557,0,0,0.015555555555555557,28,0)" xlink:href="#T"/><use transform="matrix(0.015555555555555557,0,0,0.015555555555555557,37.333333333333336,0)" xlink:href="#U"/><use transform="matrix(0.015555555555555557,0,0,0.015555555555555557,46.66666666666667,0)" xlink:href="#R"/><use transform="matrix(0.015555555555555557,0,0,0.015555555555555557,56.00000000000001,0)" xlink:href="#Q"/><use transform="matrix(0.015555555555555557,0,0,0.015555555555555557,65.33333333333334,0)" xlink:href="#V"/><use transform="matrix(0.015555555555555557,0,0,0.015555555555555557,74.66666666666667,0)" xlink:href="#W"/></g><path d="M260-61c99 0 151-70 150-172v-385H206v-71h291v460C494-86 418 18 261 12c-77-1-141-26-188-63l38-57c50 31 100 47 149 47" id="ae"/><g id="n"><use transform="matrix(0.015555555555555557,0,0,0.015555555555555557,0,0)" xlink:href="#Y"/><use transform="matrix(0.015555555555555557,0,0,0.015555555555555557,9.333333333333334,0)" xlink:href="#aa"/><use transform="matrix(0.015555555555555557,0,0,0.015555555555555557,18.666666666666668,0)" xlink:href="#z"/><use transform="matrix(0.015555555555555557,0,0,0.015555555555555557,28,0)" xlink:href="#y"/><use transform="matrix(0.015555555555555557,0,0,0.015555555555555557,37.333333333333336,0)" xlink:href="#ae"/><use transform="matrix(0.015555555555555557,0,0,0.015555555555555557,46.66666666666667,0)" xlink:href="#A"/><use transform="matrix(0.015555555555555557,0,0,0.015555555555555557,56.00000000000001,0)" xlink:href="#C"/><use transform="matrix(0.015555555555555557,0,0,0.015555555555555557,65.33333333333334,0)" xlink:href="#w"/></g><path d="M540-196C544-54 420 0 282 0H96v-689c195-4 414-15 414 174 1 85-60 133-129 150 106 18 159 74 159 169zM421-510c5-119-121-110-238-108v222h111c85 0 127-38 127-114zm27 317c0-142-128-134-265-131v252c131 2 265 12 265-121" id="af"/><g id="o"><use transform="matrix(0.015555555555555557,0,0,0.015555555555555557,0,0)" xlink:href="#ad"/><use transform="matrix(0.015555555555555557,0,0,0.015555555555555557,9.333333333333334,0)" xlink:href="#D"/><use transform="matrix(0.015555555555555557,0,0,0.015555555555555557,18.666666666666668,0)" xlink:href="#af"/><use transform="matrix(0.015555555555555557,0,0,0.015555555555555557,28,0)" xlink:href="#Z"/><use transform="matrix(0.015555555555555557,0,0,0.015555555555555557,37.333333333333336,0)" xlink:href="#u"/><use transform="matrix(0.015555555555555557,0,0,0.015555555555555557,46.66666666666667,0)" xlink:href="#w"/></g><g id="p"><use transform="matrix(0.015555555555555557,0,0,0.015555555555555557,0,0)" xlink:href="#u"/><use transform="matrix(0.015555555555555557,0,0,0.015555555555555557,9.333333333333334,0)" xlink:href="#w"/><use transform="matrix(0.015555555555555557,0,0,0.015555555555555557,18.666666666666668,0)" xlink:href="#A"/><use transform="matrix(0.015555555555555557,0,0,0.015555555555555557,28,0)" xlink:href="#z"/><use transform="matrix(0.015555555555555557,0,0,0.015555555555555557,37.333333333333336,0)" xlink:href="#x"/><use transform="matrix(0.015555555555555557,0,0,0.015555555555555557,46.66666666666667,0)" xlink:href="#w"/><use transform="matrix(0.015555555555555557,0,0,0.015555555555555557,56.00000000000001,0)" xlink:href="#u"/><use transform="matrix(0.015555555555555557,0,0,0.015555555555555557,65.33333333333334,0)" xlink:href="#y"/><use transform="matrix(0.015555555555555557,0,0,0.015555555555555557,74.66666666666667,0)" xlink:href="#v"/></g><path d="M314 11C126 7 42-137 45-345c2-205 98-355 289-355 97 0 141 27 196 76l-52 54c-39-34-77-57-144-57-137 0-200 115-196 282 1 169 37 276 183 283 49 0 92-11 131-33v-209H317l-10-73h232v328c-67 36-126 60-225 60" id="ag"/><path d="M553-348C553-112 443-8 241 0H83v-689h147c215 7 323 99 323 341zm-93 0c0-169-52-270-209-270h-81v548c205 16 294-69 290-278" id="ah"/><g id="q"><use transform="matrix(0.015555555555555557,0,0,0.015555555555555557,0,0)" xlink:href="#ag"/><use transform="matrix(0.015555555555555557,0,0,0.015555555555555557,9.333333333333334,0)" xlink:href="#z"/><use transform="matrix(0.015555555555555557,0,0,0.015555555555555557,18.666666666666668,0)" xlink:href="#x"/><use transform="matrix(0.015555555555555557,0,0,0.015555555555555557,28,0)" xlink:href="#ah"/><use transform="matrix(0.015555555555555557,0,0,0.015555555555555557,37.333333333333336,0)" xlink:href="#A"/></g><path d="M554-344c-1 156-41 262-143 317C516-4 559 39 593 137l-92 36C456 72 421 13 290 10 108 2 45-151 45-343c0-195 67-357 255-357 179 0 256 163 254 356zm-91 0c0-158-26-283-163-283-136 0-162 126-164 284 2 157 29 281 164 281 136 0 163-124 163-282" id="ai"/><g id="r"><use transform="matrix(0.015555555555555557,0,0,0.015555555555555557,0,0)" xlink:href="#z"/><use transform="matrix(0.015555555555555557,0,0,0.015555555555555557,9.333333333333334,0)" xlink:href="#A"/><use transform="matrix(0.015555555555555557,0,0,0.015555555555555557,18.666666666666668,0)" xlink:href="#ai"/><use transform="matrix(0.015555555555555557,0,0,0.015555555555555557,28,0)" xlink:href="#D"/><use transform="matrix(0.015555555555555557,0,0,0.015555555555555557,37.333333333333336,0)" xlink:href="#A"/><use transform="matrix(0.015555555555555557,0,0,0.015555555555555557,46.66666666666667,0)" xlink:href="#ad"/><use transform="matrix(0.015555555555555557,0,0,0.015555555555555557,56.00000000000001,0)" xlink:href="#w"/></g><g id="s"><use transform="matrix(0.015555555555555557,0,0,0.015555555555555557,0,0)" xlink:href="#ag"/><use transform="matrix(0.015555555555555557,0,0,0.015555555555555557,9.333333333333334,0)" xlink:href="#z"/><use transform="matrix(0.015555555555555557,0,0,0.015555555555555557,18.666666666666668,0)" xlink:href="#x"/><use transform="matrix(0.015555555555555557,0,0,0.015555555555555557,28,0)" xlink:href="#ah"/><use transform="matrix(0.015555555555555557,0,0,0.015555555555555557,37.333333333333336,0)" xlink:href="#A"/></g><path d="M430 0v-327H170V0H83v-689h87v291h260v-291h87V0h-87" id="aj"/><path d="M302-99l186-590h87L345 0h-90L25-689h93" id="ak"/><g id="t"><use transform="matrix(0.015555555555555557,0,0,0.015555555555555557,0,0)" xlink:href="#x"/><use transform="matrix(0.015555555555555557,0,0,0.015555555555555557,9.333333333333334,0)" xlink:href="#z"/><use transform="matrix(0.015555555555555557,0,0,0.015555555555555557,18.666666666666668,0)" xlink:href="#C"/><use transform="matrix(0.015555555555555557,0,0,0.015555555555555557,28,0)" xlink:href="#aj"/><use transform="matrix(0.015555555555555557,0,0,0.015555555555555557,37.333333333333336,0)" xlink:href="#u"/><use transform="matrix(0.015555555555555557,0,0,0.015555555555555557,46.66666666666667,0)" xlink:href="#ak"/><use transform="matrix(0.015555555555555557,0,0,0.015555555555555557,56.00000000000001,0)" xlink:href="#A"/></g></defs></g></svg>