<svg xmlns="http://www.w3.org/2000/svg" xmlns:xlink="http://www.w3.org/1999/xlink" xmlns:lucid="lucid" width="979" height="440"><g transform="translate(0 0)" lucid:page-tab-id="0_0"><path d="M0 0h980v441.55H0z" fill="#fff"/><path d="M360 51c0-2.76 1.72-6.43 3.84-8.2l23.52-19.6c2.12-1.77 6.08-3.2 8.84-3.2H615c2.76 0 5 2.24 5 5v358.8c0 2.76-1.43 6.72-3.2 8.84l-19.6 23.52c-1.77 2.12-5.44 3.84-8.2 3.84H365c-2.76 0-5-2.24-5-5z" stroke="#000" stroke-width="2" fill="#fff"/><path d="M365 46c-2.76 0-3.28-1.43-1.16-3.2l23.52-19.6c2.12-1.77 6.08-3.2 8.84-3.2H615c2.76 0 3.42 1.58 1.46 3.54l-18.92 18.92C595.58 44.42 591.76 46 589 46z" stroke="#000" stroke-width="2" fill="#e6e6e6"/><path d="M594 51c0-2.76 1.58-6.58 3.54-8.54l18.92-18.92c1.96-1.96 3.54-1.3 3.54 1.46v358.8c0 2.76-1.43 6.72-3.2 8.84l-19.6 23.52c-1.77 2.12-3.2 1.6-3.2-1.16z" stroke="#000" stroke-width="2" fill="#ccc"/><use xlink:href="#a" transform="matrix(1,0,0,1,368,68) translate(0 16.830000000000002)"/><use xlink:href="#b" transform="matrix(1,0,0,1,368,68) translate(0 38.43000000000001)"/><path d="M20 51c0-2.76 1.72-6.43 3.84-8.2l23.52-19.6c2.12-1.77 6.08-3.2 8.84-3.2H275c2.76 0 5 2.24 5 5v358.8c0 2.76-1.43 6.72-3.2 8.84l-19.6 23.52c-1.77 2.12-5.44 3.84-8.2 3.84H25c-2.76 0-5-2.24-5-5z" stroke="#000" stroke-width="2" fill="#fff"/><path d="M25 46c-2.76 0-3.28-1.43-1.16-3.2l23.52-19.6c2.12-1.77 6.08-3.2 8.84-3.2H275c2.76 0 3.42 1.58 1.46 3.54l-18.92 18.92C255.58 44.42 251.76 46 249 46z" stroke="#000" stroke-width="2" fill="#e6e6e6"/><path d="M254 51c0-2.76 1.58-6.58 3.54-8.54l18.92-18.92c1.96-1.96 3.54-1.3 3.54 1.46v358.8c0 2.76-1.43 6.72-3.2 8.84l-19.6 23.52c-1.77 2.12-3.2 1.6-3.2-1.16z" stroke="#000" stroke-width="2" fill="#ccc"/><use xlink:href="#a" transform="matrix(1,0,0,1,28,68) translate(0 16.830000000000002)"/><use xlink:href="#c" transform="matrix(1,0,0,1,28,68) translate(0 38.43000000000001)"/><path d="M65 280c-2.76 0-5 2.24-5 5v110c0 2.76 2.24 5 5 5h150c2.76 0 5-2.24 5-5V285c0-2.76-2.24-5-5-5z" stroke="#000" stroke-width="2" fill="#fff"/><path d="M210 290h-15v20h15z" stroke="#000" fill="#fff"/><path d="M200 293.33h-10v3.34h10zm0 10h-10v3.34h10z" stroke="#000" fill="#fff"/><use xlink:href="#d" transform="matrix(1,0,0,1,60,280) translate(20.605000000000004 65.58)"/><use xlink:href="#e" transform="matrix(1,0,0,1,60,280) translate(117.805 65.58)"/><path d="M699 51c0-2.76 1.72-6.43 3.84-8.2l23.52-19.6c2.12-1.77 6.08-3.2 8.84-3.2H954c2.76 0 5 2.24 5 5v358.8c0 2.76-1.43 6.72-3.2 8.84l-19.6 23.52c-1.77 2.12-5.44 3.84-8.2 3.84H704c-2.76 0-5-2.24-5-5z" stroke="#000" stroke-width="2" fill="#fff"/><path d="M704 46c-2.76 0-3.28-1.43-1.16-3.2l23.52-19.6c2.12-1.77 6.08-3.2 8.84-3.2H954c2.76 0 3.42 1.58 1.46 3.54l-18.92 18.92C934.58 44.42 930.76 46 928 46z" stroke="#000" stroke-width="2" fill="#e6e6e6"/><path d="M933 51c0-2.76 1.58-6.58 3.54-8.54l18.92-18.92c1.96-1.96 3.54-1.3 3.54 1.46v358.8c0 2.76-1.43 6.72-3.2 8.84l-19.6 23.52c-1.77 2.12-3.2 1.6-3.2-1.16z" stroke="#000" stroke-width="2" fill="#ccc"/><use xlink:href="#a" transform="matrix(1,0,0,1,707,68) translate(0 16.830000000000002)"/><use xlink:href="#f" transform="matrix(1,0,0,1,707,68) translate(0 38.43000000000001)"/><path d="M405 140c-2.76 0-5 2.24-5 5v110c0 2.76 2.24 5 5 5h150c2.76 0 5-2.24 5-5V145c0-2.76-2.24-5-5-5z" stroke="#000" stroke-width="2" fill="#fff"/><path d="M550 150h-15v20h15z" stroke="#000" fill="#fff"/><path d="M540 153.33h-10v3.34h10zm0 10h-10v3.34h10z" stroke="#000" fill="#fff"/><use xlink:href="#g" transform="matrix(1,0,0,1,400,140) translate(26.005000000000003 54.33)"/><use xlink:href="#h" transform="matrix(1,0,0,1,400,140) translate(69.205 54.33)"/><use xlink:href="#i" transform="matrix(1,0,0,1,400,140) translate(63.805 75.93)"/><path d="M405 280c-2.76 0-5 2.24-5 5v110c0 2.76 2.24 5 5 5h150c2.76 0 5-2.24 5-5V285c0-2.76-2.24-5-5-5z" stroke="#000" stroke-width="2" fill="#fff"/><path d="M550 290h-15v20h15z" stroke="#000" fill="#fff"/><path d="M540 293.33h-10v3.34h10zm0 10h-10v3.34h10z" stroke="#000" fill="#fff"/><use xlink:href="#g" transform="matrix(1,0,0,1,400,280) translate(26.005000000000003 54.33)"/><use xlink:href="#h" transform="matrix(1,0,0,1,400,280) translate(69.205 54.33)"/><use xlink:href="#j" transform="matrix(1,0,0,1,400,280) translate(47.605 75.93)"/><path d="M744 140c-2.76 0-5 2.24-5 5v110c0 2.76 2.24 5 5 5h150c2.76 0 5-2.24 5-5V145c0-2.76-2.24-5-5-5z" stroke="#000" stroke-width="2" fill="#fff"/><path d="M889 150h-15v20h15z" stroke="#000" fill="#fff"/><path d="M879 153.33h-10v3.34h10zm0 10h-10v3.34h10z" stroke="#000" fill="#fff"/><use xlink:href="#g" transform="matrix(1,0,0,1,739,140) translate(20.605000000000004 65.58)"/><use xlink:href="#k" transform="matrix(1,0,0,1,739,140) translate(63.805 65.58)"/><path d="M65 140c-2.76 0-5 2.24-5 5v110c0 2.76 2.24 5 5 5h150c2.76 0 5-2.24 5-5V145c0-2.76-2.24-5-5-5z" stroke="#000" stroke-width="2" fill="#fff"/><path d="M210 150h-15v20h15z" stroke="#000" fill="#fff"/><path d="M200 153.33h-10v3.34h10zm0 10h-10v3.34h10z" stroke="#000" fill="#fff"/><use xlink:href="#l" transform="matrix(1,0,0,1,60,140) translate(9.805000000000001 65.58)"/><use xlink:href="#e" transform="matrix(1,0,0,1,60,140) translate(128.605 65.58)"/><path d="M222 169.63h176" stroke="#000" stroke-width="2" fill="none"/><path d="M222.03 170.63H221v-2h1.03zM399 170.63h-1.03v-2H399z"/><path d="M222 340h93c2.76 0 5-2.24 5-5v-99.63c0-2.76 2.24-5 5-5h73" stroke="#000" stroke-width="2" fill="none"/><path d="M222.03 341H221v-2h1.03zM399 231.38h-1.03v-2H399z"/><path d="M562 340h93c2.76 0 5-2.24 5-5v-99.63c0-2.76 2.24-5 5-5h72" stroke="#000" stroke-width="2" fill="none"/><path d="M562.03 341H561v-2h1.03zM738 231.38h-1.03v-2H738z"/><path d="M737 169.63H562" stroke="#000" stroke-width="2" fill="none"/><path d="M738 170.63h-1.03v-2H738zM562.03 170.63H561v-2h1.03z"/><path d="M480 278v-16" stroke="#000" stroke-width="2" fill="none"/><path d="M481 279h-2v-1.03h2zM481 262.03h-2V261h2z"/><defs><path d="M472-594l41 64-353 217L513-94l-45 61L88-270v-87" id="m"/><path d="M68-263c3-150 62-268 206-275 58 0 105 21 142 63v-274l84 10V0h-74l-8-69c-33 46-79 78-149 80C124 10 68-109 68-263zm228-207c-103 4-137 89-137 207 0 115 28 202 127 207 50 0 93-28 130-84v-262c-25-38-63-67-120-68" id="n"/><path d="M167-234c1 104 57 173 153 175 63-1 97-20 141-47l39 56c-43 34-108 60-180 61C164 13 77-104 79-263c3-156 76-272 229-275 155-3 231 134 213 304H167zm274-64c0-99-41-171-132-171-93 0-138 73-142 171h274" id="o"/><path d="M540-527L348 0h-97L60-527h90L302-76l150-451h88" id="p"/><path d="M300-773c36-1 62 24 62 59s-26 60-62 59c-35 1-61-25-60-59-1-34 25-60 60-59zm67 246v460h148V0H121v-67h162v-393H126v-67h241" id="q"/><path d="M182-261c0 121 49 197 157 200 46 0 92-15 137-46l40 55c-37 35-109 63-177 63C181 13 89-101 91-261c4-163 86-273 248-277 68 0 127 21 176 62l-41 55c-46-31-91-46-136-46-106 3-156 87-156 206" id="r"/><path d="M129-594l384 238v86L133-33 88-95l353-218L88-530" id="s"/><g id="a"><use transform="matrix(0.018,0,0,0.018,0,0)" xlink:href="#m"/><use transform="matrix(0.018,0,0,0.018,10.799999999999999,0)" xlink:href="#m"/><use transform="matrix(0.018,0,0,0.018,21.599999999999998,0)" xlink:href="#n"/><use transform="matrix(0.018,0,0,0.018,32.4,0)" xlink:href="#o"/><use transform="matrix(0.018,0,0,0.018,43.199999999999996,0)" xlink:href="#p"/><use transform="matrix(0.018,0,0,0.018,53.99999999999999,0)" xlink:href="#q"/><use transform="matrix(0.018,0,0,0.018,64.8,0)" xlink:href="#r"/><use transform="matrix(0.018,0,0,0.018,75.6,0)" xlink:href="#o"/><use transform="matrix(0.018,0,0,0.018,86.39999999999999,0)" xlink:href="#s"/><use transform="matrix(0.018,0,0,0.018,97.19999999999999,0)" xlink:href="#s"/></g><path d="M219-431c-1-43 36-82 80-80 45-2 82 37 81 80 1 44-36 84-81 82-44 1-81-38-80-82zm0 361c-1-43 36-83 80-81 45-1 82 37 81 81 1 46-36 82-81 81-45 1-81-36-80-81" id="t"/><path d="M434-176H161L106 0H20l225-689h110L579 0h-90zm-250-72h227L298-615" id="u"/><path d="M179-453c33-47 84-84 157-85 127 0 191 91 191 274 1 151-60 274-203 275-57 0-104-20-140-60v251l-84 10v-739h72zm137-17c-62 0-103 44-132 84v261c24 36 65 65 121 66 104-5 130-86 131-205-2-117-20-206-120-206" id="v"/><path d="M378 11c-91 1-156-55-156-145v-538H60v-67h246v609c-6 82 110 83 175 53l22 61c-33 18-75 27-125 27" id="w"/><path d="M478-115c0 42 12 57 43 67l-21 60c-51-7-83-32-96-75-34 44-90 74-165 74C137 13 68-51 69-151c3-149 154-179 324-169 10-103-29-151-125-148-40 0-86 9-137 27l-23-64c153-63 370-47 370 137v253zM260-52c60-1 107-35 133-75v-135c-121-4-236-1-234 110 0 67 34 100 101 100" id="x"/><path d="M519-27c-32 22-89 38-142 38-104 2-177-59-177-158v-314H79v-66h121v-119l84-10v129h183l-11 66H284v313C274-41 417-45 486-84" id="y"/><path d="M301-538c152-1 227 116 226 274 2 155-77 276-227 275C148 12 71-105 73-263c-2-156 77-276 228-275zm0 69c-107 0-137 85-137 206 1 121 29 205 136 205s135-84 136-206c-1-120-29-205-135-205" id="z"/><path d="M327-471c-64 0-116 47-143 88V0h-84v-527h72l7 74c34-46 100-84 174-85 99 0 148 52 148 156V0h-84v-320c-1-91-3-151-90-151" id="A"/><path d="M537-191C537-52 430 9 285 11 180 11 98-23 43-76l52-59c48 44 104 70 191 74 108 4 200-84 147-186-23-45-74-57-137-76-75-22-130-47-167-77s-55-71-55-122c-1-161 194-210 344-158 36 13 69 33 99 59l-52 56c-47-41-102-62-165-62-94 0-179 73-122 153 31 44 86 55 157 76 113 38 202 70 202 207" id="B"/><path d="M267-402c40-99 128-162 263-125l-12 179h-68v-113c-87-2-142 56-178 174v222h107V0H105v-65h83v-397h-83v-65h146" id="C"/><g id="b"><use transform="matrix(0.018,0,0,0.018,0,0)" xlink:href="#t"/><use transform="matrix(0.018,0,0,0.018,10.799999999999999,0)" xlink:href="#u"/><use transform="matrix(0.018,0,0,0.018,21.599999999999998,0)" xlink:href="#v"/><use transform="matrix(0.018,0,0,0.018,32.418,0)" xlink:href="#v"/><use transform="matrix(0.018,0,0,0.018,43.236,0)" xlink:href="#w"/><use transform="matrix(0.018,0,0,0.018,54.035999999999994,0)" xlink:href="#q"/><use transform="matrix(0.018,0,0,0.018,64.836,0)" xlink:href="#r"/><use transform="matrix(0.018,0,0,0.018,75.636,0)" xlink:href="#x"/><use transform="matrix(0.018,0,0,0.018,86.43599999999999,0)" xlink:href="#y"/><use transform="matrix(0.018,0,0,0.018,97.23599999999999,0)" xlink:href="#q"/><use transform="matrix(0.018,0,0,0.018,108.03599999999999,0)" xlink:href="#z"/><use transform="matrix(0.018,0,0,0.018,118.83599999999998,0)" xlink:href="#A"/><use transform="matrix(0.018,0,0,0.018,129.636,0)" xlink:href="#B"/><use transform="matrix(0.018,0,0,0.018,140.436,0)" xlink:href="#o"/><use transform="matrix(0.018,0,0,0.018,151.23600000000002,0)" xlink:href="#C"/><use transform="matrix(0.018,0,0,0.018,162.03600000000003,0)" xlink:href="#p"/><use transform="matrix(0.018,0,0,0.018,172.83600000000004,0)" xlink:href="#o"/><use transform="matrix(0.018,0,0,0.018,183.63600000000005,0)" xlink:href="#C"/></g><path d="M553-348C553-112 443-8 241 0H83v-689h147c215 7 323 99 323 341zm-93 0c0-169-52-270-209-270h-81v548c205 16 294-69 290-278" id="D"/><path d="M532-264c2 150-67 275-209 275-61 0-108-22-143-66l-6 55h-74v-739l84-10v291c41-53 91-80 151-80 148 2 196 117 197 274zM304-57c103-4 137-89 137-207-1-115-26-206-125-206-62 0-103 44-132 84v261c24 37 64 67 120 68" id="E"/><path d="M280-58c84 5 156-46 121-126-25-33-62-42-118-58-101-31-180-44-180-152 0-172 283-177 392-86l-38 58c-42-28-84-48-152-48-96-3-135 45-101 108 50 50 205 62 254 112 26 26 43 59 43 104C500 44 180 48 74-60l47-55c38 31 93 57 159 57" id="F"/><g id="c"><use transform="matrix(0.018,0,0,0.018,0,0)" xlink:href="#t"/><use transform="matrix(0.018,0,0,0.018,10.799999999999999,0)" xlink:href="#D"/><use transform="matrix(0.018,0,0,0.018,21.599999999999998,0)" xlink:href="#x"/><use transform="matrix(0.018,0,0,0.018,32.4,0)" xlink:href="#y"/><use transform="matrix(0.018,0,0,0.018,43.199999999999996,0)" xlink:href="#x"/><use transform="matrix(0.018,0,0,0.018,53.99999999999999,0)" xlink:href="#E"/><use transform="matrix(0.018,0,0,0.018,64.8,0)" xlink:href="#x"/><use transform="matrix(0.018,0,0,0.018,75.6,0)" xlink:href="#F"/><use transform="matrix(0.018,0,0,0.018,86.39999999999999,0)" xlink:href="#o"/><use transform="matrix(0.018,0,0,0.018,97.19999999999999,0)" xlink:href="#B"/><use transform="matrix(0.018,0,0,0.018,107.99999999999999,0)" xlink:href="#o"/><use transform="matrix(0.018,0,0,0.018,118.8,0)" xlink:href="#C"/><use transform="matrix(0.018,0,0,0.018,129.6,0)" xlink:href="#p"/><use transform="matrix(0.018,0,0,0.018,140.4,0)" xlink:href="#o"/><use transform="matrix(0.018,0,0,0.018,151.20000000000002,0)" xlink:href="#C"/></g><path d="M252 11c-100 1-152-56-152-155v-383h84v374c0 66 25 97 89 98 63 0 117-43 143-84v-388h84V0h-72l-7-71c-35 45-96 81-169 82" id="G"/><path d="M447-538c76 0 102 52 102 146V0h-77v-378c-4-59 6-89-41-94-34 0-65 21-92 63V0h-78v-378c-4-59 6-89-41-94-34 0-65 21-92 63V0H51v-527h65l6 62c29-39 54-71 114-73 49 0 81 23 95 70 29-39 56-70 116-70" id="H"/><g id="d"><use transform="matrix(0.018,0,0,0.018,0,0)" xlink:href="#D"/><use transform="matrix(0.018,0,0,0.018,10.799999999999999,0)" xlink:href="#z"/><use transform="matrix(0.018,0,0,0.018,21.599999999999998,0)" xlink:href="#r"/><use transform="matrix(0.018,0,0,0.018,32.4,0)" xlink:href="#G"/><use transform="matrix(0.018,0,0,0.018,43.199999999999996,0)" xlink:href="#H"/><use transform="matrix(0.018,0,0,0.018,53.99999999999999,0)" xlink:href="#o"/><use transform="matrix(0.018,0,0,0.018,64.8,0)" xlink:href="#A"/><use transform="matrix(0.018,0,0,0.018,75.6,0)" xlink:href="#y"/></g><path d="M540-196C544-54 420 0 282 0H96v-689c195-4 414-15 414 174 1 85-60 133-129 150 106 18 159 74 159 169zM421-510c5-119-121-110-238-108v222h111c85 0 127-38 127-114zm27 317c0-142-128-134-265-131v252c131 2 265 12 265-121" id="I"/><g id="e"><use transform="matrix(0.018,0,0,0.018,0,0)" xlink:href="#D"/><use transform="matrix(0.018,0,0,0.018,10.799999999999999,0)" xlink:href="#I"/></g><path d="M595-689L491 0H377l-79-520L218 0H101L5-689h87l73 594 83-514h106l79 514 82-594h80" id="J"/><path d="M190-749V0h-84v-739zm351 222L305-289 569 0H458L199-288l234-239h108" id="K"/><g id="f"><use transform="matrix(0.018,0,0,0.018,0,0)" xlink:href="#t"/><use transform="matrix(0.018,0,0,0.018,10.799999999999999,0)" xlink:href="#J"/><use transform="matrix(0.018,0,0,0.018,21.599999999999998,0)" xlink:href="#z"/><use transform="matrix(0.018,0,0,0.018,32.4,0)" xlink:href="#C"/><use transform="matrix(0.018,0,0,0.018,43.199999999999996,0)" xlink:href="#K"/><use transform="matrix(0.018,0,0,0.018,53.99999999999999,0)" xlink:href="#F"/><use transform="matrix(0.018,0,0,0.018,64.8,0)" xlink:href="#y"/><use transform="matrix(0.018,0,0,0.018,75.6,0)" xlink:href="#x"/><use transform="matrix(0.018,0,0,0.018,86.39999999999999,0)" xlink:href="#y"/><use transform="matrix(0.018,0,0,0.018,97.19999999999999,0)" xlink:href="#q"/><use transform="matrix(0.018,0,0,0.018,107.99999999999999,0)" xlink:href="#z"/><use transform="matrix(0.018,0,0,0.018,118.8,0)" xlink:href="#A"/></g><g id="g"><use transform="matrix(0.018,0,0,0.018,0,0)" xlink:href="#J"/><use transform="matrix(0.018,0,0,0.018,10.799999999999999,0)" xlink:href="#o"/><use transform="matrix(0.018,0,0,0.018,21.599999999999998,0)" xlink:href="#E"/></g><g id="h"><use transform="matrix(0.018,0,0,0.018,0,0)" xlink:href="#B"/><use transform="matrix(0.018,0,0,0.018,10.799999999999999,0)" xlink:href="#o"/><use transform="matrix(0.018,0,0,0.018,21.599999999999998,0)" xlink:href="#C"/><use transform="matrix(0.018,0,0,0.018,32.4,0)" xlink:href="#p"/><use transform="matrix(0.018,0,0,0.018,43.199999999999996,0)" xlink:href="#o"/><use transform="matrix(0.018,0,0,0.018,53.99999999999999,0)" xlink:href="#C"/></g><path d="M557-477c3 190-153 233-355 221V0h-86v-689h175c157 0 265 61 266 212zm-93 1c0-139-119-152-262-144v295c147 7 262-3 262-151" id="L"/><path d="M497-689v70H344v550h153V0H103v-69h153v-550H103v-70h394" id="M"/><g id="i"><use transform="matrix(0.018,0,0,0.018,0,0)" xlink:href="#u"/><use transform="matrix(0.018,0,0,0.018,10.799999999999999,0)" xlink:href="#L"/><use transform="matrix(0.018,0,0,0.018,21.599999999999998,0)" xlink:href="#M"/></g><path d="M63-345c-4-243 159-405 405-339 31 11 61 28 90 51l-49 57c-41-34-89-51-145-51-146 6-210 112-210 282S215-69 363-63c75 0 116-23 160-57l45 56c-51 50-120 75-206 75C163 3 67-136 63-345" id="N"/><g id="j"><use transform="matrix(0.018,0,0,0.018,0,0)" xlink:href="#N"/><use transform="matrix(0.018,0,0,0.018,10.799999999999999,0)" xlink:href="#w"/><use transform="matrix(0.018,0,0,0.018,21.599999999999998,0)" xlink:href="#q"/><use transform="matrix(0.018,0,0,0.018,32.4,0)" xlink:href="#o"/><use transform="matrix(0.018,0,0,0.018,43.199999999999996,0)" xlink:href="#A"/><use transform="matrix(0.018,0,0,0.018,53.99999999999999,0)" xlink:href="#y"/></g><path d="M491 0H372l-69-386L229 0H113L18-527h85l68 475 84-408h99l79 408 68-475h81" id="O"/><g id="k"><use transform="matrix(0.018,0,0,0.018,0,0)" xlink:href="#I"/><use transform="matrix(0.018,0,0,0.018,10.799999999999999,0)" xlink:href="#C"/><use transform="matrix(0.018,0,0,0.018,21.599999999999998,0)" xlink:href="#z"/><use transform="matrix(0.018,0,0,0.018,32.4,0)" xlink:href="#O"/><use transform="matrix(0.018,0,0,0.018,43.199999999999996,0)" xlink:href="#F"/><use transform="matrix(0.018,0,0,0.018,53.99999999999999,0)" xlink:href="#o"/><use transform="matrix(0.018,0,0,0.018,64.8,0)" xlink:href="#C"/></g><path d="M537-495c0 108-77 167-168 190L574 0H470L281-295h-93V0h-86v-689h176c154 0 256 52 259 194zm-92 0c0-133-124-127-257-124v256c136 6 257 3 257-132" id="P"/><g id="l"><use transform="matrix(0.018,0,0,0.018,0,0)" xlink:href="#P"/><use transform="matrix(0.018,0,0,0.018,10.799999999999999,0)" xlink:href="#o"/><use transform="matrix(0.018,0,0,0.018,21.599999999999998,0)" xlink:href="#w"/><use transform="matrix(0.018,0,0,0.018,32.4,0)" xlink:href="#x"/><use transform="matrix(0.018,0,0,0.018,43.199999999999996,0)" xlink:href="#y"/><use transform="matrix(0.018,0,0,0.018,53.99999999999999,0)" xlink:href="#q"/><use transform="matrix(0.018,0,0,0.018,64.8,0)" xlink:href="#z"/><use transform="matrix(0.018,0,0,0.018,75.6,0)" xlink:href="#A"/><use transform="matrix(0.018,0,0,0.018,86.39999999999999,0)" xlink:href="#x"/><use transform="matrix(0.018,0,0,0.018,97.19999999999999,0)" xlink:href="#w"/></g></defs></g></svg>