<svg xmlns="http://www.w3.org/2000/svg" xmlns:xlink="http://www.w3.org/1999/xlink" xmlns:lucid="lucid" width="1070.87" height="881.89"><g transform="translate(0 0)" lucid:page-tab-id="kDQ91QaTdYqZ"><path d="M0 0h1070.87v881.9H0z" fill="#fff"/><path d="M31.5 51.5v800.64h314.96V51.5" stroke="#000" stroke-width="2" fill="none"/><path d="M31.5 31.5h314.96v40H31.5z" stroke="#000" stroke-width="2" fill="#e5e5e5"/><use xlink:href="#a" transform="matrix(1,0,0,1,51.496062992125985,31.49606299212598) translate(115.9 26.03)"/><path d="M346.46 51.5v800.64h692.9V51.5" stroke="#000" stroke-width="2" fill="none"/><path d="M346.46 31.5h692.9v40h-692.9z" stroke="#000" stroke-width="2" fill="#e5e5e5"/><use xlink:href="#b" transform="matrix(1,0,0,1,366.4566929133858,31.49606299212598) translate(200.5 26.03)"/><use xlink:href="#c" transform="matrix(1,0,0,1,366.4566929133858,31.49606299212598) translate(330.1 26.03)"/><use xlink:href="#d" transform="matrix(1,0,0,1,366.4566929133858,31.49606299212598) translate(405.7 26.03)"/><path d="M218.72 155.73c0 17.4-14.1 31.5-31.5 31.5s-31.5-14.1-31.5-31.5 14.1-31.5 31.5-31.5 31.5 14.1 31.5 31.5z" stroke="#000" stroke-width="2"/><path d="M111.64 220.47c-10.44 0-18.9 8.46-18.9 18.9v56.7c0 10.43 8.46 18.9 18.9 18.9h151.18c10.43 0 18.9-8.47 18.9-18.9v-56.7c0-10.44-8.47-18.9-18.9-18.9z" stroke="#000" stroke-width="2" fill="#c7e8ac"/><use xlink:href="#e" transform="matrix(1,0,0,1,100.73840769903711,228.47244094488187) translate(21.682000000000002 34.73)"/><use xlink:href="#f" transform="matrix(1,0,0,1,100.73840769903711,228.47244094488187) translate(75.69999999999999 34.73)"/><use xlink:href="#g" transform="matrix(1,0,0,1,100.73840769903711,228.47244094488187) translate(48.7 56.33)"/><path d="M187.23 189.23v11.74" stroke="#000" stroke-width="2" fill="none"/><path d="M187.22 188.23l1-.07v1.1h-2v-1.1z"/><path d="M187.23 216.24l-4.64-14.27h9.26z" stroke="#000" stroke-width="2"/><path d="M283.7 267.72h108.95" stroke="#000" stroke-width="2" fill="none"/><path d="M283.74 268.72h-1.03v-2h1.04z"/><path d="M407.9 267.72l-14.25 4.63v-9.27z" stroke="#000" stroke-width="2"/><path d="M598.43 440.94l31.5 31.5-31.5 31.5-31.5-31.5z" stroke="#000" stroke-width="2" fill="#fff"/><path d="M659.42 394.7h-60v26.33h-2V392.7h62z"/><path d="M660.42 394.7h-1.03v-2h1.02zM598.43 436.3l-4.64-14.27h9.26z"/><path d="M598.43 439.53l-6.02-18.5h12.04zm-3.26-16.5l3.26 10.03 3.25-10.03z"/><path d="M428.35 535.43c-10.44 0-18.9 8.46-18.9 18.9v56.7c0 10.43 8.46 18.9 18.9 18.9h119.68c10.44 0 18.9-8.47 18.9-18.9v-56.7c0-10.44-8.46-18.9-18.9-18.9z" stroke="#000" stroke-width="2" fill="#c7e8ac"/><use xlink:href="#h" transform="matrix(1,0,0,1,417.4488188976377,543.4330708661417) translate(17.000000000000007 45.53)"/><use xlink:href="#i" transform="matrix(1,0,0,1,417.4488188976377,543.4330708661417) translate(71 45.53)"/><path d="M648.82 536.43c-10.44 0-18.9 8.46-18.9 18.9v56.7c0 10.43 8.46 18.9 18.9 18.9H768.5c10.44 0 18.9-8.47 18.9-18.9v-56.7c0-10.44-8.46-18.9-18.9-18.9z" stroke="#000" stroke-width="2" fill="#c7e8ac"/><use xlink:href="#j" transform="matrix(1,0,0,1,637.9212598425195,544.4330708897066) translate(49.400000000000006 23.930000000000003)"/><use xlink:href="#k" transform="matrix(1,0,0,1,637.9212598425195,544.4330708897066) translate(22.400000000000006 45.53)"/><use xlink:href="#g" transform="matrix(1,0,0,1,637.9212598425195,544.4330708897066) translate(33.2 67.13000000000001)"/><path d="M489.2 515.93h-2v-32.7h2zm75.3-42.5H526v-2h38.5zM565.5 472.44l1 1h-2v-2h2zM488.2 531.2l-4.65-14.27h9.27z"/><path d="M488.2 534.43l-6.02-18.5h12.02zm-3.27-16.5l3.26 10.03 3.25-10.03z"/><use xlink:href="#l" transform="matrix(1,0,0,1,450.38897637795276,461.6409448819319) translate(0.005000000000002558 16.830000000000002)"/><path d="M709.66 516.93h-2v-33.7h2zm-77.32-43.5v-2h38.52v2z"/><path d="M632.36 473.44h-2.02l1-1-1-1h2.02zM708.66 532.2l-4.63-14.27h9.27z"/><path d="M708.66 535.43l-6-18.5h12zm-3.26-16.5l3.26 10.03 3.26-10.03z"/><use xlink:href="#m" transform="matrix(1,0,0,1,670.8614173228345,461.6409448819319) translate(0.005000000000002558 16.830000000000002)"/><path d="M598.43 630.92l31.5 31.5-31.5 31.5-31.5-31.5z" stroke="#000" stroke-width="2" fill="#fff"/><path d="M708.66 632.92v29.5h-58.82" stroke="#000" stroke-width="2" fill="none"/><path d="M709.66 632.95h-2v-1.03h2z"/><path d="M634.57 662.42l14.27-4.64v9.27z" stroke="#000" stroke-width="2"/><path d="M488.2 631.92v30.5H547" stroke="#000" stroke-width="2" fill="none"/><path d="M489.2 631.95h-2v-1.03h2z"/><path d="M562.28 662.42L548 667.05v-9.27z" stroke="#000" stroke-width="2"/><path d="M629.92 757.9c0 17.4-14.1 31.5-31.5 31.5s-31.5-14.1-31.5-31.5 14.1-31.5 31.5-31.5 31.5 14.1 31.5 31.5z" stroke="#000" stroke-width="2" fill="#fff"/><path d="M617.32 757.9c0 10.44-8.46 18.9-18.9 18.9-10.43 0-18.9-8.46-18.9-18.9 0-10.43 8.47-18.9 18.9-18.9 10.44 0 18.9 8.47 18.9 18.9z" stroke="#000" stroke-width="2"/><path d="M598.43 696.33v10.58" stroke="#000" stroke-width="2" fill="none"/><path d="M599.43 696.35h-2v-2.02l1 1 1-1z"/><path d="M598.43 722.17l-4.64-14.27h9.26z" stroke="#000" stroke-width="2"/><path d="M431.05 220.47c-10.44 0-18.9 8.46-18.9 18.9v56.7c0 10.43 8.46 18.9 18.9 18.9h148.63c10.44 0 18.9-8.47 18.9-18.9v-56.7c0-10.44-8.46-18.9-18.9-18.9z" stroke="#000" stroke-width="2" fill="#c7e8ac"/><use xlink:href="#n" transform="matrix(1,0,0,1,420.1509368339754,228.47244094488187) translate(4.5 34.73)"/><use xlink:href="#o" transform="matrix(1,0,0,1,420.1509368339754,228.47244094488187) translate(47.699999999999996 34.73)"/><use xlink:href="#p" transform="matrix(1,0,0,1,420.1509368339754,228.47244094488187) translate(90.89999999999999 34.73)"/><use xlink:href="#q" transform="matrix(1,0,0,1,420.1509368339754,228.47244094488187) translate(58.491 56.33)"/><path d="M680.3 220.47c-10.42 0-18.88 8.46-18.88 18.9v56.7c0 10.43 8.46 18.9 18.9 18.9h277.16c10.44 0 18.9-8.47 18.9-18.9v-56.7c0-10.44-8.46-18.9-18.9-18.9z" stroke="#000" stroke-width="2" fill="#c7e8ac"/><g><use xlink:href="#r" transform="matrix(1,0,0,1,669.4173228346456,228.47244094488187) translate(19.89100000000002 34.73)"/><use xlink:href="#s" transform="matrix(1,0,0,1,669.4173228346456,228.47244094488187) translate(106.29100000000001 34.73)"/><use xlink:href="#t" transform="matrix(1,0,0,1,669.4173228346456,228.47244094488187) translate(246.709 34.73)"/><use xlink:href="#u" transform="matrix(1,0,0,1,669.4173228346456,228.47244094488187) translate(30.700000000000017 56.33)"/><use xlink:href="#v" transform="matrix(1,0,0,1,669.4173228346456,228.47244094488187) translate(84.70000000000002 56.33)"/><use xlink:href="#w" transform="matrix(1,0,0,1,669.4173228346456,228.47244094488187) translate(138.7 56.33)"/><use xlink:href="#x" transform="matrix(1,0,0,1,669.4173228346456,228.47244094488187) translate(192.7 56.33)"/><use xlink:href="#y" transform="matrix(1,0,0,1,669.4173228346456,228.47244094488187) translate(214.29999999999998 56.33)"/></g><path d="M600.58 267.72h41.34" stroke="#000" stroke-width="2" fill="none"/><path d="M600.6 268.72h-1.02v-2h1.03z"/><path d="M657.18 267.72l-14.26 4.63v-9.27z" stroke="#000" stroke-width="2"/><path d="M680.3 346.46c-10.42 0-18.88 8.46-18.88 18.9v56.7c0 10.42 8.46 18.88 18.9 18.88h277.16c10.44 0 18.9-8.46 18.9-18.9v-56.7c0-10.42-8.46-18.88-18.9-18.88z" stroke="#000" stroke-width="2" fill="#c7e8ac"/><g><use xlink:href="#z" transform="matrix(1,0,0,1,669.4173228346456,354.4566929133858) translate(36.10000000000002 23.930000000000003)"/><use xlink:href="#A" transform="matrix(1,0,0,1,669.4173228346456,354.4566929133858) translate(133.3 23.930000000000003)"/><use xlink:href="#B" transform="matrix(1,0,0,1,669.4173228346456,354.4566929133858) translate(219.7 23.930000000000003)"/><use xlink:href="#A" transform="matrix(1,0,0,1,669.4173228346456,354.4566929133858) translate(57.691 45.53)"/><use xlink:href="#C" transform="matrix(1,0,0,1,669.4173228346456,354.4566929133858) translate(144.091 45.53)"/><use xlink:href="#D" transform="matrix(1,0,0,1,669.4173228346456,354.4566929133858) translate(208.909 45.53)"/><use xlink:href="#E" transform="matrix(1,0,0,1,669.4173228346456,354.4566929133858) translate(84.691 67.13000000000001)"/></g><path d="M818.9 316.96v10" stroke="#000" stroke-width="2" fill="none"/><path d="M819.9 317h-2v-1.04h2z"/><path d="M818.9 342.22l-4.64-14.27h9.27z" stroke="#000" stroke-width="2"/><defs><path d="M299-64c95-1 142-57 141-156v-469h88v466C524-80 443 11 299 11S72-79 72-223v-466h87v469c-1 99 45 155 140 156" id="F"/><path d="M280-58c84 5 156-46 121-126-25-33-62-42-118-58-101-31-180-44-180-152 0-172 283-177 392-86l-38 58c-42-28-84-48-152-48-96-3-135 45-101 108 50 50 205 62 254 112 26 26 43 59 43 104C500 44 180 48 74-60l47-55c38 31 93 57 159 57" id="G"/><path d="M167-234c1 104 57 173 153 175 63-1 97-20 141-47l39 56c-43 34-108 60-180 61C164 13 77-104 79-263c3-156 76-272 229-275 155-3 231 134 213 304H167zm274-64c0-99-41-171-132-171-93 0-138 73-142 171h274" id="H"/><path d="M267-402c40-99 128-162 263-125l-12 179h-68v-113c-87-2-142 56-178 174v222h107V0H105v-65h83v-397h-83v-65h146" id="I"/><g id="a"><use transform="matrix(0.018,0,0,0.018,0,0)" xlink:href="#F"/><use transform="matrix(0.018,0,0,0.018,10.799999999999999,0)" xlink:href="#G"/><use transform="matrix(0.018,0,0,0.018,21.599999999999998,0)" xlink:href="#H"/><use transform="matrix(0.018,0,0,0.018,32.4,0)" xlink:href="#I"/></g><path d="M497-689v70H344v550h153V0H103v-69h153v-550H103v-70h394" id="J"/><path d="M327-471c-64 0-116 47-143 88V0h-84v-527h72l7 74c34-46 100-84 174-85 99 0 148 52 148 156V0h-84v-320c-1-91-3-151-90-151" id="K"/><path d="M219-591c-3-153 202-192 335-130l-27 63c-33-15-71-22-113-22-73 0-110 29-110 87v107h178l-9 67H304V0h-85v-419H94v-67h125v-105" id="L"/><path d="M301-538c152-1 227 116 226 274 2 155-77 276-227 275C148 12 71-105 73-263c-2-156 77-276 228-275zm0 69c-107 0-137 85-137 206 1 121 29 205 136 205s135-84 136-206c-1-120-29-205-135-205" id="M"/><path d="M447-538c76 0 102 52 102 146V0h-77v-378c-4-59 6-89-41-94-34 0-65 21-92 63V0h-78v-378c-4-59 6-89-41-94-34 0-65 21-92 63V0H51v-527h65l6 62c29-39 54-71 114-73 49 0 81 23 95 70 29-39 56-70 116-70" id="N"/><path d="M478-115c0 42 12 57 43 67l-21 60c-51-7-83-32-96-75-34 44-90 74-165 74C137 13 68-51 69-151c3-149 154-179 324-169 10-103-29-151-125-148-40 0-86 9-137 27l-23-64c153-63 370-47 370 137v253zM260-52c60-1 107-35 133-75v-135c-121-4-236-1-234 110 0 67 34 100 101 100" id="O"/><path d="M519-27c-32 22-89 38-142 38-104 2-177-59-177-158v-314H79v-66h121v-119l84-10v129h183l-11 66H284v313C274-41 417-45 486-84" id="P"/><path d="M300-773c36-1 62 24 62 59s-26 60-62 59c-35 1-61-25-60-59-1-34 25-60 60-59zm67 246v460h148V0H121v-67h162v-393H126v-67h241" id="Q"/><g id="b"><use transform="matrix(0.018,0,0,0.018,0,0)" xlink:href="#J"/><use transform="matrix(0.018,0,0,0.018,10.799999999999999,0)" xlink:href="#K"/><use transform="matrix(0.018,0,0,0.018,21.599999999999998,0)" xlink:href="#L"/><use transform="matrix(0.018,0,0,0.018,32.4,0)" xlink:href="#M"/><use transform="matrix(0.018,0,0,0.018,43.199999999999996,0)" xlink:href="#I"/><use transform="matrix(0.018,0,0,0.018,53.99999999999999,0)" xlink:href="#N"/><use transform="matrix(0.018,0,0,0.018,64.8,0)" xlink:href="#O"/><use transform="matrix(0.018,0,0,0.018,75.6,0)" xlink:href="#P"/><use transform="matrix(0.018,0,0,0.018,86.39999999999999,0)" xlink:href="#Q"/><use transform="matrix(0.018,0,0,0.018,97.19999999999999,0)" xlink:href="#M"/><use transform="matrix(0.018,0,0,0.018,107.99999999999999,0)" xlink:href="#K"/></g><path d="M537-191C537-52 430 9 285 11 180 11 98-23 43-76l52-59c48 44 104 70 191 74 108 4 200-84 147-186-23-45-74-57-137-76-75-22-130-47-167-77s-55-71-55-122c-1-161 194-210 344-158 36 13 69 33 99 59l-52 56c-47-41-102-62-165-62-94 0-179 73-122 153 31 44 86 55 157 76 113 38 202 70 202 207" id="R"/><path d="M354 3c-42 115-98 195-236 209l-12-67c98-15 140-60 167-145h-28L62-527h89L302-64l149-463h87" id="S"/><g id="c"><use transform="matrix(0.018,0,0,0.018,0,0)" xlink:href="#R"/><use transform="matrix(0.018,0,0,0.018,10.799999999999999,0)" xlink:href="#S"/><use transform="matrix(0.018,0,0,0.018,21.599999999999998,0)" xlink:href="#G"/><use transform="matrix(0.018,0,0,0.018,32.4,0)" xlink:href="#P"/><use transform="matrix(0.018,0,0,0.018,43.199999999999996,0)" xlink:href="#H"/><use transform="matrix(0.018,0,0,0.018,53.99999999999999,0)" xlink:href="#N"/></g><path d="M63-345c-4-243 159-405 405-339 31 11 61 28 90 51l-49 57c-41-34-89-51-145-51-146 6-210 112-210 282S215-69 363-63c75 0 116-23 160-57l45 56c-51 50-120 75-206 75C163 3 67-136 63-345" id="T"/><path d="M378 11c-91 1-156-55-156-145v-538H60v-67h246v609c-6 82 110 83 175 53l22 61c-33 18-75 27-125 27" id="U"/><g id="d"><use transform="matrix(0.018,0,0,0.018,0,0)" xlink:href="#T"/><use transform="matrix(0.018,0,0,0.018,10.799999999999999,0)" xlink:href="#U"/><use transform="matrix(0.018,0,0,0.018,21.599999999999998,0)" xlink:href="#Q"/><use transform="matrix(0.018,0,0,0.018,32.4,0)" xlink:href="#H"/><use transform="matrix(0.018,0,0,0.018,43.199999999999996,0)" xlink:href="#K"/><use transform="matrix(0.018,0,0,0.018,53.99999999999999,0)" xlink:href="#P"/></g><path d="M179-453c33-47 84-84 157-85 127 0 191 91 191 274 1 151-60 274-203 275-57 0-104-20-140-60v251l-84 10v-739h72zm137-17c-62 0-103 44-132 84v261c24 36 65 65 121 66 104-5 130-86 131-205-2-117-20-206-120-206" id="V"/><g id="e"><use transform="matrix(0.018,0,0,0.018,0,0)" xlink:href="#M"/><use transform="matrix(0.018,0,0,0.018,10.799999999999999,0)" xlink:href="#V"/><use transform="matrix(0.018,0,0,0.018,21.618,0)" xlink:href="#H"/><use transform="matrix(0.018,0,0,0.018,32.418,0)" xlink:href="#K"/></g><path d="M367-773c35-1 62 25 61 59 1 34-26 60-61 59-35 1-62-25-61-59-1-34 26-60 61-59zM96 147c146-28 265-71 265-226v-381H142v-67h303v443c-7 199-144 261-335 296" id="W"/><path d="M182-261c0 121 49 197 157 200 46 0 92-15 137-46l40 55c-37 35-109 63-177 63C181 13 89-101 91-261c4-163 86-273 248-277 68 0 127 21 176 62l-41 55c-46-31-91-46-136-46-106 3-156 87-156 206" id="X"/><g id="f"><use transform="matrix(0.018,0,0,0.018,0,0)" xlink:href="#V"/><use transform="matrix(0.018,0,0,0.018,10.818,0)" xlink:href="#I"/><use transform="matrix(0.018,0,0,0.018,21.618,0)" xlink:href="#M"/><use transform="matrix(0.018,0,0,0.018,32.418,0)" xlink:href="#W"/><use transform="matrix(0.018,0,0,0.018,43.217999999999996,0)" xlink:href="#H"/><use transform="matrix(0.018,0,0,0.018,54.017999999999994,0)" xlink:href="#X"/><use transform="matrix(0.018,0,0,0.018,64.818,0)" xlink:href="#P"/></g><g id="g"><use transform="matrix(0.018,0,0,0.018,0,0)" xlink:href="#X"/><use transform="matrix(0.018,0,0,0.018,10.799999999999999,0)" xlink:href="#M"/><use transform="matrix(0.018,0,0,0.018,21.599999999999998,0)" xlink:href="#K"/><use transform="matrix(0.018,0,0,0.018,32.4,0)" xlink:href="#P"/><use transform="matrix(0.018,0,0,0.018,43.199999999999996,0)" xlink:href="#H"/><use transform="matrix(0.018,0,0,0.018,53.99999999999999,0)" xlink:href="#K"/><use transform="matrix(0.018,0,0,0.018,64.8,0)" xlink:href="#P"/></g><path d="M325-471c-62 0-114 48-141 87V0h-84v-738l84-9v293c35-46 95-83 169-84 99 0 148 52 148 156V0h-84v-381c0-64-28-90-92-90" id="Y"/><path d="M491 0H372l-69-386L229 0H113L18-527h85l68 475 84-408h99l79 408 68-475h81" id="Z"/><g id="h"><use transform="matrix(0.018,0,0,0.018,0,0)" xlink:href="#G"/><use transform="matrix(0.018,0,0,0.018,10.799999999999999,0)" xlink:href="#Y"/><use transform="matrix(0.018,0,0,0.018,21.599999999999998,0)" xlink:href="#M"/><use transform="matrix(0.018,0,0,0.018,32.4,0)" xlink:href="#Z"/></g><g id="i"><use transform="matrix(0.018,0,0,0.018,0,0)" xlink:href="#H"/><use transform="matrix(0.018,0,0,0.018,10.799999999999999,0)" xlink:href="#I"/><use transform="matrix(0.018,0,0,0.018,21.599999999999998,0)" xlink:href="#I"/><use transform="matrix(0.018,0,0,0.018,32.4,0)" xlink:href="#M"/><use transform="matrix(0.018,0,0,0.018,43.199999999999996,0)" xlink:href="#I"/></g><g id="j"><use transform="matrix(0.018,0,0,0.018,0,0)" xlink:href="#G"/><use transform="matrix(0.018,0,0,0.018,10.799999999999999,0)" xlink:href="#Y"/><use transform="matrix(0.018,0,0,0.018,21.599999999999998,0)" xlink:href="#M"/><use transform="matrix(0.018,0,0,0.018,32.4,0)" xlink:href="#Z"/></g><path d="M289-538c121 0 157-10 240-44l25 79c-47 15-88 14-154 15 61 28 92 72 92 133 6 138-137 209-277 168-14 10-27 29-27 51-5 60 105 43 165 45 100 2 186 48 186 143 0 120-114 161-251 160-145-2-217-30-222-159h76c0 82 60 90 146 91 92-1 166-13 166-87 0-85-119-77-212-75-76 1-131-34-133-100 2-42 28-73 58-92-55-28-88-69-88-145 0-118 88-180 210-183zm-1 62c-79-1-123 45-123 121s45 125 125 123c76 0 115-47 115-124 0-80-39-120-117-120" id="aa"/><path d="M68-263c3-150 62-268 206-275 58 0 105 21 142 63v-274l84 10V0h-74l-8-69c-33 46-79 78-149 80C124 10 68-109 68-263zm228-207c-103 4-137 89-137 207 0 115 28 202 127 207 50 0 93-28 130-84v-262c-25-38-63-67-120-68" id="ab"/><g id="k"><use transform="matrix(0.018,0,0,0.018,0,0)" xlink:href="#aa"/><use transform="matrix(0.018,0,0,0.018,10.799999999999999,0)" xlink:href="#H"/><use transform="matrix(0.018,0,0,0.018,21.599999999999998,0)" xlink:href="#K"/><use transform="matrix(0.018,0,0,0.018,32.4,0)" xlink:href="#H"/><use transform="matrix(0.018,0,0,0.018,43.199999999999996,0)" xlink:href="#I"/><use transform="matrix(0.018,0,0,0.018,53.99999999999999,0)" xlink:href="#O"/><use transform="matrix(0.018,0,0,0.018,64.8,0)" xlink:href="#P"/><use transform="matrix(0.018,0,0,0.018,75.6,0)" xlink:href="#H"/><use transform="matrix(0.018,0,0,0.018,86.39999999999999,0)" xlink:href="#ab"/></g><path d="M225-617v241h270v70H225V0h-87v-689h406l-10 72H225" id="ac"/><path d="M252 11c-100 1-152-56-152-155v-383h84v374c0 66 25 97 89 98 63 0 117-43 143-84v-388h84V0h-72l-7-71c-35 45-96 81-169 82" id="ad"/><g id="l"><use transform="matrix(0.018,0,0,0.018,0,0)" xlink:href="#ac"/><use transform="matrix(0.018,0,0,0.018,10.799999999999999,0)" xlink:href="#O"/><use transform="matrix(0.018,0,0,0.018,21.599999999999998,0)" xlink:href="#Q"/><use transform="matrix(0.018,0,0,0.018,32.4,0)" xlink:href="#U"/><use transform="matrix(0.018,0,0,0.018,43.199999999999996,0)" xlink:href="#ad"/><use transform="matrix(0.018,0,0,0.018,53.99999999999999,0)" xlink:href="#I"/><use transform="matrix(0.018,0,0,0.018,64.8,0)" xlink:href="#H"/></g><g id="m"><use transform="matrix(0.018,0,0,0.018,0,0)" xlink:href="#R"/><use transform="matrix(0.018,0,0,0.018,10.799999999999999,0)" xlink:href="#ad"/><use transform="matrix(0.018,0,0,0.018,21.599999999999998,0)" xlink:href="#X"/><use transform="matrix(0.018,0,0,0.018,32.4,0)" xlink:href="#X"/><use transform="matrix(0.018,0,0,0.018,43.199999999999996,0)" xlink:href="#H"/><use transform="matrix(0.018,0,0,0.018,53.99999999999999,0)" xlink:href="#G"/><use transform="matrix(0.018,0,0,0.018,64.8,0)" xlink:href="#G"/></g><g id="n"><use transform="matrix(0.018,0,0,0.018,0,0)" xlink:href="#aa"/><use transform="matrix(0.018,0,0,0.018,10.799999999999999,0)" xlink:href="#H"/><use transform="matrix(0.018,0,0,0.018,21.599999999999998,0)" xlink:href="#P"/></g><g id="o"><use transform="matrix(0.018,0,0,0.018,0,0)" xlink:href="#O"/><use transform="matrix(0.018,0,0,0.018,10.799999999999999,0)" xlink:href="#U"/><use transform="matrix(0.018,0,0,0.018,21.599999999999998,0)" xlink:href="#U"/></g><g id="p"><use transform="matrix(0.018,0,0,0.018,0,0)" xlink:href="#X"/><use transform="matrix(0.018,0,0,0.018,10.799999999999999,0)" xlink:href="#M"/><use transform="matrix(0.018,0,0,0.018,21.599999999999998,0)" xlink:href="#K"/><use transform="matrix(0.018,0,0,0.018,32.4,0)" xlink:href="#P"/><use transform="matrix(0.018,0,0,0.018,43.199999999999996,0)" xlink:href="#H"/><use transform="matrix(0.018,0,0,0.018,53.99999999999999,0)" xlink:href="#K"/><use transform="matrix(0.018,0,0,0.018,64.8,0)" xlink:href="#P"/></g><g id="q"><use transform="matrix(0.018,0,0,0.018,0,0)" xlink:href="#V"/><use transform="matrix(0.018,0,0,0.018,10.818,0)" xlink:href="#O"/><use transform="matrix(0.018,0,0,0.018,21.618,0)" xlink:href="#I"/><use transform="matrix(0.018,0,0,0.018,32.418,0)" xlink:href="#P"/><use transform="matrix(0.018,0,0,0.018,43.217999999999996,0)" xlink:href="#G"/></g><g id="r"><use transform="matrix(0.018,0,0,0.018,0,0)" xlink:href="#O"/><use transform="matrix(0.018,0,0,0.018,10.799999999999999,0)" xlink:href="#K"/><use transform="matrix(0.018,0,0,0.018,21.599999999999998,0)" xlink:href="#O"/><use transform="matrix(0.018,0,0,0.018,32.4,0)" xlink:href="#U"/><use transform="matrix(0.018,0,0,0.018,43.199999999999996,0)" xlink:href="#S"/><use transform="matrix(0.018,0,0,0.018,53.99999999999999,0)" xlink:href="#G"/><use transform="matrix(0.018,0,0,0.018,64.8,0)" xlink:href="#H"/></g><g id="s"><use transform="matrix(0.018,0,0,0.018,0,0)" xlink:href="#ab"/><use transform="matrix(0.018,0,0,0.018,10.799999999999999,0)" xlink:href="#H"/><use transform="matrix(0.018,0,0,0.018,21.599999999999998,0)" xlink:href="#V"/><use transform="matrix(0.018,0,0,0.018,32.418,0)" xlink:href="#H"/><use transform="matrix(0.018,0,0,0.018,43.217999999999996,0)" xlink:href="#K"/><use transform="matrix(0.018,0,0,0.018,54.017999999999994,0)" xlink:href="#ab"/><use transform="matrix(0.018,0,0,0.018,64.818,0)" xlink:href="#H"/><use transform="matrix(0.018,0,0,0.018,75.618,0)" xlink:href="#K"/><use transform="matrix(0.018,0,0,0.018,86.41799999999999,0)" xlink:href="#X"/><use transform="matrix(0.018,0,0,0.018,97.21799999999999,0)" xlink:href="#Q"/><use transform="matrix(0.018,0,0,0.018,108.01799999999999,0)" xlink:href="#H"/><use transform="matrix(0.018,0,0,0.018,118.818,0)" xlink:href="#G"/></g><g id="t"><use transform="matrix(0.018,0,0,0.018,0,0)" xlink:href="#O"/><use transform="matrix(0.018,0,0,0.018,10.799999999999999,0)" xlink:href="#K"/><use transform="matrix(0.018,0,0,0.018,21.599999999999998,0)" xlink:href="#ab"/></g><g id="u"><use transform="matrix(0.018,0,0,0.018,0,0)" xlink:href="#U"/><use transform="matrix(0.018,0,0,0.018,10.799999999999999,0)" xlink:href="#M"/><use transform="matrix(0.018,0,0,0.018,21.599999999999998,0)" xlink:href="#O"/><use transform="matrix(0.018,0,0,0.018,32.4,0)" xlink:href="#ab"/></g><g id="v"><use transform="matrix(0.018,0,0,0.018,0,0)" xlink:href="#P"/><use transform="matrix(0.018,0,0,0.018,10.799999999999999,0)" xlink:href="#Y"/><use transform="matrix(0.018,0,0,0.018,21.599999999999998,0)" xlink:href="#H"/><use transform="matrix(0.018,0,0,0.018,32.4,0)" xlink:href="#N"/></g><g id="w"><use transform="matrix(0.018,0,0,0.018,0,0)" xlink:href="#L"/><use transform="matrix(0.018,0,0,0.018,10.799999999999999,0)" xlink:href="#I"/><use transform="matrix(0.018,0,0,0.018,21.599999999999998,0)" xlink:href="#M"/><use transform="matrix(0.018,0,0,0.018,32.4,0)" xlink:href="#N"/></g><use transform="matrix(0.018,0,0,0.018,0,0)" xlink:href="#O" id="x"/><g id="y"><use transform="matrix(0.018,0,0,0.018,0,0)" xlink:href="#G"/><use transform="matrix(0.018,0,0,0.018,10.799999999999999,0)" xlink:href="#P"/><use transform="matrix(0.018,0,0,0.018,21.599999999999998,0)" xlink:href="#M"/><use transform="matrix(0.018,0,0,0.018,32.4,0)" xlink:href="#I"/><use transform="matrix(0.018,0,0,0.018,43.199999999999996,0)" xlink:href="#H"/></g><g id="z"><use transform="matrix(0.018,0,0,0.018,0,0)" xlink:href="#aa"/><use transform="matrix(0.018,0,0,0.018,10.799999999999999,0)" xlink:href="#H"/><use transform="matrix(0.018,0,0,0.018,21.599999999999998,0)" xlink:href="#K"/><use transform="matrix(0.018,0,0,0.018,32.4,0)" xlink:href="#H"/><use transform="matrix(0.018,0,0,0.018,43.199999999999996,0)" xlink:href="#I"/><use transform="matrix(0.018,0,0,0.018,53.99999999999999,0)" xlink:href="#O"/><use transform="matrix(0.018,0,0,0.018,64.8,0)" xlink:href="#P"/><use transform="matrix(0.018,0,0,0.018,75.6,0)" xlink:href="#H"/></g><g id="A"><use transform="matrix(0.018,0,0,0.018,0,0)" xlink:href="#X"/><use transform="matrix(0.018,0,0,0.018,10.799999999999999,0)" xlink:href="#M"/><use transform="matrix(0.018,0,0,0.018,21.599999999999998,0)" xlink:href="#K"/><use transform="matrix(0.018,0,0,0.018,32.4,0)" xlink:href="#P"/><use transform="matrix(0.018,0,0,0.018,43.199999999999996,0)" xlink:href="#H"/><use transform="matrix(0.018,0,0,0.018,53.99999999999999,0)" xlink:href="#K"/><use transform="matrix(0.018,0,0,0.018,64.8,0)" xlink:href="#P"/></g><g id="B"><use transform="matrix(0.018,0,0,0.018,0,0)" xlink:href="#L"/><use transform="matrix(0.018,0,0,0.018,10.799999999999999,0)" xlink:href="#I"/><use transform="matrix(0.018,0,0,0.018,21.599999999999998,0)" xlink:href="#M"/><use transform="matrix(0.018,0,0,0.018,32.4,0)" xlink:href="#N"/></g><g id="C"><use transform="matrix(0.018,0,0,0.018,0,0)" xlink:href="#V"/><use transform="matrix(0.018,0,0,0.018,10.818,0)" xlink:href="#O"/><use transform="matrix(0.018,0,0,0.018,21.618,0)" xlink:href="#I"/><use transform="matrix(0.018,0,0,0.018,32.418,0)" xlink:href="#P"/><use transform="matrix(0.018,0,0,0.018,43.217999999999996,0)" xlink:href="#G"/></g><path d="M540-527L348 0h-97L60-527h90L302-76l150-451h88" id="ae"/><g id="D"><use transform="matrix(0.018,0,0,0.018,0,0)" xlink:href="#ae"/><use transform="matrix(0.018,0,0,0.018,10.799999999999999,0)" xlink:href="#Q"/><use transform="matrix(0.018,0,0,0.018,21.599999999999998,0)" xlink:href="#O"/></g><g id="E"><use transform="matrix(0.018,0,0,0.018,0,0)" xlink:href="#ab"/><use transform="matrix(0.018,0,0,0.018,10.799999999999999,0)" xlink:href="#H"/><use transform="matrix(0.018,0,0,0.018,21.599999999999998,0)" xlink:href="#V"/><use transform="matrix(0.018,0,0,0.018,32.418,0)" xlink:href="#H"/><use transform="matrix(0.018,0,0,0.018,43.217999999999996,0)" xlink:href="#K"/><use transform="matrix(0.018,0,0,0.018,54.017999999999994,0)" xlink:href="#ab"/><use transform="matrix(0.018,0,0,0.018,64.818,0)" xlink:href="#H"/><use transform="matrix(0.018,0,0,0.018,75.618,0)" xlink:href="#K"/><use transform="matrix(0.018,0,0,0.018,86.41799999999999,0)" xlink:href="#X"/><use transform="matrix(0.018,0,0,0.018,97.21799999999999,0)" xlink:href="#Q"/><use transform="matrix(0.018,0,0,0.018,108.01799999999999,0)" xlink:href="#H"/><use transform="matrix(0.018,0,0,0.018,118.818,0)" xlink:href="#G"/></g></defs></g></svg>