<svg xmlns="http://www.w3.org/2000/svg" xmlns:xlink="http://www.w3.org/1999/xlink" xmlns:lucid="lucid" width="472.07" height="503.73"><g transform="translate(0 0)" lucid:page-tab-id="0_0"><path d="M0 0h472.07v503.73H0z" fill="#fff"/><path d="M236 138.98c0 7.18-5.83 13-13 13-7.2 0-13-5.82-13-13s5.8-13 13-13c7.17 0 13 5.82 13 13z" stroke="#000" stroke-width="2" fill="#834187"/><path d="M191.5 130.98c0-2.76 2.23-5 5-5h53c2.75 0 5 2.24 5 5v94c0 2.75-2.25 5-5 5h-53c-2.77 0-5-2.25-5-5z" fill="none"/><path d="M223 151.98v31.4c0 2.76 1.34 6.78 3 8.98l28.5 37.6m-31.5-41.6l-31.5 41.6m0-64.98h63" stroke="#000" stroke-width="2" fill="none"/><use xlink:href="#a" transform="matrix(1,0,0,1,111.49606299212599,229.96850393700782) translate(89.9 17.03)"/><path d="M76.3 233.77c0 7.35-5.96 13.3-13.3 13.3-7.35 0-13.3-5.95-13.3-13.3 0-7.34 5.95-13.3 13.3-13.3 7.34 0 13.3 5.96 13.3 13.3z" stroke="#000" stroke-width="2" fill="#834187"/><path d="M31.5 225.47c0-2.76 2.23-5 5-5h53c2.75 0 5 2.24 5 5v96.4c0 2.76-2.25 5-5 5h-53c-2.77 0-5-2.24-5-5z" fill="none"/><path d="M63 247.07v32.24c0 2.77 1.32 6.8 2.97 9.03l28.52 38.54M63 284.3l-31.5 42.57m0-66.5h63" stroke="#000" stroke-width="2" fill="none"/><use xlink:href="#b" transform="matrix(1,0,0,1,-48.50393700787402,326.8691076115485) translate(84.5 17.03)"/><path d="M390.95 44.5c0 7.17-5.82 13-13 13s-13-5.83-13-13c0-7.18 5.82-13 13-13s13 5.82 13 13z" stroke="#000" stroke-width="2" fill="#834187"/><path d="M346.46 36.5c0-2.77 2.24-5 5-5h53c2.75 0 5 2.23 5 5v93.98c0 2.76-2.25 5-5 5h-53c-2.76 0-5-2.24-5-5z" fill="none"/><path d="M377.95 57.5v31.4c0 2.75 1.35 6.77 3.02 8.97l28.48 37.6m-31.5-41.58l-31.5 41.58m0-65h63" stroke="#000" stroke-width="2" fill="none"/><use xlink:href="#c" transform="matrix(1,0,0,1,266.4566929133858,135.4803149606299) translate(41.3 17.03)"/><path d="M236 327.96c0 7.18-5.83 13-13 13-7.2 0-13-5.82-13-13s5.8-13 13-13c7.17 0 13 5.82 13 13z" stroke="#000" stroke-width="2" fill="#834187"/><path d="M191.5 319.96c0-2.76 2.23-5 5-5h53c2.75 0 5 2.24 5 5v93.98c0 2.77-2.25 5-5 5h-53c-2.77 0-5-2.23-5-5z" fill="none"/><path d="M223 340.96v31.4c0 2.75 1.34 6.78 3 8.98l28.5 37.6m-31.5-41.6l-31.5 41.6m0-65h63" stroke="#000" stroke-width="2" fill="none"/><use xlink:href="#d" transform="matrix(1,0,0,1,111.49606299212599,418.94488188976374) translate(79.1 17.03)"/><path d="M390.95 201.97c0 7.18-5.82 13-13 13s-13-5.82-13-13c0-7.17 5.82-13 13-13s13 5.83 13 13z" stroke="#000" stroke-width="2" fill="#834187"/><path d="M346.46 193.98c0-2.77 2.24-5 5-5h53c2.75 0 5 2.23 5 5v93.98c0 2.76-2.25 5-5 5h-53c-2.76 0-5-2.24-5-5z" fill="none"/><path d="M377.95 214.97v31.4c0 2.76 1.35 6.78 3.02 8.98l28.48 37.6m-31.5-41.58l-31.5 41.6m0-65h63" stroke="#000" stroke-width="2" fill="none"/><use xlink:href="#e" transform="matrix(1,0,0,1,266.4566929133858,292.96062992125985) translate(62.900000000000006 17.03)"/><path d="M390.95 359.45c0 7.18-5.82 13-13 13s-13-5.82-13-13c0-7.17 5.82-13 13-13s13 5.83 13 13z" stroke="#000" stroke-width="2" fill="#834187"/><path d="M346.46 351.46c0-2.76 2.24-5 5-5h53c2.75 0 5 2.24 5 5v93.98c0 2.76-2.25 5-5 5h-53c-2.76 0-5-2.24-5-5z" fill="none"/><path d="M377.95 372.45v31.4c0 2.76 1.35 6.78 3.02 8.98l28.48 37.6m-31.5-41.58l-31.5 41.6m0-65h63" stroke="#000" stroke-width="2" fill="none"/><use xlink:href="#f" transform="matrix(1,0,0,1,266.4566929133858,450.4409448818898) translate(95.3 17.03)"/><path d="M345.46 94.5h-40c-2.75 0-5 2.23-5 5v84.48c0 2.76-2.23 5-5 5H273" stroke="#000" stroke-width="2" fill="none"/><path d="M349.46 95.5h-4.03v-2h4.03z"/><path d="M257.72 188.98l14.27-4.64v9.27z" stroke="#000" stroke-width="2" fill="#fff"/><path d="M345.46 251.97h-40c-2.75 0-5-2.24-5-5v-53c0-2.76-2.23-5-5-5H273" stroke="#000" stroke-width="2" fill="none"/><path d="M349.46 252.97h-4.03v-2h4.03z"/><path d="M257.72 188.98l14.27-4.64v9.27z" stroke="#000" stroke-width="2" fill="#fff"/><path d="M345.46 409.45h-40c-2.75 0-5-2.24-5-5V193.98c0-2.77-2.23-5-5-5H273" stroke="#000" stroke-width="2" fill="none"/><path d="M349.46 410.45h-4.03v-2h4.03z"/><path d="M257.72 188.98l14.27-4.64v9.27z" stroke="#000" stroke-width="2" fill="#fff"/><path d="M190.5 188.98H148c-2.77 0-5 2.23-5 5v85.7c0 2.75-2.25 5-5 5h-25" stroke="#000" stroke-width="2" fill="none"/><path d="M194.5 189.98h-4.03v-2h4.03z"/><path d="M97.72 284.67l14.27-4.63v9.27z" stroke="#000" stroke-width="2" fill="#fff"/><path d="M190.5 377.95H148c-2.77 0-5-2.24-5-5v-83.28c0-2.76-2.25-5-5-5h-25" stroke="#000" stroke-width="2" fill="none"/><path d="M194.5 378.95h-4.03v-2h4.03z"/><path d="M97.72 284.67l14.27-4.63v9.27z" stroke="#000" stroke-width="2" fill="#fff"/><defs><path d="M252 11c-100 1-152-56-152-155v-383h84v374c0 66 25 97 89 98 63 0 117-43 143-84v-388h84V0h-72l-7-71c-35 45-96 81-169 82" id="g"/><path d="M280-58c84 5 156-46 121-126-25-33-62-42-118-58-101-31-180-44-180-152 0-172 283-177 392-86l-38 58c-42-28-84-48-152-48-96-3-135 45-101 108 50 50 205 62 254 112 26 26 43 59 43 104C500 44 180 48 74-60l47-55c38 31 93 57 159 57" id="h"/><path d="M167-234c1 104 57 173 153 175 63-1 97-20 141-47l39 56c-43 34-108 60-180 61C164 13 77-104 79-263c3-156 76-272 229-275 155-3 231 134 213 304H167zm274-64c0-99-41-171-132-171-93 0-138 73-142 171h274" id="i"/><path d="M267-402c40-99 128-162 263-125l-12 179h-68v-113c-87-2-142 56-178 174v222h107V0H105v-65h83v-397h-83v-65h146" id="j"/><g id="a"><use transform="matrix(0.018,0,0,0.018,0,0)" xlink:href="#g"/><use transform="matrix(0.018,0,0,0.018,10.799999999999999,0)" xlink:href="#h"/><use transform="matrix(0.018,0,0,0.018,21.599999999999998,0)" xlink:href="#i"/><use transform="matrix(0.018,0,0,0.018,32.4,0)" xlink:href="#j"/></g><path d="M289-538c121 0 157-10 240-44l25 79c-47 15-88 14-154 15 61 28 92 72 92 133 6 138-137 209-277 168-14 10-27 29-27 51-5 60 105 43 165 45 100 2 186 48 186 143 0 120-114 161-251 160-145-2-217-30-222-159h76c0 82 60 90 146 91 92-1 166-13 166-87 0-85-119-77-212-75-76 1-131-34-133-100 2-42 28-73 58-92-55-28-88-69-88-145 0-118 88-180 210-183zm-1 62c-79-1-123 45-123 121s45 125 125 123c76 0 115-47 115-124 0-80-39-120-117-120" id="k"/><path d="M519-27c-32 22-89 38-142 38-104 2-177-59-177-158v-314H79v-66h121v-119l84-10v129h183l-11 66H284v313C274-41 417-45 486-84" id="l"/><g id="b"><use transform="matrix(0.018,0,0,0.018,0,0)" xlink:href="#k"/><use transform="matrix(0.018,0,0,0.018,10.799999999999999,0)" xlink:href="#g"/><use transform="matrix(0.018,0,0,0.018,21.599999999999998,0)" xlink:href="#i"/><use transform="matrix(0.018,0,0,0.018,32.4,0)" xlink:href="#h"/><use transform="matrix(0.018,0,0,0.018,43.199999999999996,0)" xlink:href="#l"/></g><path d="M478-115c0 42 12 57 43 67l-21 60c-51-7-83-32-96-75-34 44-90 74-165 74C137 13 68-51 69-151c3-149 154-179 324-169 10-103-29-151-125-148-40 0-86 9-137 27l-23-64c153-63 370-47 370 137v253zM260-52c60-1 107-35 133-75v-135c-121-4-236-1-234 110 0 67 34 100 101 100" id="m"/><path d="M68-263c3-150 62-268 206-275 58 0 105 21 142 63v-274l84 10V0h-74l-8-69c-33 46-79 78-149 80C124 10 68-109 68-263zm228-207c-103 4-137 89-137 207 0 115 28 202 127 207 50 0 93-28 130-84v-262c-25-38-63-67-120-68" id="n"/><path d="M447-538c76 0 102 52 102 146V0h-77v-378c-4-59 6-89-41-94-34 0-65 21-92 63V0h-78v-378c-4-59 6-89-41-94-34 0-65 21-92 63V0H51v-527h65l6 62c29-39 54-71 114-73 49 0 81 23 95 70 29-39 56-70 116-70" id="o"/><path d="M300-773c36-1 62 24 62 59s-26 60-62 59c-35 1-61-25-60-59-1-34 25-60 60-59zm67 246v460h148V0H121v-67h162v-393H126v-67h241" id="p"/><path d="M327-471c-64 0-116 47-143 88V0h-84v-527h72l7 74c34-46 100-84 174-85 99 0 148 52 148 156V0h-84v-320c-1-91-3-151-90-151" id="q"/><path d="M301-538c152-1 227 116 226 274 2 155-77 276-227 275C148 12 71-105 73-263c-2-156 77-276 228-275zm0 69c-107 0-137 85-137 206 1 121 29 205 136 205s135-84 136-206c-1-120-29-205-135-205" id="r"/><g id="c"><use transform="matrix(0.018,0,0,0.018,0,0)" xlink:href="#m"/><use transform="matrix(0.018,0,0,0.018,10.799999999999999,0)" xlink:href="#n"/><use transform="matrix(0.018,0,0,0.018,21.599999999999998,0)" xlink:href="#o"/><use transform="matrix(0.018,0,0,0.018,32.4,0)" xlink:href="#p"/><use transform="matrix(0.018,0,0,0.018,43.199999999999996,0)" xlink:href="#q"/><use transform="matrix(0.018,0,0,0.018,53.99999999999999,0)" xlink:href="#p"/><use transform="matrix(0.018,0,0,0.018,64.8,0)" xlink:href="#h"/><use transform="matrix(0.018,0,0,0.018,75.6,0)" xlink:href="#l"/><use transform="matrix(0.018,0,0,0.018,86.39999999999999,0)" xlink:href="#j"/><use transform="matrix(0.018,0,0,0.018,97.19999999999999,0)" xlink:href="#m"/><use transform="matrix(0.018,0,0,0.018,107.99999999999999,0)" xlink:href="#l"/><use transform="matrix(0.018,0,0,0.018,118.8,0)" xlink:href="#r"/><use transform="matrix(0.018,0,0,0.018,129.6,0)" xlink:href="#j"/></g><path d="M532-264c2 150-67 275-209 275-61 0-108-22-143-66l-6 55h-74v-739l84-10v291c41-53 91-80 151-80 148 2 196 117 197 274zM304-57c103-4 137-89 137-207-1-115-26-206-125-206-62 0-103 44-132 84v261c24 37 64 67 120 68" id="s"/><g id="d"><use transform="matrix(0.018,0,0,0.018,0,0)" xlink:href="#s"/><use transform="matrix(0.018,0,0,0.018,10.799999999999999,0)" xlink:href="#m"/><use transform="matrix(0.018,0,0,0.018,21.599999999999998,0)" xlink:href="#q"/><use transform="matrix(0.018,0,0,0.018,32.4,0)" xlink:href="#q"/><use transform="matrix(0.018,0,0,0.018,43.199999999999996,0)" xlink:href="#i"/><use transform="matrix(0.018,0,0,0.018,53.99999999999999,0)" xlink:href="#n"/></g><path d="M325-471c-62 0-114 48-141 87V0h-84v-738l84-9v293c35-46 95-83 169-84 99 0 148 52 148 156V0h-84v-381c0-64-28-90-92-90" id="t"/><path d="M354 3c-42 115-98 195-236 209l-12-67c98-15 140-60 167-145h-28L62-527h89L302-64l149-463h87" id="u"/><g id="e"><use transform="matrix(0.018,0,0,0.018,0,0)" xlink:href="#m"/><use transform="matrix(0.018,0,0,0.018,10.799999999999999,0)" xlink:href="#g"/><use transform="matrix(0.018,0,0,0.018,21.599999999999998,0)" xlink:href="#l"/><use transform="matrix(0.018,0,0,0.018,32.4,0)" xlink:href="#t"/><use transform="matrix(0.018,0,0,0.018,43.199999999999996,0)" xlink:href="#r"/><use transform="matrix(0.018,0,0,0.018,53.99999999999999,0)" xlink:href="#j"/><use transform="matrix(0.018,0,0,0.018,64.8,0)" xlink:href="#p"/><use transform="matrix(0.018,0,0,0.018,75.6,0)" xlink:href="#l"/><use transform="matrix(0.018,0,0,0.018,86.39999999999999,0)" xlink:href="#u"/></g><path d="M211-77c-1-48 40-89 88-88 49-2 89 40 88 88 1 49-39 89-88 88-48 1-89-40-88-88" id="v"/><g id="f"><use transform="matrix(0.018,0,0,0.018,0,0)" xlink:href="#v"/><use transform="matrix(0.018,0,0,0.018,10.799999999999999,0)" xlink:href="#v"/><use transform="matrix(0.018,0,0,0.018,21.599999999999998,0)" xlink:href="#v"/></g></defs></g></svg>