<svg xmlns="http://www.w3.org/2000/svg" xmlns:xlink="http://www.w3.org/1999/xlink" xmlns:lucid="lucid" width="379.35" height="186.96"><g transform="translate(0 0)" lucid:page-tab-id="H6IVuxGI~mN5"><path d="M0 0h379.35v186.96H0z" fill="#fff"/><path d="M201.97 44.5c0 7.17-5.82 13-13 13-7.17 0-13-5.83-13-13 0-7.18 5.83-13 13-13 7.18 0 13 5.82 13 13z" stroke="#000" stroke-width="2" fill="#834187"/><path d="M157.48 36.5c0-2.77 2.24-5 5-5h53c2.75 0 5 2.23 5 5v93.98c0 2.76-2.25 5-5 5h-53c-2.76 0-5-2.24-5-5z" fill="none"/><path d="M188.98 57.5v31.4c0 2.75 1.35 6.77 3 8.97l28.5 37.6m-31.5-41.58l-31.5 41.58m0-65h63" stroke="#000" stroke-width="2" fill="none"/><use xlink:href="#a" transform="matrix(1,0,0,1,77.4803149606299,135.4803149606299) translate(52.10000000000001 17.03)"/><path d="M76 44.5c0 7.17-5.83 13-13 13-7.2 0-13-5.83-13-13 0-7.18 5.8-13 13-13 7.17 0 13 5.82 13 13z" stroke="#000" stroke-width="2" fill="#834187"/><path d="M31.5 36.5c0-2.77 2.23-5 5-5h53c2.75 0 5 2.23 5 5v93.98c0 2.76-2.25 5-5 5h-53c-2.77 0-5-2.24-5-5z" fill="none"/><path d="M63 57.5v31.4c0 2.75 1.34 6.77 3 8.97l28.5 37.6M63 93.9l-31.5 41.58m0-65h63" stroke="#000" stroke-width="2" fill="none"/><use xlink:href="#b" transform="matrix(1,0,0,1,-48.503937007874015,135.4803149606299) translate(73.7 17.03)"/><path d="M327.96 44.5c0 7.17-5.82 13-13 13s-13-5.83-13-13c0-7.18 5.82-13 13-13s13 5.82 13 13z" stroke="#000" stroke-width="2" fill="#834187"/><path d="M283.46 36.5c0-2.77 2.24-5 5-5h53c2.76 0 5 2.23 5 5v93.98c0 2.76-2.24 5-5 5h-53c-2.76 0-5-2.24-5-5z" fill="none"/><path d="M314.96 57.5v31.4c0 2.75 1.35 6.77 3.02 8.97l28.48 37.6m-31.5-41.58l-31.5 41.58m0-65h63" stroke="#000" stroke-width="2" fill="none"/><use xlink:href="#c" transform="matrix(1,0,0,1,203.46456692913387,135.4803149606299) translate(79.1 17.03)"/><path d="M156.48 94.5h-43.5" stroke="#000" stroke-width="2" fill="none"/><path d="M160.48 95.5h-4.03v-2h4.03z"/><path d="M97.72 94.5L112 89.84v9.27z" stroke="#000" stroke-width="2" fill="#fff"/><path d="M282.46 94.5h-43.5" stroke="#000" stroke-width="2" fill="none"/><path d="M286.46 95.5h-4.02v-2h4.02z"/><path d="M223.7 94.5l14.27-4.65v9.27z" stroke="#000" stroke-width="2" fill="#fff"/><defs><path d="M182-261c0 121 49 197 157 200 46 0 92-15 137-46l40 55c-37 35-109 63-177 63C181 13 89-101 91-261c4-163 86-273 248-277 68 0 127 21 176 62l-41 55c-46-31-91-46-136-46-106 3-156 87-156 206" id="d"/><path d="M301-538c152-1 227 116 226 274 2 155-77 276-227 275C148 12 71-105 73-263c-2-156 77-276 228-275zm0 69c-107 0-137 85-137 206 1 121 29 205 136 205s135-84 136-206c-1-120-29-205-135-205" id="e"/><path d="M327-471c-64 0-116 47-143 88V0h-84v-527h72l7 74c34-46 100-84 174-85 99 0 148 52 148 156V0h-84v-320c-1-91-3-151-90-151" id="f"/><path d="M519-27c-32 22-89 38-142 38-104 2-177-59-177-158v-314H79v-66h121v-119l84-10v129h183l-11 66H284v313C274-41 417-45 486-84" id="g"/><path d="M267-402c40-99 128-162 263-125l-12 179h-68v-113c-87-2-142 56-178 174v222h107V0H105v-65h83v-397h-83v-65h146" id="h"/><path d="M300-773c36-1 62 24 62 59s-26 60-62 59c-35 1-61-25-60-59-1-34 25-60 60-59zm67 246v460h148V0H121v-67h162v-393H126v-67h241" id="i"/><path d="M532-264c2 150-67 275-209 275-61 0-108-22-143-66l-6 55h-74v-739l84-10v291c41-53 91-80 151-80 148 2 196 117 197 274zM304-57c103-4 137-89 137-207-1-115-26-206-125-206-62 0-103 44-132 84v261c24 37 64 67 120 68" id="j"/><path d="M252 11c-100 1-152-56-152-155v-383h84v374c0 66 25 97 89 98 63 0 117-43 143-84v-388h84V0h-72l-7-71c-35 45-96 81-169 82" id="k"/><g id="a"><use transform="matrix(0.018,0,0,0.018,0,0)" xlink:href="#d"/><use transform="matrix(0.018,0,0,0.018,10.799999999999999,0)" xlink:href="#e"/><use transform="matrix(0.018,0,0,0.018,21.599999999999998,0)" xlink:href="#f"/><use transform="matrix(0.018,0,0,0.018,32.4,0)" xlink:href="#g"/><use transform="matrix(0.018,0,0,0.018,43.199999999999996,0)" xlink:href="#h"/><use transform="matrix(0.018,0,0,0.018,53.99999999999999,0)" xlink:href="#i"/><use transform="matrix(0.018,0,0,0.018,64.8,0)" xlink:href="#j"/><use transform="matrix(0.018,0,0,0.018,75.6,0)" xlink:href="#k"/><use transform="matrix(0.018,0,0,0.018,86.39999999999999,0)" xlink:href="#g"/><use transform="matrix(0.018,0,0,0.018,97.19999999999999,0)" xlink:href="#e"/><use transform="matrix(0.018,0,0,0.018,107.99999999999999,0)" xlink:href="#h"/></g><path d="M540-527L348 0h-97L60-527h90L302-76l150-451h88" id="l"/><path d="M280-58c84 5 156-46 121-126-25-33-62-42-118-58-101-31-180-44-180-152 0-172 283-177 392-86l-38 58c-42-28-84-48-152-48-96-3-135 45-101 108 50 50 205 62 254 112 26 26 43 59 43 104C500 44 180 48 74-60l47-55c38 31 93 57 159 57" id="m"/><g id="b"><use transform="matrix(0.018,0,0,0.018,0,0)" xlink:href="#l"/><use transform="matrix(0.018,0,0,0.018,10.799999999999999,0)" xlink:href="#i"/><use transform="matrix(0.018,0,0,0.018,21.599999999999998,0)" xlink:href="#m"/><use transform="matrix(0.018,0,0,0.018,32.4,0)" xlink:href="#i"/><use transform="matrix(0.018,0,0,0.018,43.199999999999996,0)" xlink:href="#g"/><use transform="matrix(0.018,0,0,0.018,53.99999999999999,0)" xlink:href="#e"/><use transform="matrix(0.018,0,0,0.018,64.8,0)" xlink:href="#h"/></g><path d="M378 11c-91 1-156-55-156-145v-538H60v-67h246v609c-6 82 110 83 175 53l22 61c-33 18-75 27-125 27" id="n"/><path d="M167-234c1 104 57 173 153 175 63-1 97-20 141-47l39 56c-43 34-108 60-180 61C164 13 77-104 79-263c3-156 76-272 229-275 155-3 231 134 213 304H167zm274-64c0-99-41-171-132-171-93 0-138 73-142 171h274" id="o"/><path d="M478-115c0 42 12 57 43 67l-21 60c-51-7-83-32-96-75-34 44-90 74-165 74C137 13 68-51 69-151c3-149 154-179 324-169 10-103-29-151-125-148-40 0-86 9-137 27l-23-64c153-63 370-47 370 137v253zM260-52c60-1 107-35 133-75v-135c-121-4-236-1-234 110 0 67 34 100 101 100" id="p"/><path d="M68-263c3-150 62-268 206-275 58 0 105 21 142 63v-274l84 10V0h-74l-8-69c-33 46-79 78-149 80C124 10 68-109 68-263zm228-207c-103 4-137 89-137 207 0 115 28 202 127 207 50 0 93-28 130-84v-262c-25-38-63-67-120-68" id="q"/><g id="c"><use transform="matrix(0.018,0,0,0.018,0,0)" xlink:href="#n"/><use transform="matrix(0.018,0,0,0.018,10.799999999999999,0)" xlink:href="#o"/><use transform="matrix(0.018,0,0,0.018,21.599999999999998,0)" xlink:href="#p"/><use transform="matrix(0.018,0,0,0.018,32.4,0)" xlink:href="#q"/><use transform="matrix(0.018,0,0,0.018,43.199999999999996,0)" xlink:href="#o"/><use transform="matrix(0.018,0,0,0.018,53.99999999999999,0)" xlink:href="#h"/></g></defs></g></svg>