<svg xmlns="http://www.w3.org/2000/svg" xmlns:xlink="http://www.w3.org/1999/xlink" xmlns:lucid="lucid" width="1102.36" height="440.94"><g transform="translate(0 0)" lucid:page-tab-id="0_0"><path d="M0 0h1102.36v440.94H0z" fill="#fff"/><path d="M31.5 31.5h503.93v377.95H31.5z" stroke="#000" stroke-width="2" fill-opacity="0"/><path d="M125.98 125.98c0 17.4-14.1 31.5-31.5 31.5S63 143.38 63 125.98s14.1-31.5 31.5-31.5S126 108.6 126 126z" stroke="#000" stroke-width="2" fill="#fff"/><path d="M275.46 126.98H128v-2h147.46zm145.98 0H291.46v-2h129.98z"/><path d="M128 126.98h-1.1l.1-1-.08-1h1.1zM436.7 125.98l-14.26 4.64v-9.27z"/><path d="M439.94 125.98l-18.5 6.02v-12.03zm-16.5 3.26l10.03-3.26-10.03-3.25z"/><use xlink:href="#a" transform="matrix(1,0,0,1,275.4645669364499,109.98425196850391) translate(0 24.933333333333337)"/><path d="M503.94 125.98c0 17.4-14.1 31.5-31.5 31.5s-31.5-14.1-31.5-31.5 14.1-31.5 31.5-31.5 31.5 14.1 31.5 31.5zM125.98 346.46c0 17.4-14.1 31.5-31.5 31.5S63 363.85 63 346.45s14.1-31.5 31.5-31.5 31.5 14.1 31.5 31.5z" stroke="#000" stroke-width="2" fill="#fff"/><path d="M275.96 238.65l-69.32 1.1-17.4 1.5-12.75 1.65-10 1.7-8.14 1.77-6.8 1.76-5.77 1.76-5 1.75-4.37 1.74-3.86 1.72-3.44 1.72-3.1 1.7-2.78 1.72-2.54 1.7-2.3 1.7-2.14 1.7-1.96 1.7-1.82 1.7-1.68 1.74-1.57 1.76-1.46 1.78-1.37 1.8-1.27 1.86-1.2 1.9-1.1 1.94-1.06 2-.97 2.1-.9 2.16-.83 2.25-.75 2.36-.7 2.5-.2.93-1.95-.45.22-.97.7-2.56.78-2.44.86-2.33.93-2.24 1-2.16 1.1-2.08 1.15-2.04 1.24-1.96 1.32-1.92 1.42-1.88 1.5-1.84 1.64-1.82 1.74-1.8 1.88-1.77 2.02-1.76 2.2-1.74 2.4-1.74 2.6-1.75 2.86-1.74 3.16-1.76 3.5-1.75 3.95-1.77 4.44-1.77 5.07-1.8 5.86-1.78 6.87-1.78 8.2-1.77 10.1-1.73 12.84-1.66 17.5-1.5 69.42-1.1zm197.46-79.15l-.05 2.93-.2 3.65-.36 3.38-.44 3.17-.56 2.97-.65 2.8-.73 2.66-.8 2.52-.9 2.42-.96 2.3-1.04 2.24-1.1 2.15-1.2 2.08-1.3 2.03-1.35 1.98-1.46 1.94-1.55 1.9-1.68 1.87-1.8 1.83-1.92 1.83-2.08 1.8-2.26 1.8-2.44 1.8-2.68 1.8-2.93 1.78-3.24 1.8-3.6 1.8-4.02 1.8-4.54 1.82-5.18 1.82-5.98 1.82-7 1.82-8.37 1.8-10.23 1.76-13.03 1.68-17.7 1.52-28.14 1.22-37.94.6v-2l37.88-.6 28.07-1.2 17.63-1.53 12.94-1.67 10.16-1.74 8.28-1.8 6.93-1.78 5.9-1.8 5.1-1.8 4.47-1.78 3.95-1.77 3.53-1.77 3.16-1.75 2.87-1.74 2.6-1.74 2.4-1.74 2.2-1.75 2-1.75 1.88-1.77 1.73-1.78 1.63-1.8 1.5-1.84 1.4-1.87 1.33-1.9 1.24-1.95 1.15-2.02 1.08-2.08 1-2.15.93-2.23.86-2.34.8-2.45.7-2.57.62-2.7.54-2.9.45-3.08.33-3.3.2-3.57.06-2.88z"/><path d="M472.44 158.48l1-.07-.02 1.13-2-.03.02-1.1zM100.95 297.04l-6.12 13.7-3.1-14.68z"/><path d="M102.42 296.2l-7.93 17.76-4.03-19.04zm-7.25 11.32l4.3-9.63-6.48-.7z"/><use xlink:href="#b" transform="matrix(1,0,0,1,275.9606542109511,221.52752242141977) translate(0 24.933333333333337)"/><path d="M503.94 346.46c0 17.4-14.1 31.5-31.5 31.5s-31.5-14.1-31.5-31.5 14.1-31.5 31.5-31.5 31.5 14.1 31.5 31.5z" stroke="#000" stroke-width="2" fill="#fff"/><path d="M275.46 347.46H128v-2h147.46zm145.98 0H291.46v-2h129.98z"/><path d="M128 347.46h-1.1l.1-1-.08-1h1.1zM436.7 346.46l-14.26 4.63v-9.28z"/><path d="M439.94 346.46l-18.5 6v-12zm-16.5 3.26l10.03-3.26-10.03-3.26z"/><use xlink:href="#c" transform="matrix(1,0,0,1,275.4645669364499,330.4566929133858) translate(0 24.933333333333337)"/><path d="M31.5 31.5h503.93V63H31.5z" stroke="#000" stroke-width="2" fill="#e5e5e5"/><path d="M566.93 31.5h503.94v377.95H566.93z" stroke="#000" stroke-width="2" fill-opacity="0"/><path d="M661.42 125.98c0 17.4-14.1 31.5-31.5 31.5s-31.5-14.1-31.5-31.5 14.1-31.5 31.5-31.5 31.5 14.1 31.5 31.5z" stroke="#000" stroke-width="2" fill="#fff"/><path d="M810.9 126.98H663.42v-2H810.9zm145.97 0H826.9v-2h129.97z"/><path d="M663.45 126.98h-1.1l.07-1-.07-1h1.1zM972.14 125.98l-14.27 4.64v-9.27z"/><path d="M975.38 125.98l-18.5 6.02v-12.03zm-16.5 3.26l10.02-3.26-10.03-3.25z"/><use xlink:href="#a" transform="matrix(1,0,0,1,810.8976378025916,109.98425196850391) translate(0 24.933333333333337)"/><path d="M1039.37 125.98c0 17.4-14.1 31.5-31.5 31.5s-31.5-14.1-31.5-31.5 14.1-31.5 31.5-31.5 31.5 14.1 31.5 31.5zM661.42 251.97c0 17.4-14.1 31.5-31.5 31.5s-31.5-14.1-31.5-31.5 14.1-31.5 31.5-31.5 31.5 14.1 31.5 31.5z" stroke="#000" stroke-width="2" fill="#fff"/><path d="M630.92 172.98h-2v-13.5h2z"/><path d="M629.92 158.48l1-.07v1.1h-2v-1.1zM629.92 216.23l-3.66-11.25h7.32z"/><path d="M629.92 219.47l-4.7-14.5h2.1l2.6 8.03 2.6-8.02h2.1z"/><use xlink:href="#b" transform="matrix(1,0,0,1,621.9212598425196,172.9763779611879) translate(0 24.933333333333337)"/><path d="M850.4 251.97c0 17.4-14.1 31.5-31.5 31.5s-31.5-14.1-31.5-31.5 14.1-31.5 31.5-31.5 31.5 14.1 31.5 31.5z" stroke="#000" stroke-width="2" fill="#fff"/><path d="M716.4 252.97h-52.98v-2h53zm51.5 0h-35.5v-2h35.5z"/><path d="M663.45 252.97h-1.1l.07-1-.07-1h1.1zM783.16 251.97l-14.26 4.63v-9.27z"/><path d="M786.4 251.97l-18.5 6v-12zm-16.5 3.26l10.03-3.26-10.03-3.26z"/><use xlink:href="#c" transform="matrix(1,0,0,1,716.4094488262135,235.96850393700785) translate(0 24.933333333333337)"/><path d="M566.93 31.5h503.94V63H566.93z" stroke="#000" stroke-width="2" fill="#e5e5e5"/><path d="M630.92 359.76h-2v-12.4h2zm0-44.4h-2v-29.9h2z"/><path d="M629.92 284.47l1-.07v1.1h-2v-1.1zM629.92 375.03l-4.63-14.27h9.26z"/><path d="M629.92 378.27l-6-18.5h12zm-3.26-16.5l3.26 10.02 3.26-10.04z"/><use xlink:href="#d" transform="matrix(1,0,0,1,621.9212598425196,315.36678948030556) translate(0 24.933333333333337)"/><defs><path d="M374-68h143V0H120v-68h169v-529l-157 95-37-59 205-128h74v621" id="e"/><use transform="matrix(0.02666666666666667,0,0,0.02666666666666667,0,0)" xlink:href="#e" id="a"/><path d="M269-700c124 3 208 70 208 192 0 120-55 176-124 256-43 48-105 107-184 180h324L483 0H73v-68c136-135 216-196 291-327 54-94 26-241-99-234-79 4-106 26-148 73l-58-45c50-62 107-98 210-99" id="f"/><use transform="matrix(0.02666666666666667,0,0,0.02666666666666667,0,0)" xlink:href="#f" id="b"/><path d="M269-700c119 2 205 61 211 173 2 81-65 148-134 160 87 6 156 71 156 169C502-24 310 52 146-12c-38-15-69-38-94-68l56-46c32 39 87 67 153 68 92 1 153-51 153-140 4-108-79-141-200-131l10-67c98 9 171-29 171-120 0-74-57-117-130-116-71 2-103 25-146 63l-46-51c56-53 121-80 196-80" id="g"/><use transform="matrix(0.02666666666666667,0,0,0.02666666666666667,0,0)" xlink:href="#g" id="c"/><path d="M528-235v68h-89V0h-81v-167H72v-62l202-471 70 30-183 435h198l7-195h73v195h89" id="h"/><use transform="matrix(0.02666666666666667,0,0,0.02666666666666667,0,0)" xlink:href="#h" id="d"/></defs></g></svg>