<svg xmlns="http://www.w3.org/2000/svg" xmlns:xlink="http://www.w3.org/1999/xlink" xmlns:lucid="lucid" width="787.4" height="314.96"><g transform="translate(0 0)" lucid:page-tab-id="JFt~.GEf76wI"><path d="M0 0h787.4v314.96H0z" fill="#fff"/><path d="M220.47 63c0 17.4-14.1 31.5-31.5 31.5s-31.5-14.1-31.5-31.5 14.1-31.5 31.5-31.5 31.5 14.1 31.5 31.5z" stroke="#000" stroke-width="2" fill="#fff"/><use xlink:href="#a" transform="matrix(1,0,0,1,162.48031496060057,36.496062992125985) translate(13.166666666666666 33.94444444444444)"/><path d="M157.48 157.48c0 17.4-14.1 31.5-31.5 31.5s-31.5-14.1-31.5-31.5 14.1-31.5 31.5-31.5 31.5 14.1 31.5 31.5zM283.46 157.48c0 17.4-14.1 31.5-31.5 31.5s-31.5-14.1-31.5-31.5 14.1-31.5 31.5-31.5 31.5 14.1 31.5 31.5zM94.5 251.97c0 17.4-14.1 31.5-31.5 31.5s-31.5-14.1-31.5-31.5 14.1-31.5 31.5-31.5 31.5 14.1 31.5 31.5zM220.47 251.97c0 17.4-14.1 31.5-31.5 31.5s-31.5-14.1-31.5-31.5 14.1-31.5 31.5-31.5 31.5 14.1 31.5 31.5z" stroke="#000" stroke-width="2" fill="#fff"/><use xlink:href="#b" transform="matrix(1,0,0,1,162.48031496057217,225.47244094486814) translate(-0.16666666666666785 33.94444444444444)"/><path d="M346.46 251.97c0 17.4-14.1 31.5-31.5 31.5s-31.5-14.1-31.5-31.5 14.1-31.5 31.5-31.5 31.5 14.1 31.5 31.5zM478.74 31.5c13.92 0 25.2 14.1 25.2 31.5s-11.28 31.5-25.2 31.5h-75.6c-13.9 0-25.2-14.1-25.2-31.5s11.3-31.5 25.2-31.5z" stroke="#000" stroke-width="2" fill="#fff"/><use xlink:href="#c" transform="matrix(1,0,0,1,382.95275590551176,36.496062992125985) translate(24.666666666666664 33.94444444444444)"/><path d="M81.53 224.16l25.92-38.87" stroke="#000" stroke-width="2" fill="none"/><path d="M82.38 224.7l-.56.82-1.7-1.05.6-.88zM108.85 184.98l-.58.88-1.67-1.1.55-.83z"/><path d="M144.52 129.67l25.92-38.87" stroke="#000" stroke-width="2" fill="none"/><path d="M145.37 130.2l-.55.83-1.7-1.05.58-.88zM171.84 90.5l-.58.87-1.67-1.1.54-.83z"/><path d="M233.42 129.66l-25.9-38.84" stroke="#000" stroke-width="2" fill="none"/><path d="M234.83 129.97l-1.68 1-.03.04-.55-.8 1.67-1.12zM208.37 90.28l-1.66 1.1-.6-.88 1.7-1 .03-.04z"/><path d="M296.4 224.14l-25.88-38.84" stroke="#000" stroke-width="2" fill="none"/><path d="M297.83 224.46l-1.7 1-.02.04-.54-.82 1.67-1.1zM271.36 184.77l-1.66 1.1-.6-.88 1.7-1.02.02-.03z"/><path d="M170.43 224.14l-25.9-38.84" stroke="#000" stroke-width="2" fill="none"/><path d="M171.84 224.46l-1.68 1-.03.04-.55-.82 1.66-1.1zM145.38 184.77l-1.66 1.1-.6-.88 1.68-1.02.03-.03z"/><path d="M629.92 63c0 17.4-14.1 31.5-31.5 31.5s-31.5-14.1-31.5-31.5 14.1-31.5 31.5-31.5 31.5 14.1 31.5 31.5z" stroke="#000" stroke-width="2" fill="#fff"/><use xlink:href="#a" transform="matrix(1,0,0,1,571.929133858254,36.496062992169996) translate(13.166666666666666 33.94444444444444)"/><path d="M566.93 157.48c0 17.4-14.1 31.5-31.5 31.5s-31.5-14.1-31.5-31.5 14.1-31.5 31.5-31.5 31.5 14.1 31.5 31.5zM692.9 157.48c0 17.4-14.1 31.5-31.48 31.5-17.4 0-31.5-14.1-31.5-31.5s14.1-31.5 31.5-31.5 31.5 14.1 31.5 31.5zM503.94 251.97c0 17.4-14.1 31.5-31.5 31.5s-31.5-14.1-31.5-31.5 14.1-31.5 31.5-31.5 31.5 14.1 31.5 31.5zM629.92 251.97c0 17.4-14.1 31.5-31.5 31.5s-31.5-14.1-31.5-31.5 14.1-31.5 31.5-31.5 31.5 14.1 31.5 31.5z" stroke="#000" stroke-width="2" fill="#fff"/><use xlink:href="#b" transform="matrix(1,0,0,1,571.929133858254,225.47244094489747) translate(-0.16666666666666785 33.94444444444444)"/><path d="M755.9 251.97c0 17.4-14.1 31.5-31.5 31.5s-31.5-14.1-31.5-31.5 14.1-31.5 31.5-31.5 31.5 14.1 31.5 31.5z" stroke="#000" stroke-width="2" fill="#fff"/><path d="M490.98 224.16l25.92-38.87" stroke="#000" stroke-width="2" fill="none"/><path d="M491.82 224.7l-.55.82-1.7-1.05.6-.88zM518.3 184.98l-.6.88-1.65-1.1.55-.83z"/><path d="M553.97 129.67L579.9 90.8" stroke="#000" stroke-width="2" fill="none"/><path d="M554.82 130.2l-.55.83-1.7-1.05.58-.88zM581.3 90.5l-.6.87-1.66-1.1.55-.83z"/><path d="M642.87 129.66l-25.9-38.84" stroke="#000" stroke-width="2" fill="none"/><path d="M644.28 129.97l-1.68 1-.03.04-.55-.8 1.67-1.12zM617.82 90.28l-1.66 1.1-.6-.88 1.68-1 .04-.04z"/><path d="M705.86 224.14l-25.9-38.84" stroke="#000" stroke-width="2" fill="none"/><path d="M707.27 224.46l-1.68 1-.04.04-.55-.82 1.68-1.1zM680.8 184.77l-1.65 1.1-.6-.88 1.68-1.02.04-.03z"/><path d="M579.88 224.14l-25.9-38.84" stroke="#000" stroke-width="2" fill="none"/><path d="M581.3 224.46l-1.7 1-.03.04-.54-.82 1.66-1.1zM554.83 184.77l-1.67 1.1-.6-.88 1.7-1.02.02-.03z"/><path d="M188.92 217.97l-.6-17.24-1.2-10.13-1.38-6.88-1.45-5.04-1.48-3.87-1.45-3.05-1.43-2.5-1.43-2.05-1.4-1.74-.2-.2" stroke="#000" stroke-width="3" fill="none"/><path d="M190.48 219.6l-1.5-.13-1.5.1-.06-1.6 3-.1z"/><path d="M162.95 159.37l14.95 1.28-3.6 8.54z" stroke="#000" stroke-width="3"/><path d="M126.04 123.48l.6-17.24 1.2-10.13 1.38-6.87 1.46-5.04 1.46-3.87 1.45-3.07 1.42-2.48 1.43-2.07 1.42-1.72.2-.2" stroke="#000" stroke-width="3" fill="none"/><path d="M127.54 123.5l-.06 1.6-1.5-.12-1.5.1.06-1.7z"/><path d="M152 64.88l-11.33 9.82-3.6-8.54z" stroke="#000" stroke-width="3"/><path d="M564.54 251.4l-5.54-2.35-6.54-3.1-6.18-3.23-5.86-3.4-5.56-3.53-5.28-3.68-5.03-3.83-4.78-3.97-4.55-4.1-4.34-4.27-4.14-4.4-3.94-4.6-3.75-4.74-3.57-4.92-3.4-5.12-3.2-5.32-3.04-5.54-2.86-5.77-2.67-6.02-2.47-6.3-2.3-6.57-2.06-6.9-1.85-7.24-1.6-7.6-1.35-8.02-1.05-8.44-.2-2.38" stroke="#000" stroke-width="3" fill="none"/><path d="M566.05 250.4l-.12 1.56.12 1.7-2.13-.9 1.17-2.77z"/><path d="M466.68 100.34l5.3 14.03-9.26.43z" stroke="#000" stroke-width="3"/><path d="M506.44 63h38.87" stroke="#000" stroke-width="3" fill="none"/><path d="M506.48 64.5h-1.66l.12-1.5-.1-1.5h1.64z"/><path d="M561.07 63l-14.26 4.63v-9.27z" stroke="#000" stroke-width="3"/><defs><path d="M342-614V0h-87v-614H40v-75h519l-9 75H342" id="d"/><path d="M553-344c1 192-75 355-253 355C119 11 46-148 47-343c3-194 67-357 253-357 179 0 255 163 253 356zm-90 0c0-158-26-283-163-283-136 0-163 126-163 284 0 157 28 281 163 281 136 0 163-124 163-282" id="e"/><g id="a"><use transform="matrix(0.022222222222222223,0,0,0.022222222222222223,0,0)" xlink:href="#d"/><use transform="matrix(0.022222222222222223,0,0,0.022222222222222223,13.333333333333334,0)" xlink:href="#e"/></g><path d="M225-617v241h270v70H225V0h-87v-689h406l-10 72H225" id="f"/><path d="M537-495c0 108-77 167-168 190L574 0H470L281-295h-93V0h-86v-689h176c154 0 256 52 259 194zm-92 0c0-133-124-127-257-124v256c136 6 257 3 257-132" id="g"/><path d="M570 0h-84c-10-216-28-371-27-609L343-124h-87L132-609c8 217-13 405-20 609H30l39-689h121l112 472 107-472h122" id="h"/><g id="b"><use transform="matrix(0.022222222222222223,0,0,0.022222222222222223,0,0)" xlink:href="#f"/><use transform="matrix(0.022222222222222223,0,0,0.022222222222222223,13.333333333333334,0)" xlink:href="#g"/><use transform="matrix(0.022222222222222223,0,0,0.022222222222222223,26.666666666666668,0)" xlink:href="#e"/><use transform="matrix(0.022222222222222223,0,0,0.022222222222222223,40,0)" xlink:href="#h"/></g><path d="M537-191C537-52 430 9 285 11 180 11 98-23 43-76l52-59c48 44 104 70 191 74 108 4 200-84 147-186-23-45-74-57-137-76-75-22-130-47-167-77s-55-71-55-122c-1-161 194-210 344-158 36 13 69 33 99 59l-52 56c-47-41-102-62-165-62-94 0-179 73-122 153 31 44 86 55 157 76 113 38 202 70 202 207" id="i"/><path d="M212-617v232h256v71H212v244h314V0H126v-689h391l-10 72H212" id="j"/><g id="c"><use transform="matrix(0.022222222222222223,0,0,0.022222222222222223,0,0)" xlink:href="#i"/><use transform="matrix(0.022222222222222223,0,0,0.022222222222222223,13.333333333333334,0)" xlink:href="#d"/><use transform="matrix(0.022222222222222223,0,0,0.022222222222222223,26.666666666666668,0)" xlink:href="#e"/><use transform="matrix(0.022222222222222223,0,0,0.022222222222222223,40,0)" xlink:href="#g"/><use transform="matrix(0.022222222222222223,0,0,0.022222222222222223,53.333333333333336,0)" xlink:href="#j"/></g></defs></g></svg>